<svg width="259" height="324" viewBox="0 0 259 324" fill="none" xmlns="http://www.w3.org/2000/svg">
<path fill-rule="evenodd" clip-rule="evenodd" d="M13.0864 194.94C10.9224 193.81 8.80951 192.582 6.73 191.304C5.26529 190.428 6.56204 188.22 8.06394 189.018C8.8319 189.426 9.5969 189.838 10.3646 190.244C9.76042 189.723 9.20034 189.156 8.69815 188.538L8.73282 188.504C6.79676 186.769 9.2836 183.494 11.4854 184.92C13.4272 186.328 15.3867 187.765 17.6156 188.692C22.2322 190.65 27.3244 190.974 32.2794 191.031C34.0927 190.894 35.8247 191.209 37.5841 191.559C36.8944 188.791 35.1681 186.7 34.2524 184.019C33.5768 181.312 37.4827 179.468 38.867 182.07C39.2067 182.709 39.5306 183.355 39.8472 184.005C42.8392 186.727 47.8353 186.488 50.8528 189.411C52.5716 190.937 53.4128 193.008 53.745 195.086C53.9706 196.497 53.6199 197.912 54.4729 199.162C58.5966 204.997 65.1125 214.22 68.4215 220.641C70.7645 205.382 77.0204 186.508 83.4833 172.556C85.6205 168.094 88.0655 163.733 91.275 159.951C90.9112 158.69 92.1953 156.451 93.0119 157.14C95.5253 154.068 99.9683 153.273 103.541 151.746C108.363 149.683 112.365 145.395 114.332 140.521C116.859 131.241 123.08 130.062 131.708 130.472C139.965 130.462 146.074 133.995 147.876 142.403C151.536 148.786 160.178 147.73 166.396 149.42C170.952 150.461 175.374 152.071 179.577 154.115C184.252 149.679 200.996 168.297 202.518 173.089C201.622 173.263 200.731 173.472 199.849 173.727C199.063 173.954 199.393 175.142 200.186 174.952C201.172 174.715 202.165 174.551 203.162 174.438C203.193 174.534 203.219 174.629 203.239 174.722C203.351 174.715 203.463 174.705 203.575 174.698C203.327 174.827 203.088 174.977 202.855 175.17C202.292 175.638 203.025 176.54 203.623 176.168C204.186 175.746 204.924 175.813 205.6 175.671C205.64 177.061 210.599 175.506 211.37 175.045C214.793 174.617 218.315 175.076 221.511 173.425C225.764 172.529 230.048 171.538 234.253 170.397C235.366 170.831 236.413 172.385 235.529 173.525C235.031 174.043 235.67 174.89 236.297 174.522C238.397 173.285 240.021 171.355 241.398 169.275C242.046 168.621 243.197 168.761 244.068 168.49C244.184 168.699 244.253 168.932 244.252 169.172C247.946 169.78 245.311 173.816 243.454 175.074C244.439 175.715 244.476 176.972 244.39 178.021C244.599 178.395 244.668 178.858 244.487 179.277C243.792 180.879 242.29 182.227 241.147 183.525C239.886 184.957 238.762 186.398 237.227 187.56C231.377 192.02 224.318 194.514 217.076 195.49C214.505 195.885 210.806 196.489 209.214 198.664C209.605 201.246 210.322 203.722 210.973 206.239C211.883 209.58 211.821 213.078 211.833 216.485C211.96 216.383 212.204 216.404 212.241 216.599C212.452 218.011 212.61 219.455 213.468 220.641C214.22 222.848 214.72 225.201 215.002 227.519C216.128 238.508 216.397 249.821 213.857 260.639C212.877 264.653 211.283 268.467 209.111 271.979C208.464 273.026 207.423 273.333 206.488 273.128C203.359 274.754 199.417 275.275 196.045 274.862C184.547 271.606 188.553 279.446 172.433 277.045C144.608 273.499 116.487 280.468 88.7208 276.377C88.0369 281.661 79.0847 280.145 75.975 277.911C66.651 270.977 62.0213 249.023 57.3419 237.885C54.1253 229.107 48.7393 213.56 41.6857 207.669C39.5707 206.014 37.0141 205.143 34.4561 204.44C24.9094 201.979 15.3258 199.651 5.76091 197.259C4.1388 196.859 4.43035 194.092 6.16485 194.269C8.46682 194.505 10.7766 194.718 13.0864 194.94Z" fill="white"/>
<path fill-rule="evenodd" clip-rule="evenodd" d="M225.61 193.294C226.257 193.214 226.891 192.983 227.52 192.801C228.481 192.52 229.424 192.193 230.351 191.819C232.265 191.052 234.122 190.145 235.863 189.035C238.675 187.241 241.16 184.941 243.034 182.173L243.162 181.98C244.232 180.349 246.205 176.73 243.993 175.492C245.419 174.3 246.767 172.159 246.691 170.506C246.583 168.169 243.718 168.2 242.237 169.191C241.267 169.84 240.541 170.749 239.812 171.643C239.005 172.637 238.143 173.583 237.247 174.494C237.009 174.735 236.769 174.971 236.525 175.204L236.279 175.435C236.317 175.344 236.351 175.251 236.381 175.156C236.875 173.615 236.286 171.609 234.746 170.904C233.803 170.471 232.824 170.735 231.911 171.102L231.771 171.159C230.541 171.668 229.297 172.119 228.017 172.48C222.798 173.953 217.352 174.198 212.005 174.934C209.945 175.219 207.847 175.578 205.798 176.107C205.016 172.786 203.1 169.604 201.021 166.985C191.066 154.458 174.648 150.318 159.629 147.638C158.26 147.395 157.126 149.208 156.329 148.779C154.819 147.968 153.49 146.818 152.324 145.569C149.837 142.904 148.073 139.769 146 136.8C144.976 135.333 142.618 136.646 143.569 138.22L144.035 138.99C145.952 142.142 148.076 145.39 150.826 147.835C152.288 149.132 153.91 150.157 155.765 150.798C157.17 151.282 159.141 151.69 160.679 151.22L160.864 150.951C160.803 151.041 160.741 151.131 160.679 151.22C156.665 157.039 151.629 161.963 146.322 166.611C140.965 171.299 135.186 175.498 129.372 179.603L128.888 179.945C119.417 173.034 111.416 164.02 105.803 153.721C106.979 153.579 108.143 152.825 109.149 152.262C110.36 151.582 111.498 150.77 112.386 149.688C114.319 147.332 114.067 144.294 114.416 141.435C114.437 141.257 114.203 141.213 114.095 141.302C113.047 142.172 112.679 143.599 112.242 144.831C111.76 146.186 111.215 147.302 110.11 148.255C109.081 149.143 107.827 149.796 106.608 150.377C105.979 150.675 102.858 151.442 102.503 152.076C97.1111 150.81 91.8589 152.998 87.8639 156.688C84.004 160.254 81.1709 164.888 78.6695 169.464C76.0012 174.346 73.8146 179.436 71.9301 184.666C70.0202 189.976 68.5561 195.401 67.7512 200.989C67.0718 205.7 66.6552 210.486 66.3856 215.25L66.3526 215.845C62.3639 209.583 58.2759 203.386 54.1034 197.244C55.052 194.71 54.002 192.123 52.2252 190.166C50.2562 188 47.5329 186.994 44.928 185.823L44.5856 185.668C43.3301 185.095 42.0787 184.464 40.9942 183.606C39.9506 182.777 39.1837 181.636 38.0851 180.873C36.4879 179.761 33.5893 179.998 33.5154 182.426C33.4773 183.76 34.0499 185.222 34.5738 186.421C35.1675 187.776 35.9682 189.004 36.9189 190.132C36.9628 190.185 37.0108 190.226 37.0596 190.259L37.0963 190.282C35.7822 190.5 34.4576 190.675 33.1076 190.737C30.3843 190.861 27.6315 190.66 24.9653 190.086C22.2358 189.498 19.5907 188.543 17.1357 187.211C15.0379 186.074 13.0942 184.603 10.7111 184.257C10.4914 184.223 10.2696 184.202 10.0414 184.189C9.66114 184.168 9.28085 184.616 9.43085 184.992C9.51325 185.199 9.59986 185.404 9.69494 185.611C10.5189 187.427 11.7826 189.188 13.359 190.525L13.4808 190.627C12.9252 190.434 12.378 190.219 11.8392 189.976C8.67233 188.549 5.79911 186.393 2.40404 185.527C2.24347 185.485 2.08079 185.446 1.91811 185.411C0.868112 185.184 0.314582 186.326 0.931483 187.108C1.03078 187.235 1.13009 187.359 1.23361 187.484C2.7484 189.365 4.41951 191.111 6.26176 192.679C6.89345 193.216 7.54417 193.736 8.20755 194.232C8.48711 194.443 8.76822 194.649 9.05224 194.852L9.19212 194.951C8.86043 194.716 8.53296 194.478 8.2076 194.232C6.12873 193.602 4.07943 192.856 2.0745 192.03C1.27802 191.702 0.659012 192.51 0.574505 193.173C0.291406 195.397 2.75902 197.005 4.36466 198.075C5.97452 199.148 7.74705 199.964 9.56184 200.619C13.0511 201.881 16.716 202.454 20.3751 202.967L22.1523 203.215C29.1868 204.199 36.5341 205.375 41.5815 210.851C44.4104 213.92 46.3245 217.732 48.0759 221.484C49.8252 225.231 51.3611 229.078 52.8189 232.945C54.3294 236.948 55.6456 241.025 57.0442 245.068C58.3287 248.781 59.863 252.446 61.3826 256.074L61.6224 256.646C64.8484 264.356 68.702 271.618 74.0724 278.056C74.9576 279.119 76.3879 277.61 75.5703 276.557C69.9527 269.312 66.0442 260.763 62.8182 252.235C61.3499 248.355 60.1203 244.381 58.709 240.48L57.8692 238.162C56.7479 235.073 55.6169 231.987 54.4372 228.921C52.9435 225.043 51.302 221.211 49.4238 217.504L49.2246 217.114C47.3857 213.537 45.2011 210.013 42.1942 207.306C36.7821 202.433 29.5805 201.264 22.6174 200.338L20.4269 200.049C17.483 199.658 14.5308 199.226 11.6682 198.438C10.0161 197.986 8.40197 197.407 6.88507 196.608C6.28084 196.291 5.69141 195.942 5.12099 195.562C6.74775 196.04 8.39774 196.43 10.0773 196.737C10.8991 196.887 11.7125 196.999 12.5238 197.077C14.6132 197.284 16.6857 197.276 18.8258 197.164C19.0075 197.153 19.0667 196.868 18.8723 196.832C17.3819 196.567 15.8898 196.235 14.4038 195.876L13.9582 195.767C13.9498 195.52 13.8526 195.257 13.6498 195.008C12.9104 194.108 11.5054 193.647 10.5315 193.011C9.51107 192.345 8.52235 191.627 7.58009 190.857C6.71812 190.153 5.88995 189.409 5.09347 188.632L4.85468 188.397C4.93394 188.475 5.01354 188.554 5.09347 188.632C7.24417 189.625 9.2829 190.899 11.5287 191.686C13.3139 192.313 15.1857 192.736 17.0744 192.886L17.1917 192.895L17.3089 192.903C19.2801 193.045 21.2639 192.988 23.2055 193.414C23.4231 193.463 23.4907 193.171 23.2963 193.089C21.5998 192.383 19.8357 192.11 18.0526 191.781C18.0146 191.641 17.9174 191.516 17.7484 191.436L17.2922 191.218C15.9336 190.565 14.6673 189.907 13.5379 188.847C12.5407 187.911 11.7104 186.816 11.0872 185.603C13.5822 186.15 15.7731 188.042 18.0421 189.105C20.5139 190.265 23.1294 191.098 25.8168 191.572L26.1229 191.624C31.1449 192.462 37.1839 192.355 41.6829 189.743C41.8266 189.659 41.7231 189.467 41.5752 189.49C40.2991 189.699 39.0358 189.946 37.7724 190.166C38.0196 189.94 38.1294 189.534 37.8442 189.209C36.7095 187.908 35.8122 186.421 35.2385 184.794L35.1288 184.476C34.8646 183.721 34.4183 182.549 34.8738 181.868C35.309 181.219 36.3337 181.308 36.9463 181.583C38.2203 182.158 39.0675 183.593 40.1407 184.459C41.3111 185.406 42.6421 186.108 44.0048 186.736L44.2925 186.867C46.6495 187.927 49.1678 188.82 51.021 190.692C52.0182 191.698 52.8759 192.956 53.1632 194.365C53.2942 195.012 53.2942 195.678 53.121 196.318C52.9837 196.819 52.6963 197.128 52.8611 197.637C53.0766 198.294 53.8393 199.081 54.2323 199.666C54.6886 200.343 55.1428 201.021 55.597 201.699C56.5034 203.056 57.4055 204.417 58.3076 205.776C60.1118 208.498 61.897 211.233 63.6675 213.977C64.2435 214.87 64.8177 215.764 65.39 216.659L66.247 218.003L66.6999 218.711L67.4723 219.926C67.4449 220.038 67.447 220.157 67.4829 220.26C67.6146 220.635 67.8612 220.892 68.1677 221.078L68.2224 221.11C72.7308 228.239 77.1675 235.414 81.6484 242.56C81.8872 244.741 82.1111 246.924 82.3055 249.107C82.747 254.049 83.0491 259.003 83.1463 263.963C83.1928 266.364 83.0006 268.78 82.897 271.179C82.8463 272.323 82.777 273.467 82.6864 274.61L82.6197 275.42C82.5305 276.534 82.4798 277.639 82.8801 278.701C83.2351 279.633 84.3168 279.842 84.9569 279.132C93.3083 278.796 101.666 278.54 110.024 278.381C124.984 278.094 139.95 278.138 154.912 278.428C162.427 278.574 169.943 278.779 177.456 279.032C181.158 279.155 184.861 279.328 188.565 279.379C190.56 279.406 193.7 278.679 193.861 276.434L193.865 276.365C194.115 276.433 194.372 276.488 194.636 276.528C194.754 276.546 194.867 276.541 194.971 276.516L195.023 276.503C197.997 277.41 201.76 276.115 204.586 275.361L204.819 275.3C207.517 274.596 209.685 273.59 211.453 271.354C214.548 267.438 215.605 262.179 216.154 257.333C216.669 252.772 216.699 248.127 216.072 243.574C216.441 239.865 216.08 236.038 215.66 232.349C215.453 230.525 215.21 228.703 214.918 226.89C214.755 225.878 214.542 224.876 214.324 223.876C214.238 223.477 214.165 223.047 214.055 222.631L214.005 222.454C214.343 222.498 214.713 222.424 215.07 222.228C215.92 221.761 216.167 220.816 216.182 219.912C216.228 217.185 215.903 214.38 215.615 211.671C215.326 208.966 214.929 206.25 214.409 203.578L214.274 202.889C213.881 200.891 213.43 198.828 212.636 196.95C215.617 196.443 218.59 195.904 221.482 194.987C222.893 194.537 224.284 193.977 225.61 193.294ZM70.0202 221.668C70.0667 221.678 70.111 221.691 70.1554 221.704C71.347 222.038 72.5512 222.321 73.7512 222.625C75.8258 223.147 77.854 223.73 79.7829 224.637C80.1869 229.739 80.786 234.825 81.3554 239.913L81.4688 240.93C80.5942 239.307 79.6984 237.696 78.7625 236.105C75.9125 231.255 72.997 226.442 70.0202 221.668ZM213.279 222.173C213.272 222.779 213.399 223.409 213.467 223.992C213.577 224.94 213.665 225.891 213.777 226.837C214.005 228.739 214.2 230.644 214.341 232.554C214.432 233.774 214.491 234.998 214.544 236.221C213.346 231.743 211.76 227.362 210.251 222.974C210.503 222.947 210.761 222.886 211.027 222.815L211.475 222.694C211.738 222.626 212.595 222.416 213.279 222.173ZM66.2469 218.003L66.2385 218.204C66.2068 218.916 66.6335 219.318 67.1511 219.421C66.8511 218.948 66.549 218.474 66.2469 218.003ZM203.317 184.246C202.056 184.358 200.82 184.627 199.641 185.092L199.528 185.136C198.656 185.473 197.381 185.896 197.096 186.827C197.015 187.091 197.231 187.308 197.478 187.33C198.424 187.406 199.54 186.391 200.417 186.049C201.393 185.668 202.415 185.385 203.451 185.235C205.777 184.895 208.202 185.153 210.391 186C210.52 186.051 210.6 185.846 210.484 185.785C208.278 184.584 205.825 184.024 203.317 184.246ZM230.045 190.291C230.191 190.162 230.336 190.026 230.48 189.891C231.613 188.819 232.616 187.568 233.359 186.194L233.554 185.822C234.159 184.65 234.902 182.981 233.48 182.137C232.631 181.632 231.608 181.758 230.662 182.065C230.601 182.084 230.539 182.105 230.478 182.126C230.055 182.274 229.648 182.452 229.284 182.621C227.706 183.346 226.314 184.4 224.856 185.33C223.277 186.339 221.717 186.983 219.894 187.361L219.722 187.395C218.011 187.733 216.156 187.951 214.963 189.359C214.663 189.714 214.937 190.379 215.455 190.204C218.755 189.09 222.247 188.845 225.277 187.017C226.532 186.26 227.719 185.392 229.001 184.675C229.682 184.294 230.384 183.961 231.132 183.733L231.541 183.613C231.781 183.543 232.067 183.474 232.259 183.542C232.625 183.669 232.508 183.865 232.395 184.207L232.384 184.242C231.494 186.994 228.959 189.297 226.61 190.821C226.071 191.172 225.52 191.493 224.958 191.791C221.154 193.82 216.897 194.764 212.717 195.884C212.717 195.884 210.3 196.559 209.499 196.813C208.608 196.739 207.591 197.054 206.919 197.43C206.267 197.796 205.741 198.286 205.343 198.863C205.343 198.863 204.961 199.182 204.891 199.677C204.691 200.135 204.555 200.63 204.488 201.146C204.45 201.448 204.526 201.68 204.669 201.845C204.237 208.48 206.029 215.077 208.048 221.383L208.249 222.005L208.377 222.399C210.555 229.084 213.055 235.721 214.17 242.691C214.916 247.347 214.893 252.165 214.346 256.843L214.307 257.165C213.768 261.587 212.73 266.548 209.919 270.107C208.486 271.923 206.787 272.731 204.615 273.316L204.496 273.347C202.531 273.865 200.503 274.598 198.477 274.82C196.597 275.025 195.021 274.326 193.329 273.67L193.327 273.668C189.762 270.513 188.144 265.918 186.948 261.281C183.849 249.281 184.234 236.824 185.991 224.648C186.908 218.286 188.155 211.979 189.397 205.675C190.018 202.524 190.688 199.379 191.243 196.217L191.573 194.356C191.756 193.322 191.932 192.288 192.082 191.248C192.285 189.851 192.346 188.477 192.416 187.072C194.123 184.242 196.601 181.911 199.472 180.239C201.528 179.041 203.704 178.21 205.95 177.608C212.37 175.877 219.37 175.999 225.83 174.668C228 174.221 230.061 173.558 232.12 172.763L232.401 172.653C233.345 172.286 234.308 172.081 234.777 173.195C235.111 173.987 234.912 174.811 234.412 175.477C233.184 177.109 230.717 177.865 228.86 178.453C227.742 178.808 226.601 179.089 225.448 179.298C224.294 179.508 223.136 179.56 222.029 179.968C221.603 180.125 221.518 180.803 222.029 180.923C223.432 181.251 224.843 180.97 226.238 180.697C227.77 180.395 229.278 179.966 230.744 179.423C231.015 179.323 231.294 179.218 231.58 179.106L231.794 179.021C231.572 179.182 231.351 179.341 231.127 179.499C231.067 179.541 231.103 179.653 231.181 179.626C234.629 178.339 237.766 176.018 240.196 173.271L240.317 173.133C241.172 172.153 243.122 169.185 244.766 170.012C246.309 170.787 243.678 173.774 242.679 174.996L242.562 175.139C241.426 175.169 240.325 175.876 239.404 176.447C237.805 177.439 236.134 178.292 234.431 179.091C231.046 180.683 227.453 181.805 224.104 183.477C224.06 183.5 224.093 183.557 224.136 183.551C226.267 183.21 228.376 182.667 230.436 181.993L230.528 181.964L230.619 181.934C231.906 181.511 233.176 181.034 234.424 180.524C235.812 179.958 237.169 179.322 238.485 178.601C239.677 177.95 240.999 176.777 242.381 176.604C242.529 176.585 242.66 176.582 242.774 176.593C244.36 176.726 243.048 179.355 242.605 180.142C241.88 181.433 241.005 182.625 240.002 183.713C237.967 185.924 235.502 187.676 232.834 189.039C231.923 189.504 230.991 189.914 230.045 190.291Z" fill="black"/>
<path fill-rule="evenodd" clip-rule="evenodd" d="M96.4292 89.5609C96.9312 83.0632 96.1533 76.2526 98.6577 70.0765C103.024 59.8292 115.268 56.4125 124.761 52.5112C128.564 51.3871 141.36 51.23 145.813 49.7422C155.89 46.375 158.298 42.363 166.305 48.7743C167.657 49.8695 168.503 51.0599 169.12 52.6862L169.094 52.6932C169.27 53.3712 169.082 54.0477 168.685 54.5645C172.157 58.1147 173.609 63.4374 171.828 68.1634C166.015 80.4616 166.288 87.1114 168.161 100.333C170.607 112.675 165.018 117.184 155.761 123.9C156.138 124.631 156.216 125.603 155.724 126.248C145.02 141.296 124.837 148.48 107.544 140.843C100.525 137.717 97.3911 130.239 95.6028 123.491C93.5194 115.936 92.8793 107.974 94.5754 100.277C95.2594 96.7179 96.1506 93.1841 96.4292 89.5609Z" fill="white"/>
<path fill-rule="evenodd" clip-rule="evenodd" d="M158.174 17.5712C156.875 17.376 155.893 18.1824 155.427 19.3191L155.402 19.3803C155.252 19.7671 155.085 20.1433 154.906 20.5132C151.654 18.9175 147.015 19.3275 144.957 22.559C143.489 24.867 144.384 27.6061 144.938 30.0535L145.301 31.6661C144.599 32.1133 144.069 32.9141 144.094 33.7433L144.097 33.8071L144.245 36.0559C143.776 35.5803 143.347 35.0625 142.965 34.5109C142.701 34.0269 142.415 33.5514 142.109 33.0906C140.307 30.379 136.261 32.7356 137.748 35.6395C138.034 36.1996 138.355 36.7301 138.699 37.2415C139.088 37.9961 139.407 38.7717 139.652 39.5685C138.948 39.875 138.408 40.5555 138.351 41.5827C138.218 43.9815 139.477 45.983 141.479 47.2405C142.069 47.6104 142.677 47.6822 143.229 47.5449C143.326 47.6759 143.423 47.8069 143.516 47.9401C142.718 48.5889 141.997 49.3287 141.378 50.1487C139.515 49.8697 137.641 49.7387 135.767 49.7345C133.477 48.6122 130.734 48.6354 128.273 49.056C126.689 49.3266 125.168 49.8528 123.608 50.2311C121.965 50.6285 120.296 50.6433 118.633 50.9138C116.537 51.2541 114.699 52.222 113.544 53.767C112.274 53.8051 110.939 54.325 109.832 55.0309C107.254 56.6752 104.691 58.3428 102.12 59.9976C101.134 60.633 100.765 61.6472 100.946 62.7785L100.958 62.8509L101.045 63.3201L100.842 63.6088C100.055 64.7204 99.1986 65.8847 98.6893 67.1117C97.7471 68.4707 96.8957 69.8952 96.1415 71.364C95.1253 73.3381 94.2865 75.4304 93.7182 77.5777C93.5767 78.1209 93.4351 78.6683 93.3422 79.222C93.2091 80.004 93.414 80.6106 93.526 81.3609C93.6654 82.312 93.7161 83.2757 93.864 84.2289C93.9633 84.8609 94.4999 85.1716 95.0619 85.1885C94.8506 86.7968 94.6985 88.4158 94.5527 90.022C94.3478 92.3173 94.2084 94.6189 94.0879 96.9205C93.4668 97.823 92.1971 98.5374 91.2802 98.7846C90.0105 99.1249 88.6795 98.755 87.4795 98.3218C86.7253 98.0491 86.1062 98.9981 86.4738 99.6321C87.6295 101.623 90.1013 101.615 91.9731 100.733C92.7654 100.361 93.4605 99.8224 93.976 99.1207C93.9443 99.7885 93.9105 100.456 93.8767 101.126L93.8452 101.733C93.4646 108.82 92.6429 116.151 93.9738 123.168C96.2788 135.323 106.334 144.578 118.616 145.296C125.061 145.674 130.429 143.769 133.098 142.707C135.767 141.644 134.729 139.478 132.877 140.097C129.685 141.164 123.821 142.753 118.574 142.067C106.206 140.45 95.7189 134.266 96.7964 107.632C96.9492 103.855 97.4196 100.076 97.521 96.2991C97.6182 92.6069 97.5823 88.9125 97.745 85.2223L97.7992 83.9632C97.8627 82.4921 97.9307 81.0141 98.0407 79.5412C98.1738 78.9705 98.2837 78.3914 98.4464 77.8314C98.8879 76.3075 99.4647 74.826 100.181 73.412C100.339 73.5325 100.517 73.6192 100.709 73.653C102.169 73.915 103.538 73.8411 104.905 73.2324C105.543 72.9513 106.105 72.5772 106.629 72.1143C106.878 71.8966 107.045 71.6853 107.176 71.4655C107.837 71.4761 108.498 71.2774 108.913 70.8019C109.385 70.2598 109.463 69.7 109.278 69.1818L109.259 69.1301L109.306 69.1132C109.863 70.5567 110.975 71.8269 112.194 72.685C114.12 74.0461 116.531 74.4392 118.842 74.4751C121.394 74.5132 124.086 74.1201 126.604 73.7185C127.27 73.6128 127.931 73.4923 128.579 73.3296C128.605 73.355 128.63 73.3846 128.658 73.4099C130.819 75.479 133.859 76.0116 136.601 74.8302C138.186 74.1475 139.515 73.0485 140.689 71.7889C140.706 72.4483 140.74 73.1077 140.797 73.7608L140.821 74.0201C140.938 75.2364 141.163 76.5266 142.082 77.4044C143.567 78.8268 145.722 78.2562 147.435 77.3305C147.433 77.3748 147.433 77.4213 147.433 77.4678C146.97 79.0403 146.506 80.6148 146.041 82.1894L145.941 82.5248C145.603 83.6428 145.232 84.7623 145.13 85.9324C144.936 88.1685 146.423 90.3771 148.908 89.6268C150.211 89.2347 151.255 88.1385 152.257 87.2605L152.888 86.7144C151.255 92.0552 150.122 97.5863 150.017 103.16C150.01 103.462 150.27 103.69 150.558 103.701C151.229 103.728 151.952 103.595 152.628 103.327C152.666 103.324 152.704 103.322 152.744 103.316C153.898 103.149 154.969 102.733 155.913 102.118C155.696 102.809 155.598 103.551 155.656 104.326C155.67 104.514 155.964 104.58 156.006 104.373C156.551 101.691 159.689 99.6638 162.393 100.177C165.296 100.729 167.434 103.227 167.958 106.07C168.52 109.124 167.444 112.656 165.452 115.012C164.535 116.098 163.329 117.005 161.896 117.233C161.241 117.337 160.561 117.301 159.925 117.115C159.655 117.035 159.401 116.923 159.144 116.817C158.768 116.665 158.328 116.642 157.973 116.481C157.168 116.12 156.359 116.861 156.767 117.688C157.122 118.409 157.441 118.895 158.03 119.267C157.553 119.85 157.12 120.661 156.959 120.879C156.139 121.987 155.307 123.033 154.373 124.045C153.422 125.072 152.385 126.011 151.289 126.879L150.828 127.244C149.772 128.082 148.852 128.858 148.107 130.06C147.52 131.009 148.28 132.296 149.381 132.282C152.825 132.233 155.328 129.206 157.111 126.562C157.365 126.184 157.603 125.785 157.825 125.375C157.906 125.504 157.994 125.624 158.094 125.734L157.897 126.262C157.314 127.818 159.826 128.834 160.555 127.382C161.085 126.33 161.7 125.328 162.384 124.381C162.788 124.324 163.183 124.079 163.403 123.762C163.958 122.957 164.582 122.143 165.108 121.285C165.399 121.008 165.699 120.742 166.006 120.482C166.094 120.56 166.185 120.638 166.272 120.721C166.656 121.598 167.132 122.399 167.721 123.153L167.847 123.314C168.977 124.738 170.447 126.195 172.268 126.543C172.823 126.649 173.358 125.958 172.865 125.516C171.591 124.371 170.085 123.591 168.91 122.312C168.332 121.682 167.8 120.988 167.343 120.261L167.239 120.093C167.163 119.968 167.085 119.844 167.005 119.717C167.535 119.355 168.065 118.992 168.596 118.628C170.055 119.876 171.956 120.447 173.571 121.48L173.732 121.585C175.191 122.562 176.729 120.402 175.559 119.216C174.269 117.914 173.192 116.361 172.049 114.914C172.586 113.923 172.841 112.752 172.936 111.569C172.974 111.234 173.003 110.898 173.032 110.563C173.852 110.576 174.676 110.295 175.373 109.811L175.637 109.623C176.484 109.893 177.374 110.024 178.225 110.001C180.228 109.942 181.048 107.653 179.795 106.205C178.517 104.726 176.279 104.402 174.507 105.121C174.45 105.091 174.391 105.06 174.334 105.028C174.418 104.639 174.399 104.286 174.303 103.976L174.331 103.788C174.721 103.189 174.977 102.506 175.074 101.784C175.151 101.213 175.136 100.646 175.003 100.081C174.959 99.8936 174.868 99.6989 174.798 99.503C174.942 99.1391 175.027 98.7629 175.053 98.3845C175.093 98.3366 175.134 98.2873 175.172 98.2341C176.051 96.9987 175.873 95.5102 175.036 94.5105C175.033 94.4469 175.027 94.3833 175.018 94.3201C175.067 94.2097 175.112 94.0984 175.153 93.9857C175.971 93.1604 176.571 92.1673 176.459 90.9366C176.394 90.2125 176.096 89.5607 175.646 89.0735C175.726 88.8372 175.733 88.5635 175.637 88.335C176.355 86.4232 176.264 84.1205 175.747 81.9823C175.861 81.6568 175.92 81.3038 175.908 80.9298C175.848 79.3425 174.475 77.8842 172.848 77.9032C172.653 77.9049 172.469 77.9305 172.293 77.9679L172.291 77.9301C172.228 77.4537 172.097 77.0134 171.906 76.6184C172 76.5844 172.087 76.5356 172.164 76.4707C173.206 77.027 174.309 77.4522 175.465 77.742C176.316 77.955 177.187 76.9881 176.658 76.1896C176.413 75.8191 176.142 75.4864 175.851 75.1825C176.265 75.1848 176.686 75.2129 177.112 75.2677C177.877 75.367 178.73 74.845 179.227 74.1391C179.844 74.7393 180.463 75.3374 181.082 75.9355C182.649 77.4552 185.018 76.3371 185.265 74.3335C185.732 74.2088 186.167 73.9975 186.549 73.6952C189.021 74.7689 191.681 75.3586 194.4 75.4706C196.352 75.5509 197.493 73.2768 196.58 71.6705C195.968 70.5926 195.207 69.6246 194.33 68.7835C195.691 69.1998 197.096 69.4999 198.53 69.6923C199.306 69.7958 200.402 69.1533 200.713 68.4411C201.9 65.702 201.798 62.8466 200.432 60.1815C200.379 60.0758 200.32 59.9744 200.263 59.8729C200.121 59.52 199.967 59.1712 199.8 58.8289C201.482 57.0747 201.627 54.4666 200.721 52.2833C201.084 51.6937 201.224 50.9835 200.977 50.341C200.273 48.4917 199.259 46.784 197.979 45.3172C198.101 45.0805 198.209 44.829 198.3 44.5585C199.02 42.371 198.186 39.7312 196.502 38.2074C195.444 37.2479 194.227 36.673 192.927 36.3053C192.38 35.3373 191.677 34.4644 190.857 33.7289C190.825 33.6592 190.794 33.5894 190.758 33.5197C189.482 31.1145 187.158 29.8253 184.667 29.5273C184.57 28.5867 183.936 27.6885 183.015 27.3968C182.761 26.5831 182.383 25.8054 181.863 25.0995C181.046 23.9878 179.687 23.4636 178.407 24.1928C177.706 24.5922 177.034 25.0509 176.404 25.5581C176.121 25.4254 175.801 25.3396 175.439 25.3122L175.348 25.3066L173.265 25.2009C172.392 24.8141 171.522 24.4084 170.649 24.0131C170.125 23.5799 169.54 23.2185 168.902 22.95C168.179 22.6478 167.44 22.4766 166.698 22.4195C166.096 22.223 165.49 22.0497 164.873 21.9144C163.424 21.5974 161.907 21.4199 160.403 21.4347C160.372 21.0452 160.357 20.651 160.36 20.2522L160.363 20.0524C160.396 18.7738 159.376 17.7529 158.174 17.5712ZM159.634 119.875C159.841 119.92 160.05 119.956 160.259 119.981C160.196 120.137 160.132 120.294 160.071 120.45C159.902 120.545 159.731 120.636 159.56 120.721C159.61 120.433 159.64 120.144 159.634 119.875ZM170.488 116.649L170.628 116.907C170.651 116.95 170.674 116.991 170.696 117.033C170.398 117.009 170.098 117.016 169.802 117.05L169.803 117.018C169.841 117.005 169.879 116.993 169.915 116.976C170.119 116.877 170.309 116.768 170.488 116.649ZM164.622 104.844C162.753 104.953 161.169 105.24 159.469 106.058L159.323 106.129C157.821 106.875 155.337 108.253 155.546 110.229C155.605 110.791 156.013 111.383 156.655 111.339C158.415 111.218 159.42 109.443 160.612 108.336C161.814 107.22 163.291 106.072 164.746 105.305C164.952 105.197 164.871 104.855 164.647 104.844L164.622 104.844ZM173.098 78.8078C173.546 78.8226 173.396 79.258 173.165 78.8945C173.146 78.8649 173.123 78.8353 173.098 78.8078ZM148.921 49.7425C153.163 49.8541 157.432 52.3596 160.61 54.8922C163.374 57.0956 165.761 59.7163 167.875 62.541C168.419 63.9478 168.886 65.3839 169.28 66.8306C169.54 67.7859 169.703 68.7517 169.92 69.7155L169.988 70.011C170.159 70.3305 170.286 70.6744 170.378 71.0297C169.993 71.416 169.494 71.6927 168.943 71.8239C168.766 71.8662 168.619 71.9577 168.503 72.079C168.06 71.3397 167.673 70.5594 167.447 69.7322L167.439 69.6939C166.588 68.2992 165.663 66.9479 164.672 65.6428C161.939 62.0393 158.928 58.7549 155.309 56.0221C152.565 53.9509 149.497 52.3277 146.235 51.2731C147.033 50.6287 147.94 50.1189 148.921 49.7425Z" fill="black"/>
<path fill-rule="evenodd" clip-rule="evenodd" d="M108.419 113.503C106.703 111.098 109.134 108.836 110.729 107.866C111.147 107.566 110.816 106.572 109.922 106.725C101.81 108.12 106.014 122.099 116.371 114.428C117.604 113.432 116.11 111.241 114.781 112.093C114.714 112.145 114.643 112.199 114.57 112.256C113.077 113.411 110.345 115.524 108.419 113.503ZM124.747 89.2957L125.143 89.3651C126.427 89.5883 127.697 90.0748 128.857 90.6613C131.031 91.7601 133.201 93.5627 134.321 95.7572C134.443 95.9954 134.183 96.3211 133.928 96.1503C131.988 94.8484 130.137 93.6627 127.866 93.0132C126.83 92.7171 125.797 92.5392 124.722 92.4775C124.389 92.4584 124.062 92.4665 123.743 92.4744C122.811 92.4975 121.936 92.5192 121.126 91.8631C120.507 91.3622 120.666 90.3895 121.126 89.8662C121.994 88.8794 123.52 89.0834 124.747 89.2957ZM103.585 88.4442L103.889 88.3821C104.246 88.3106 104.605 88.3408 104.92 88.4692C105.229 88.5951 105.499 88.8143 105.687 89.1306C105.938 89.5518 105.971 89.9053 105.855 90.3722C105.765 90.733 105.569 91.0044 105.311 91.2004C105.04 91.4069 104.696 91.5274 104.339 91.5693C102.693 91.7628 101.071 92.1252 99.4947 92.6396C98.7559 92.8807 98.0589 93.2073 97.3679 93.5462L96.7724 93.8398C96.2231 94.1085 95.6557 94.3675 94.9386 94.5555C94.8823 94.5703 94.8265 94.5842 94.7713 94.5974C94.596 94.5423 94.5491 94.4769 94.5115 94.4246L94.506 94.4171L94.4966 94.4043L94.4795 94.3829C94.4283 94.3187 94.3653 94.2203 94.4249 93.7613C95.9894 90.515 100.282 89.1351 103.585 88.4442ZM120.772 104.412C121.414 104.787 122.1 104.605 122.646 104.17C122.985 103.901 123.241 103.557 123.498 103.212L123.498 103.212C123.8 102.807 124.102 102.402 124.538 102.115C125.221 101.665 126.136 101.642 126.921 101.772C128.099 101.967 129.117 102.523 130.138 103.081C130.715 103.397 131.294 103.713 131.904 103.965C132.14 104.063 132.279 103.76 132.199 103.581C131.178 101.285 129.046 99.2368 126.509 98.8266C123.857 98.3976 120.987 100.145 120.061 102.664C119.828 103.3 120.216 104.087 120.772 104.412ZM95.5712 101.736C95.5165 101.756 95.4613 101.694 95.4774 101.642C96.148 99.4595 98.6741 98.5408 100.794 98.7227C102.106 98.8354 103.312 99.3154 104.307 100.192C105.255 101.028 105.994 102.609 105.135 103.766C104.253 104.955 102.44 104.57 102.337 103.008C102.27 101.994 100.527 101.369 99.644 101.213C98.2727 100.971 96.854 101.26 95.5712 101.736ZM120.126 122.669C119.505 122.915 114.253 123.157 111.152 123.015C109.037 122.92 103.551 121.637 103.551 121.087C103.551 120.537 103.785 120.04 103.986 120.061C104.802 120.149 111.301 120.22 115.878 120.271H115.878C117.901 120.293 119.547 120.311 120.162 120.325C120.464 120.332 120.781 120.325 121.102 120.317C121.325 121.005 120.748 122.423 120.126 122.669ZM109.612 118.664H109.612H109.612C107.17 118.643 104.206 118.618 102.093 118.742C101.338 118.787 100.967 119.864 100.914 120.376C100.413 125.129 104.207 128.921 108.397 130.39C112.284 131.753 117.418 132.011 120.885 129.464C122.391 128.359 123.532 126.826 124.276 125.121C124.677 124.201 124.971 123.248 125.133 122.259C125.149 122.166 125.166 122.068 125.184 121.967L125.184 121.967L125.184 121.967C125.309 121.257 125.46 120.396 125.218 119.746C124.867 118.811 123.937 118.801 123.083 118.791C123.012 118.791 122.942 118.79 122.873 118.789C122.529 118.782 122.185 118.774 121.842 118.767L121.841 118.767L121.841 118.767C120.935 118.747 120.028 118.727 119.123 118.717C117.174 118.695 115.226 118.689 113.278 118.683C112.601 118.681 111.924 118.679 111.247 118.677C110.744 118.674 110.193 118.669 109.612 118.664ZM131.516 115.209C131.834 116.428 132.502 117.846 133.635 118.51C134.241 118.866 135.14 118.997 135.49 118.266C136.141 116.903 135.227 114.801 134.672 113.574C134.207 112.545 133.62 111.564 132.909 110.685C132.519 110.203 132.087 109.76 131.652 109.32C131.567 109.233 131.475 109.153 131.384 109.074C131.257 108.964 131.132 108.854 131.028 108.731C131.347 109.446 131.359 110.378 131.363 111.085C131.364 111.468 131.35 111.849 131.336 112.231C131.298 113.23 131.26 114.225 131.516 115.209ZM129.431 108.347C129.483 107.931 129.861 107.654 130.265 107.868C130.5 107.992 130.683 108.168 130.828 108.374C130.825 108.365 130.821 108.356 130.818 108.347C130.812 108.329 130.805 108.311 130.801 108.291C130.793 108.258 130.811 108.212 130.849 108.206C131.785 108.065 132.983 109.362 133.643 110.075L133.643 110.075C133.69 110.125 133.733 110.173 133.774 110.217C134.706 111.215 135.538 112.364 136.11 113.606C136.839 115.192 137.626 117.588 136.624 119.231C135.231 121.516 132.311 119.792 131.204 118.214C130.276 116.891 129.797 115.279 129.743 113.673C129.727 113.2 129.746 112.728 129.765 112.256C129.782 111.809 129.8 111.362 129.788 110.915C129.779 110.54 129.689 110.162 129.6 109.786C129.486 109.301 129.371 108.818 129.431 108.347ZM96.0423 116.028C95.3889 116.626 94.2535 116.848 93.4942 116.284C92.4853 115.534 93.355 114.155 93.9113 113.273C93.9674 113.184 94.0203 113.1 94.0678 113.022C94.8334 111.77 95.5875 110.511 96.3364 109.249C96.472 109.02 96.6324 108.781 96.7987 108.533C96.8521 108.89 96.9196 109.239 96.9815 109.559C97.0357 109.84 97.0857 110.098 97.1181 110.319C97.3921 112.188 97.5863 114.615 96.0423 116.028ZM93.3098 110.651C92.5693 111.818 91.7916 113.043 91.4538 114.329C90.798 116.824 92.9627 118.656 95.362 118.12C97.8658 117.561 98.7954 114.648 98.7425 112.373C98.7182 111.325 98.5004 110.264 98.2887 109.232C98.2597 109.09 98.2308 108.949 98.2025 108.809C98.1449 108.523 98.103 108.227 98.0609 107.929C98.0022 107.514 97.9431 107.095 97.84 106.695C97.9575 106.371 98.0266 106.042 98.0143 105.714C97.9949 105.191 97.4707 104.913 97.0159 105.14C96.369 105.464 96.0326 106.064 95.6908 106.673C95.6208 106.798 95.5506 106.923 95.4774 107.047L93.9801 109.571C93.7701 109.925 93.5418 110.285 93.3098 110.651Z" fill="black"/>
</svg>
