<svg width="240" height="324" viewBox="0 0 240 324" fill="none" xmlns="http://www.w3.org/2000/svg">
<path fill-rule="evenodd" clip-rule="evenodd" d="M200.256 272.088C199.919 265.825 199.505 259.567 199.009 253.314C198.022 240.859 196.729 228.394 194.577 216.083C192.454 203.935 189.482 192.123 185.202 180.547C183.216 175.177 181.065 170.596 177.945 165.768C174.995 161.203 171.23 158.111 166.54 155.355C162.314 152.873 157.405 148.565 153.352 145.785C151.66 144.625 148.179 144.702 147.019 142.985C145.499 140.737 146.484 137.296 144.953 135.055C143.202 132.493 140.749 130.503 137.983 129.057C134.964 127.012 131.409 126.087 127.843 126.214C122.586 125.895 117.292 127.569 113.916 131.85C112.232 133.986 111.249 136.451 111.113 139.18C111.077 139.89 111.305 140.45 111.68 140.854C111.458 141.152 111.236 141.449 111.016 141.749C110.326 140.726 108.712 140.182 107.637 140.954C104.119 143.481 100.317 145.489 96.3038 146.962C95.3649 146.517 94.2283 146.723 93.424 147.449C93.0976 147.743 92.7513 147.995 92.3894 148.208C90.9014 148.612 89.3905 148.949 87.8571 149.21C87.3771 149.291 86.9704 149.564 86.6619 149.931C86.205 149.504 85.5769 149.299 84.8755 149.566C76.7765 152.655 69.1282 157.452 63.3147 163.953C56.874 171.154 53.4912 180.112 50.9159 189.29C48.128 199.225 46.3464 209.407 44.85 219.606C43.3337 229.941 41.8402 240.315 40.797 250.71C40.2099 256.559 39.9859 262.461 40.2517 268.336C40.3842 271.273 40.6523 274.199 41.0793 277.108C41.1788 277.788 41.2829 278.572 41.4507 279.354C40.9409 279.255 40.3337 279.686 40.437 280.376C41.1566 285.182 46.9652 286.582 50.9712 287.135C57.5241 288.041 64.111 288.543 70.7269 288.581C77.2282 288.619 83.7285 288.202 90.2163 287.828C96.8679 287.445 103.519 287.06 110.171 286.669C136.82 285.106 163.47 283.56 190.119 281.997C192.554 281.854 195.334 281.661 197.42 280.248C200.278 278.311 200.425 275.233 200.256 272.088V272.088Z" fill="white"/>
<path fill-rule="evenodd" clip-rule="evenodd" d="M70.3425 218.33C70.2499 218.157 70.4646 218.001 70.607 218.126C73.8421 220.966 75.5359 225.527 75.891 229.743C76.2673 234.214 75.7338 238.843 75.5299 243.311C75.303 248.289 75.0992 253.269 74.8222 258.244C74.541 263.292 74.238 268.338 73.9784 273.387L73.3942 284.745V284.745C73.3321 285.955 73.4667 287.444 73.0023 288.573C72.2828 290.325 70.1453 290.053 69.6961 288.59L69.6821 288.542L69.6411 288.573C69.2447 287.254 69.5414 285.688 69.6085 284.324L70.2206 271.915V271.915C70.653 263.144 71.0386 254.373 71.5031 245.603L71.661 242.68C71.8781 238.745 72.0446 234.82 72.1783 230.886L72.2217 229.575C72.3487 225.625 72.2479 221.896 70.3425 218.33ZM148.767 145.517C150.57 145.346 151.93 145.944 153.567 146.573C154.28 146.847 154.955 147.164 155.638 147.492C156.495 147.903 157.045 148.629 157.572 149.397L157.854 149.81C160.05 153.028 161.526 156.74 163.193 160.243C165.142 164.341 167.11 168.43 169.018 172.547L169.959 174.576C170.43 175.59 170.899 176.605 171.361 177.623L172.16 179.395C172.962 181.192 173.681 183.094 172.538 184.947C171.475 186.672 169.59 188.006 168.097 189.338C166.852 190.451 165.606 191.562 164.36 192.674C166.936 195.254 168.664 198.502 169.681 201.986C171.124 201.384 172.887 201.268 174.379 201.008C176.469 200.644 176.725 203.808 174.753 203.77C173.296 203.741 171.588 203.89 170.094 203.583C170.353 204.728 170.542 205.89 170.661 207.055C171.289 213.162 169.917 219.305 168.487 225.213L168.369 225.698C166.815 232.094 165.342 238.506 164.023 244.955C162.702 251.417 161.514 257.906 160.459 264.417C159.385 271.045 158.626 277.709 157.809 284.371C157.686 285.379 157.051 286.244 155.938 286.244C155.01 286.244 153.949 285.377 154.066 284.371C154.908 277.116 156.103 269.899 157.29 262.693C159.335 250.284 161.908 237.983 164.869 225.763L165.386 223.635C166.718 218.115 167.927 212.428 167.259 206.735C166.714 202.099 164.777 197.156 160.947 194.277L160.831 194.19C159.936 193.534 159.592 192.279 160.473 191.415C161.034 190.865 161.595 190.316 162.157 189.767L165.528 186.474L166.207 185.809C166.774 185.256 167.343 184.706 167.93 184.172C168.285 183.85 169.247 183.235 169.317 182.704C169.363 182.358 168.953 181.75 168.787 181.431L168.026 179.895V179.895C167.594 179.019 167.176 178.136 166.754 177.255C165.879 175.43 164.993 173.61 164.137 171.776L158.999 160.762V160.762C157.55 157.655 156.258 154.374 154.363 151.502L153.99 150.942C153.678 150.47 153.402 150.016 153.205 149.44C153.016 148.885 152.778 148.276 152.427 147.802C151.607 146.691 150.038 146.061 148.725 145.828C148.535 145.795 148.604 145.532 148.767 145.517ZM109.249 142.624C109.363 142.624 109.38 142.787 109.275 142.819C107.691 143.295 106.178 144.064 104.943 145.173C104.353 145.704 103.758 146.307 103.393 147.022C103.254 147.295 103.177 147.584 103.12 147.884L103.102 147.984C103.008 148.525 102.873 148.826 102.598 149.26L102.551 149.333C100.982 151.757 99.8824 154.449 98.8769 157.145L96.6874 163.023V163.023L94.4992 168.902C93.7942 170.796 93.0888 172.69 92.3836 174.584C91.994 175.63 91.5935 176.671 91.1931 177.713C91.0199 178.164 90.8335 178.612 90.6751 179.069C90.6533 179.131 90.584 179.507 90.5321 179.598L90.5498 179.63V179.63C90.9911 180.372 92.1681 180.993 92.8353 181.532L95.1326 183.39V183.39C96.7706 184.715 98.4506 186.003 100.039 187.387C101.037 188.256 100.416 189.813 99.3035 190.176C97.4384 190.783 95.6112 191.511 93.774 192.199C93.0318 192.476 92.2591 192.718 91.5256 193.024L91.0791 193.217C90.9048 193.296 90.9886 193.295 90.9956 193.617C91.0026 193.955 91.0983 194.307 91.1532 194.638C91.772 198.381 92.428 202.118 93.1203 205.848C95.5693 219.039 98.4952 232.133 101.832 245.127C103.518 251.688 105.325 258.218 107.048 264.77C108.766 271.304 111.027 277.745 113.185 284.145C113.795 285.95 110.934 286.727 110.34 284.93C107.852 277.403 105.576 269.81 103.225 262.24C99.0495 248.79 95.7588 235.048 92.8484 221.272C91.4059 214.445 90.0865 207.591 88.8916 200.716C88.6653 199.414 88.4434 198.112 88.2261 196.809L87.9094 194.892C87.6923 193.526 87.5687 192.103 88.6302 191.021C89.6668 189.966 91.4462 189.592 92.8102 189.097L92.9092 189.061C93.7771 188.737 94.6514 188.424 95.5222 188.103C94.2394 187.092 92.9724 186.06 91.6928 185.05C90.6605 184.236 89.612 183.437 88.5945 182.604C87.7556 181.917 87.0715 181.035 86.984 179.917C86.8948 178.775 87.3841 177.715 87.7788 176.667L87.8166 176.566C88.2041 175.52 88.5926 174.475 88.9911 173.433L91.4566 166.982V166.982C93.0233 162.884 94.524 158.752 96.1719 154.685C96.8238 153.075 97.5343 151.491 98.3739 149.97C98.7787 149.237 99.2128 148.519 99.6846 147.826C100.213 147.05 100.693 146.671 101.512 146.243C102.822 145.558 103.85 144.409 105.165 143.703C106.456 143.01 107.784 142.64 109.249 142.624ZM113.5 135.312C113.551 135.226 113.683 135.264 113.685 135.362C113.719 137.399 113.235 139.48 112.938 141.495C112.639 143.516 112.543 145.649 112.11 147.649C112.101 147.742 112.083 147.834 112.058 147.924L112.037 147.993V147.993C111.855 148.553 111.38 149.028 110.798 149.176C110.981 150.192 111.153 151.209 111.298 152.231C111.548 153.989 111.775 155.749 111.999 157.51L112.267 159.623C112.52 161.614 112.766 163.606 113.009 165.599C113.627 165.857 114.258 166.071 114.905 166.256C116.393 166.682 117.917 166.855 119.453 167.006C122.581 167.313 125.733 167.455 128.872 167.629L129.545 167.667C133.074 167.869 136.622 167.905 140.142 167.543C141.887 167.363 143.619 167.062 145.321 166.635C146.186 166.418 147.027 166.094 147.89 165.881C148.176 165.811 148.432 165.649 148.719 165.475C148.847 165.314 149.025 165.192 149.258 165.145L149.321 165.134V165.134L149.384 165.125L149.405 165.115L149.403 165.122C149.58 165.098 149.748 165.099 149.906 165.12C149.969 163.567 150.037 162.013 150.123 160.46C150.353 156.289 150.987 151.938 150.14 147.803C150.112 147.664 150.301 147.615 150.35 147.745C152.011 152.122 151.824 156.909 151.908 161.516C151.99 166.021 151.94 170.53 151.918 175.036C152.241 175.173 152.528 175.36 152.756 175.621C153.212 176.143 153.343 177.05 152.756 177.554C152.496 177.778 152.209 177.933 151.904 178.04C151.888 181.955 151.86 185.87 151.821 189.786C152.565 190.361 152.634 191.726 151.793 192.294C151.652 204.972 151.422 217.651 151.231 230.328L150.831 256.923V256.923C150.778 260.467 150.689 264.01 150.658 267.553L150.683 267.563V267.563L150.771 267.604C150.921 267.674 151.142 267.788 151.188 267.904C151.201 267.934 151.204 267.955 151.202 267.97C151.446 268.005 151.688 268.12 151.898 268.319C152.414 268.81 152.309 269.55 151.898 270.05L151.788 270.184V270.184C151.531 270.496 151.044 270.616 150.646 270.553C150.65 272.764 150.664 274.976 150.657 277.187C150.654 277.863 150.644 278.538 150.633 279.213L150.605 280.833C150.586 281.757 150.504 282.932 149.558 283.347C148.491 283.815 147.533 283.432 147.101 282.347C146.984 282.053 147.009 281.78 147.052 281.489C147.039 281.053 146.97 280.547 146.979 280.142L147.014 278.454V278.454C147.02 278.193 147.03 277.933 147.038 277.673L147.007 277.676V277.676C143.213 277.86 139.394 277.77 135.594 277.768L133.905 277.77C132.495 277.771 131.082 277.764 129.674 277.71L129.146 277.688C128.092 277.638 126.984 277.622 125.891 277.528C126.03 278.65 126.16 279.773 126.276 280.897C126.386 281.963 125.286 282.868 124.306 282.868C123.141 282.868 122.474 281.952 122.335 280.897C121.677 275.918 121.407 270.893 120.778 265.912C120.215 261.45 119.726 256.977 119.23 252.507L119.064 251.017C117.247 234.748 115.483 218.473 113.796 202.19L113.01 194.578C112.217 186.906 111.418 179.233 110.745 171.55C110.36 167.158 110.006 162.764 109.672 158.367C109.427 155.137 109.273 151.924 109.173 148.701C108.778 148.294 108.58 147.701 108.755 147.088C108.857 146.73 108.976 146.374 109.102 146.019C109.094 145.67 109.086 145.322 109.079 144.972C109.073 144.642 109.408 144.472 109.677 144.526C110.165 143.344 110.702 142.172 111.151 141.002C111.877 139.107 112.475 137.065 113.5 135.312ZM72.9592 155.792C80.5477 151.034 89.5806 147.611 98.6278 147.979C98.8335 147.988 98.8914 148.301 98.6778 148.349C93.8521 149.427 88.9733 150.74 84.4046 152.651C79.8226 154.567 75.4659 157.148 71.5855 160.249C64.4261 165.971 58.8613 173.413 55.1971 181.802C53.0508 186.716 51.5463 191.905 50.2327 197.095C48.8425 202.587 47.6968 208.139 46.7442 213.725C44.8627 224.757 43.7673 235.912 43.1844 247.085C42.5913 258.451 42.8358 269.825 42.4128 281.193C42.3397 283.162 39.5256 283.124 39.3826 281.193C38.4243 268.269 38.9552 255.138 39.8415 242.223C40.6384 230.612 42.03 219.026 44.2709 207.603L44.4661 206.613C46.561 196.044 49.0878 185.219 54.1523 175.648C58.4761 167.476 65.1513 160.687 72.9592 155.792ZM178.337 206.304C178.377 206.191 178.526 206.192 178.566 206.304C179.431 208.726 179.462 211.46 179.692 214.014L179.71 214.21C179.931 216.539 180.097 218.871 180.251 221.205L180.309 222.08C180.928 231.601 181.703 241.112 182.87 250.583C184.033 260.019 185.606 269.389 187.306 278.74C187.496 279.781 187.035 280.842 185.943 281.142C184.981 281.406 183.746 280.813 183.543 279.778C182.487 274.411 181.633 269.036 180.872 263.622C179.531 254.089 178.53 244.511 177.887 234.905C177.564 230.081 177.365 225.258 177.286 220.424C177.25 218.18 177.308 215.932 177.428 213.691L177.456 213.174C177.588 210.883 177.574 208.488 178.337 206.304ZM96.3384 266.949C96.4398 266.894 96.5653 267.007 96.5011 267.112C95.0317 269.501 93.0439 271.561 91.1226 273.591C89.1141 275.713 87.1552 277.899 85.1061 279.98C83.6256 281.483 81.2439 279.058 82.8065 277.679C85.0035 275.741 87.2997 273.899 89.5358 272.003L90.5137 271.174C92.347 269.625 94.2348 268.089 96.3384 266.949ZM166.129 265.753C166.019 265.544 166.27 265.374 166.44 265.513C167.625 266.477 168.688 267.627 169.832 268.645C170.965 269.652 172.141 270.593 173.349 271.509C174.562 272.43 175.801 273.314 177.074 274.15C178.13 274.844 179.218 275.399 180.323 275.975C180.835 276.041 181.309 276.293 181.689 276.769C182.289 277.523 182.352 278.944 181.52 279.598L181.371 279.716V279.716C180.4 280.479 179.247 280.572 178.291 279.716C177.223 278.759 176.214 277.707 175.189 276.697L174.881 276.395C173.78 275.324 172.705 274.218 171.692 273.062L170.774 272.019C169.073 270.077 167.301 267.985 166.129 265.753ZM160.669 153.836C160.472 153.705 160.594 153.353 160.837 153.437L161.283 153.592C163.148 154.24 165.068 154.959 166.761 155.957C168.581 157.03 170.261 158.308 171.866 159.679C175.189 162.516 178.016 166.005 180.418 169.642C185.238 176.939 188.219 185.297 190.626 193.66C193.192 202.576 195.168 211.684 196.781 220.819C198.421 230.101 199.685 239.468 200.516 248.858C200.926 253.483 201.201 258.112 201.339 262.753C201.41 265.141 201.408 267.527 201.388 269.916C201.383 270.53 201.387 271.144 201.394 271.758L201.417 273.601C201.43 274.765 201.569 275.989 201.292 277.127C200.847 278.959 197.82 278.617 197.919 276.745C197.828 276.122 197.824 275.478 197.848 274.833C197.834 274.75 197.818 274.666 197.801 274.579C197.751 274.332 197.793 274.102 197.89 273.906C197.906 273.596 197.92 273.289 197.925 272.986C197.945 271.756 197.944 270.532 197.91 269.302C197.838 266.71 197.735 264.117 197.631 261.526C197.423 256.348 197.133 251.168 196.714 246.002C195.254 228.023 192.171 209.941 186.993 192.643C184.589 184.61 181.273 176.725 176.519 169.784C174.408 166.703 172.027 163.856 169.387 161.215C166.731 158.556 163.803 155.912 160.669 153.836ZM124.841 269.74L125.2 272.337C125.379 273.635 125.557 274.934 125.725 276.234C126.871 276.077 128.042 276.011 129.146 275.913C131.078 275.742 133.023 275.659 134.961 275.579C138.968 275.414 142.995 275.127 147.006 275.147C147.048 275.147 147.087 275.15 147.125 275.153L147.324 270.03V270.03L144.506 270.026V270.026C142.118 270.022 139.731 270.002 137.343 269.981C135.193 269.963 133.042 269.96 130.891 269.915L129.97 269.893C128.339 269.849 126.539 269.94 124.841 269.74ZM147.561 262.304C147.446 262.318 147.329 262.329 147.204 262.334C146.646 262.358 146.084 262.342 145.525 262.346C144.336 262.357 143.146 262.365 141.957 262.364C139.578 262.364 137.199 262.379 134.821 262.407C132.372 262.437 129.925 262.479 127.476 262.484C126.29 262.486 125.107 262.455 123.921 262.422C124.113 264.108 124.314 265.793 124.535 267.474C126.377 267.225 128.358 267.35 130.158 267.333L130.392 267.33C132.848 267.288 135.307 267.319 137.765 267.322C140.293 267.325 142.821 267.333 145.349 267.354L147.426 267.371V267.371L147.43 267.266V267.266C147.491 265.614 147.53 263.959 147.561 262.304ZM123.008 254.238C123.238 256.228 123.454 258.222 123.674 260.215C123.821 260.192 123.969 260.173 124.12 260.157C125.308 260.033 126.494 259.926 127.686 259.852C130.063 259.705 132.44 259.627 134.821 259.563C137.269 259.497 139.718 259.447 142.167 259.413C143.357 259.396 144.545 259.398 145.735 259.406C146.293 259.41 146.857 259.392 147.414 259.429C147.481 259.434 147.544 259.441 147.607 259.448L147.649 256.456C147.656 255.957 147.664 255.458 147.672 254.96C145.833 255.073 143.963 255.03 142.126 255.031L141.702 255.032C139.393 255.042 137.084 255.011 134.775 254.963C132.393 254.913 130.017 254.835 127.639 254.682C126.676 254.621 125.72 254.539 124.762 254.433L124.283 254.378C123.866 254.329 123.437 254.289 123.008 254.238ZM147.862 245.793C143.433 246.145 139.028 246.292 134.587 246.336L133.921 246.341C129.997 246.371 126.04 246.533 122.107 246.429C122.342 248.469 122.577 250.509 122.813 252.548C123.376 252.522 123.942 252.522 124.493 252.502C125.613 252.461 126.729 252.451 127.849 252.449C130.158 252.443 132.466 252.463 134.775 252.459C137.154 252.454 139.533 252.414 141.912 252.369C143.841 252.333 145.79 252.187 147.724 252.193L147.862 245.793V245.793ZM148.049 237.091C147.536 237.262 146.93 237.273 146.266 237.303L144.551 237.389C143.757 237.428 142.962 237.464 142.167 237.493C139.517 237.59 136.868 237.681 134.218 237.765C131.502 237.852 128.774 237.902 126.058 237.816C124.728 237.774 123.409 237.704 122.082 237.593C121.754 237.566 121.42 237.548 121.085 237.524C121.394 240.227 121.704 242.929 122.015 245.631C125.929 245.15 129.874 244.851 133.784 244.354L137.319 243.902C140.853 243.451 144.383 243.009 147.93 242.635L148.049 237.091V237.091ZM148.238 228.293C147.485 228.479 146.627 228.47 145.903 228.515L145.769 228.525C144.399 228.629 143.026 228.681 141.653 228.715C138.961 228.781 136.268 228.814 133.575 228.831L131.956 228.841C129.798 228.853 127.641 228.859 125.482 228.808C124.097 228.776 122.715 228.708 121.332 228.639C120.917 228.618 120.493 228.604 120.068 228.583C120.357 231.142 120.65 233.7 120.941 236.258C121.396 236.186 121.852 236.131 122.288 236.057C123.403 235.869 124.516 235.718 125.64 235.583C128.073 235.292 130.518 235.082 132.963 234.905C135.472 234.723 137.984 234.569 140.493 234.393L142.271 234.268C142.864 234.226 143.456 234.187 144.049 234.15C145.061 234.088 146.238 234.158 147.242 233.938C147.514 233.825 147.816 233.799 148.118 233.863L148.238 228.293V228.293ZM148.466 217.995C148.205 218.326 147.816 218.499 147.352 218.559C144.935 218.873 142.456 218.923 140.019 219.071L139.59 219.098C137.073 219.264 134.555 219.394 132.037 219.528C129.45 219.665 126.863 219.777 124.274 219.868C123.175 219.906 122.07 219.91 120.97 219.896L120.498 219.889C120.046 219.882 119.573 219.883 119.098 219.867C119.361 222.26 119.626 224.652 119.895 227.044C120.379 226.991 120.862 226.951 121.331 226.901C122.714 226.755 124.096 226.61 125.482 226.501C128.108 226.294 130.737 226.169 133.368 226.039C136.06 225.906 138.754 225.817 141.446 225.691C142.752 225.63 144.057 225.554 145.358 225.434C146.271 225.35 147.354 225.04 148.306 225.154C148.358 222.767 148.412 220.381 148.466 217.995ZM148.678 208.769C148.637 208.833 148.589 208.895 148.53 208.952C147.466 210.004 146.155 209.923 144.745 210.033L144.658 210.04C143.277 210.156 141.894 210.267 140.511 210.367C137.745 210.566 134.975 210.706 132.205 210.831C129.371 210.958 126.519 211.046 123.682 210.988C121.865 210.951 119.963 210.957 118.109 210.78C118.394 213.415 118.68 216.05 118.969 218.684C119.49 218.586 120.014 218.511 120.511 218.432C121.763 218.235 123.016 218.037 124.274 217.892C126.79 217.603 129.307 217.332 131.827 217.087C133.983 216.878 136.138 216.666 138.295 216.475L139.59 216.363C142.164 216.146 144.77 215.789 147.352 215.736C147.778 215.727 148.259 215.959 148.503 216.325C148.56 213.806 148.619 211.288 148.678 208.769ZM148.857 201.301C148.199 201.381 147.491 201.335 146.885 201.355C145.351 201.405 143.817 201.452 142.284 201.497L133.081 201.769V201.769C129.947 201.861 126.803 201.93 123.668 201.886C122.289 201.866 120.905 201.864 119.526 201.789L119.067 201.761C118.5 201.724 117.804 201.718 117.124 201.649L117.926 209.086V209.086C119.77 208.819 121.671 208.72 123.499 208.563L123.89 208.529C126.586 208.283 129.296 208.121 131.997 207.938C134.769 207.75 137.536 207.522 140.303 207.289C141.686 207.173 143.069 207.057 144.451 206.93L144.622 206.913C145.928 206.776 147.155 206.486 148.312 207.256C148.481 207.369 148.613 207.519 148.704 207.688C148.754 205.559 148.804 203.43 148.857 201.301ZM149.071 192.622C143.466 192.847 137.861 193.019 132.252 193.094C129.095 193.136 125.942 193.106 122.785 193.04C121.416 193.012 120.036 192.946 118.668 192.841L118.156 192.8C117.505 192.745 116.822 192.705 116.142 192.64C116.423 195.197 116.702 197.754 116.979 200.312C117.648 200.188 118.347 200.13 118.934 200.055L119.067 200.037C120.524 199.837 121.995 199.72 123.459 199.591C126.31 199.34 129.176 199.178 132.035 199.04C134.962 198.899 137.891 198.78 140.819 198.65L143.747 198.519C144.235 198.497 144.723 198.476 145.211 198.455C145.909 198.426 146.606 198.398 147.303 198.369C147.647 198.354 148.005 198.308 148.349 198.326L148.447 198.312C148.492 198.307 148.532 198.302 148.569 198.298C148.662 198.227 148.763 198.168 148.87 198.123L148.935 198.097L149.071 192.622ZM115.223 184.397C115.483 186.699 115.741 189.001 115.995 191.304C116.794 191.212 117.603 191.162 118.366 191.093C119.905 190.955 121.452 190.834 122.995 190.763L126.081 190.62C128.137 190.525 130.194 190.433 132.252 190.358C137.885 190.152 143.517 189.916 149.147 189.629C149.187 188.067 149.228 186.505 149.269 184.944C148.999 185.233 148.609 185.424 148.096 185.422C142.186 185.407 136.271 185.441 130.362 185.344C127.404 185.295 124.449 185.223 121.495 185.071C120.049 184.997 118.595 184.846 117.161 184.647C116.549 184.562 115.879 184.502 115.223 184.397ZM114.277 176.194C114.555 178.552 114.828 180.911 115.096 183.27C115.83 183.139 116.588 183.069 117.273 182.976C118.744 182.776 120.224 182.616 121.706 182.533C124.589 182.37 127.474 182.287 130.362 182.226C136.271 182.101 142.186 182.101 148.096 182.055C148.651 182.05 149.063 182.27 149.334 182.598C149.375 181.126 149.418 179.653 149.463 178.18C148.892 178.12 148.326 178.035 147.802 177.998C146.193 177.886 144.582 177.783 142.971 177.691C139.61 177.498 136.245 177.333 132.881 177.187C129.516 177.04 126.15 176.897 122.784 176.772L121.312 176.719C118.971 176.632 116.591 176.522 114.277 176.194ZM113.219 167.314C113.508 169.702 113.793 172.091 114.077 174.48L114.163 175.219V175.219C116.978 174.671 119.945 174.511 122.784 174.39C126.15 174.247 129.511 174.173 132.881 174.184C136.247 174.194 139.608 174.273 142.971 174.413C144.652 174.482 146.332 174.562 148.012 174.653C148.474 174.678 149.015 174.665 149.572 174.673C149.584 174.298 149.595 173.922 149.608 173.547C149.659 172.027 149.709 170.506 149.761 168.986C148.625 169.57 147.148 169.805 146.006 170.054L145.876 170.083C143.991 170.506 142.066 170.781 140.142 170.949C136.363 171.278 132.545 171.155 128.77 170.836L128.109 170.779C124.794 170.492 121.357 170.127 118.143 169.307C116.612 168.916 115.03 168.369 113.658 167.576C113.515 167.494 113.368 167.406 113.219 167.314ZM145.138 138.935C145.171 138.806 145.364 138.776 145.428 138.897C145.874 139.745 146.04 140.764 146.35 141.673C146.684 142.65 146.995 143.634 147.363 144.6C148.132 146.617 149.039 148.555 150.12 150.424C151.191 152.274 148.193 153.595 147.405 151.569C146.591 149.479 145.922 147.318 145.518 145.109C145.32 144.031 145.144 142.939 145.087 141.844C145.038 140.903 144.906 139.852 145.138 138.935Z" fill="black"/>
<path fill-rule="evenodd" clip-rule="evenodd" d="M169.522 68.4448C169.451 65.9175 165.776 64.8681 164.715 67.3711C164.649 67.4381 164.577 67.5026 164.51 67.5603C164.842 67.2752 164.147 67.7469 164.034 67.8053C163.938 67.8551 163.839 67.9002 163.74 67.9467C163.057 61.544 160.739 54.6417 154.749 51.4279C146.395 47.3751 136.742 46.584 127.576 46.9866C122.933 47.2622 117.572 48.0049 113.447 45.6551C112.161 44.923 111.131 43.7705 109.678 43.318C105.093 42.0772 103.014 46.7873 103.638 50.6607C101.682 50.6762 99.7423 51.7593 98.8983 53.5427C98.4027 54.5982 98.4113 55.7372 97.9839 56.7964C96.6726 59.4827 94.7963 61.4136 95.8571 64.6705C93.9914 66.7944 95.0551 70.0096 96.5606 72.043C97.3041 73.1006 98.1895 74.116 98.7341 75.2997C99.2627 76.4332 98.4648 77.7774 98.0207 78.8519C94.7376 86.64 94.9252 95.2168 96.6918 103.34C93.1467 104.879 92.0828 109.689 94.3945 112.718C95.1899 113.789 96.1603 114.186 97.2608 114.845C98.6534 115.612 97.516 118.683 97.962 120.166C98.5679 123.788 101.864 126.017 105.122 123.666C107.19 123.353 108.858 129.372 110.36 130.883C111.285 132.1 112.312 133.193 113.429 134.202C116.757 142.767 133.807 147.11 142.237 146.614C151.065 145.69 157.02 138.19 161.979 131.534C164.526 127.987 166.182 124.017 166.784 119.688C167.389 115.336 167.124 110.977 166.715 106.621C165.856 97.3645 164.501 84.0291 163.625 74.6729C166.788 74.4123 169.618 71.7182 169.522 68.4448V68.4448Z" fill="white"/>
<path fill-rule="evenodd" clip-rule="evenodd" d="M100.567 62.8797C100.564 62.8928 100.569 62.9027 100.571 62.9166C100.572 62.9126 100.573 62.9105 100.574 62.9057C100.571 62.8951 100.569 62.8881 100.567 62.8797" fill="#4F66AF"/>
<path fill-rule="evenodd" clip-rule="evenodd" d="M100.566 63.0143C100.555 63.0021 100.538 62.993 100.522 62.9807C100.521 62.9811 100.521 62.9816 100.521 62.982C100.536 62.9921 100.551 63.0038 100.566 63.0143" fill="#4F66AF"/>
<path fill-rule="evenodd" clip-rule="evenodd" d="M169.018 69.6408C170.057 68.7773 171.694 69.5724 171.342 70.9941C170.959 72.5425 169.3 73.6005 167.931 74.2366C166.521 74.8912 165.148 75.0174 163.61 74.9459L163.591 74.9417V74.9417C164.018 76.6543 164.26 78.4345 164.587 80.1574C165.002 82.3432 165.409 84.53 165.811 86.7179C166.199 88.8327 166.691 90.9502 166.989 93.0756C167.29 95.221 167.579 97.3679 167.875 99.5139C168.369 103.098 168.767 106.699 169.187 110.294L169.387 111.995C169.808 115.596 170.147 119.202 169.349 122.786C168.602 126.145 166.919 129.278 164.966 132.082C163.054 134.827 160.918 137.467 158.573 139.855C154.05 144.46 148.473 148.149 141.933 148.833C139.117 149.128 136.109 148.8 133.462 147.776L133.286 147.707C130.606 146.649 127.324 144.836 126.627 141.862C126.198 140.038 128.078 138.614 129.725 139.479C130.489 139.881 131.063 140.339 131.689 140.914L131.801 141.016C132.313 141.492 132.51 141.638 133.101 142.011C134.313 142.773 135.221 143.134 136.598 143.481C139.136 144.12 141.875 144.019 144.452 143.263C149.923 141.66 154.166 137.475 157.802 133.279C159.776 131 161.65 128.61 163.095 125.954C164.611 123.168 165.311 120.243 165.269 117.073C165.222 113.496 164.728 109.905 164.403 106.344C164.073 102.715 163.767 99.0866 163.498 95.452C163.246 92.0435 163.222 88.6197 163.134 85.2006L163.116 84.5596C163.064 82.7446 163.029 80.9288 162.987 79.1133C162.947 77.3031 162.803 75.4699 162.99 73.6673C163.003 73.536 163.18 73.5028 163.223 73.6356C163.333 73.9733 163.429 74.3163 163.52 74.6612C163.534 74.6507 163.549 74.6412 163.568 74.6346C164.773 74.2204 165.883 73.3934 166.787 72.5015C167.65 71.6504 168.101 70.4036 169.018 69.6408ZM103.087 44.2793C103.844 41.169 107.251 40.4743 109.77 41.9722C110.981 42.6924 111.952 43.7312 113.083 44.5568C114.209 45.3776 115.452 46.0368 116.764 46.5024C119.371 47.4273 122.121 47.7636 124.876 47.7756C131.582 47.805 138.15 45.9198 144.866 46.13C150.062 46.2928 155.577 47.8291 159.347 51.5869C161.377 53.6112 162.686 56.2138 163.387 58.9768C163.715 60.2681 163.96 61.5907 164.153 62.9103L164.2 63.2401C164.308 64.0113 164.481 64.8278 164.497 65.6072C164.512 66.3072 164.335 67.0398 164.239 67.7326C164.037 69.193 161.775 69.0267 161.451 67.7326C160.711 64.7861 161.02 61.7452 160.116 58.809C159.314 56.2051 157.761 53.9285 155.509 52.3714C146.011 45.8027 133.83 51.3035 123.365 50.7924C120.807 50.6675 118.211 50.2721 115.799 49.391C114.555 48.9366 113.33 48.3824 112.202 47.6854C111.168 47.0472 110.273 46.2453 109.316 45.5074L108.894 45.1865C108.238 44.6929 107.122 43.9211 106.46 44.5741C106.172 44.8583 106.155 45.501 106.16 45.9917L106.163 46.2135C106.193 48.297 106.618 50.3767 105.838 52.3896C105.483 53.3077 104.495 53.8866 103.555 53.3667L103.506 53.3388C101.519 52.1558 98.9069 54.5329 100.434 56.5003L100.481 56.5598C101.341 57.6043 100.883 59.4437 99.3448 59.4391L99.2895 59.4381C96.5497 59.3526 95.3342 62.7779 97.6957 64.2745L97.7683 64.3193C99.6856 65.4671 98.0039 68.2267 96.0389 67.2792C96.2054 67.3595 95.9159 67.3585 95.7503 67.5808C95.5912 67.7943 95.5794 67.979 95.6172 68.2487C95.7319 69.0658 96.4502 69.7544 97.0321 70.2713C98.3538 71.4458 99.9921 72.2567 101.68 72.7505C108.443 74.7283 115.381 72.309 121.97 70.8479C128.839 69.3247 136.598 68.7111 142.589 73.0335C142.66 73.0846 142.598 73.1989 142.519 73.1533C138.22 70.6556 132.954 70.8773 128.254 71.9013C122.092 73.2442 115.983 75.7438 109.671 76.4024C111.443 79.5316 112.185 83.2275 111.711 86.8067C111.386 89.2706 110.405 91.4078 109.248 93.5735L109.027 93.9863C107.995 95.9303 107.195 97.7668 107.182 100.019C107.17 102.256 103.845 102.728 103.281 100.547C102.001 95.5943 106.663 91.6929 108.565 87.6086C110.191 84.1171 110.241 80.0463 108.925 76.4713C107.441 76.5907 105.945 76.6032 104.434 76.4683C103.136 76.3523 101.801 76.1183 100.5 75.748L99.979 77.9376C99.2892 80.8541 98.6501 83.7686 98.4564 86.7979C98.3138 89.0238 98.3214 91.2607 98.5384 93.4812C98.726 95.399 99.1219 97.2485 99.5248 99.1208C99.8704 99.5769 100.047 100.275 99.9499 100.831C102.194 101.477 103.958 103.249 104.603 105.594C104.642 105.737 104.442 105.817 104.368 105.694C102.838 103.154 98.8986 102.22 96.4067 103.898C94.027 105.499 93.0883 108.733 94.4354 111.293C95.1439 112.639 96.1944 113.585 97.549 114.236L97.8214 114.364C98.5312 114.7 99.1828 115.066 99.6393 115.741C100.232 116.616 100.251 117.542 100.196 118.542L100.171 118.948C100.134 119.618 100.125 120.308 100.325 120.953L100.37 121.097C100.423 121.258 100.478 121.399 100.575 121.553C100.603 121.599 100.873 121.863 100.961 121.959L101.072 121.993V121.993L101.195 121.998V121.998C101.333 122 101.513 121.94 101.454 121.981L101.47 121.972C101.522 121.94 101.57 121.905 101.61 121.875L101.687 121.815C101.867 121.556 102.091 121.341 102.367 121.178L102.63 121.061V121.061C103.315 120.338 104.487 120.718 104.978 121.438C105.331 121.956 105.521 122.482 105.536 123.001C105.592 122.913 105.714 122.864 105.792 122.963L106.257 123.556C108.037 125.831 109.786 128.12 111.808 130.194C112.922 131.336 114.12 132.41 115.373 133.399C116.442 134.243 118.471 135.055 118.502 136.593C118.512 137.093 118.157 137.446 117.724 137.616C116.313 138.167 114.569 136.292 113.55 135.379L113.467 135.305C112.22 134.212 111.081 133.013 110.031 131.73C107.991 129.238 106.285 126.37 105.533 123.214C105.498 123.765 105.261 124.304 104.802 124.814C104.19 125.491 103.352 125.966 102.457 126.162C100.43 126.605 98.4509 125.875 97.2448 124.186C96.2254 122.757 95.9252 120.871 96.0568 119.145L96.073 118.938C96.0914 118.661 96.115 118.153 96.1866 117.937L95.5483 117.587V117.587C94.7658 117.17 94.0405 116.624 93.3896 116.024C90.7735 113.611 89.4609 109.69 90.6569 106.258C91.405 104.112 92.977 102.244 94.99 101.273C94.6535 100.496 94.541 99.5718 94.414 98.7545L94.3927 98.6193C94.1774 97.2785 93.9972 95.9208 93.9285 94.5639C93.8001 92.0298 93.9562 89.4721 94.3543 86.9674C95.0007 82.8991 96.3391 78.5846 98.7924 75.1717C96.9207 74.4282 95.1981 73.3518 93.8683 71.8571C92.4788 70.2952 91.593 68.0591 92.6675 66.0756C92.9413 65.57 93.2981 65.145 93.7082 64.8075C92.9971 63.4642 92.767 61.8765 93.2058 60.359C93.7302 58.5448 95.1539 57.1298 96.8738 56.4691C96.4562 54.7502 96.7976 52.9013 98.0738 51.4688C99.3397 50.0476 101.306 49.53 103.125 49.8549C103.224 48.0267 102.648 46.0823 103.087 44.2793ZM97.9848 108.466C99.653 107.65 101.63 107.779 103.296 108.553L103.409 108.607C105.228 109.489 107.638 111.551 107.06 113.744C106.721 115.027 105.297 115.465 104.192 114.911C103.27 114.449 103.059 113.622 102.596 112.791C102.269 112.203 101.865 111.744 101.389 111.272C100.388 110.276 99.2628 109.537 97.9848 108.945C97.8006 108.86 97.8069 108.554 97.9848 108.466ZM140.017 64.1399C139.86 64.0684 139.974 63.8235 140.131 63.8683C144.323 65.0658 148.231 67.7538 150.567 71.4847C150.709 71.7123 150.731 72.0871 150.567 72.3124L150.491 72.4146C150.384 72.5545 150.278 72.6577 150.077 72.689C149.698 72.7477 149.369 72.649 149.151 72.3124C146.851 68.7562 143.903 65.9182 140.017 64.1399ZM168.078 64.8441C168.433 64.2424 169.375 64.3635 169.562 65.0381L169.589 65.0968C169.691 65.3268 169.644 65.3739 169.456 65.2438C169.923 65.6288 170.135 66.2024 169.992 66.8192C169.22 70.15 165.449 72.5286 162.161 72.2012C161.874 72.1727 161.835 71.8199 162.095 71.7147C163.36 71.2024 164.483 70.3703 165.385 69.3492C166.263 68.3567 166.632 67.2212 167.104 66.0226C167.281 65.5726 167.556 65.2486 167.945 65.0717C167.996 65.0007 168.041 64.925 168.078 64.8441ZM149.382 62.7037L149.404 62.7051C151.094 62.9234 152.555 63.7574 153.741 64.9794C154.884 66.1562 156.326 68.0981 156.202 69.8251C156.12 70.97 154.493 71.6245 153.886 70.4528C153.524 69.7536 153.442 68.9873 153.188 68.248C152.955 67.5704 152.633 66.927 152.248 66.3236C151.456 65.0805 150.366 64.0273 149.25 63.0771C149.12 62.9659 149.211 62.7043 149.382 62.7037V62.7037ZM106.054 62.1963C105.679 61.8395 106.069 61.2313 106.545 61.3517C109.058 61.9881 111.546 62.7621 114.158 62.839C115.463 62.8772 116.76 62.7743 118.053 62.6054L118.707 62.5185C119.715 62.3869 120.741 62.2836 121.737 62.4907C122.401 62.6287 122.531 63.4847 122.117 63.9312C120.163 66.0403 116.393 65.8387 113.801 65.4832C110.986 65.0968 108.146 64.1902 106.054 62.1963ZM151.427 55.6223C151.255 55.3837 151.545 55.0071 151.818 55.1129C154.315 56.0784 156.932 58.592 157.62 61.2218C157.802 61.9165 156.926 62.4411 156.412 61.9254C155.454 60.9644 154.777 59.8292 153.967 58.749C153.16 57.6722 152.215 56.7158 151.427 55.6223ZM110.514 56.7968C110.314 56.5967 110.515 56.1981 110.803 56.2999C112.429 56.8759 114.067 57.3742 115.775 57.6357C117.524 57.9032 119.29 57.6999 121.048 57.8083C121.759 57.8521 122.244 58.9592 121.453 59.3037C117.939 60.834 113.167 59.4463 110.514 56.7968ZM115.004 53.3642C114.725 53.1575 114.884 52.5902 115.264 52.7485C116.812 53.3933 118.377 53.5519 120.039 53.4855C120.653 53.4608 120.782 54.4256 120.184 54.5558C118.347 54.9554 116.505 54.4742 115.004 53.3642Z" fill="black"/>
<path fill-rule="evenodd" clip-rule="evenodd" d="M143.152 128.274C141.732 127.695 140.465 126.728 139.538 125.493C139.216 125.063 139.133 124.61 139.2 124.195C139.276 123.729 139.552 123.306 139.928 123.023C140.305 122.739 140.777 122.598 141.233 122.67C141.63 122.732 142.024 122.949 142.337 123.399L142.402 123.489C142.953 124.235 143.67 124.846 144.488 125.241C145.276 125.621 146.158 125.798 147.07 125.695C148.808 125.499 150.005 124.559 151.278 123.282C151.436 123.121 151.594 122.955 151.752 122.786C151.852 122.633 151.991 122.534 152.146 122.483C152.317 122.425 152.511 122.429 152.689 122.491C152.86 122.55 153.013 122.664 153.116 122.815C153.213 122.958 153.269 123.135 153.251 123.339C153.134 124.661 152.443 125.842 151.461 126.769C150.37 127.799 148.924 128.511 147.563 128.761C146.064 129.036 144.536 128.839 143.152 128.274V128.274ZM148.271 107.866C149.866 108.836 152.297 111.098 150.581 113.503C148.56 115.624 145.652 113.193 144.219 112.093C142.889 111.241 141.396 113.433 142.629 114.428C152.986 122.099 157.19 108.12 149.078 106.726C148.184 106.572 147.853 107.566 148.271 107.866ZM129.71 98.9429C129.887 96.7541 133.219 96.257 133.55 98.423C133.847 100.363 133.498 102.145 132.624 103.892C131.79 105.561 129.692 104.783 129.533 103.263C129.32 101.226 129.601 100.304 129.71 98.9429ZM155.076 97.9738C155.541 97.3652 156.211 96.9496 157.015 97.1845C159.526 97.9185 158.786 101.485 157.904 103.22C157.425 104.163 155.876 104.402 155.176 103.572C154.035 102.219 153.489 99.5156 154.939 98.1825C154.979 98.1136 155.022 98.044 155.076 97.9738ZM132.589 89.3654L132.986 89.2959C134.213 89.0836 135.738 88.8796 136.606 89.8665C137.067 90.3898 137.225 91.3624 136.606 91.8633C135.518 92.7446 134.314 92.4031 133.01 92.4777C131.935 92.5394 130.902 92.7174 129.867 93.0135C127.595 93.663 125.744 94.8486 123.804 96.1506C123.55 96.3213 123.29 95.9956 123.411 95.7574C124.531 93.563 126.701 91.7604 128.875 90.6616C130.036 90.0751 131.305 89.5885 132.589 89.3654ZM152.787 88.3823L153.091 88.4445C156.395 89.1353 160.687 90.5153 162.251 93.7615C162.311 94.2205 162.248 94.3189 162.197 94.3832L162.18 94.4046C162.137 94.4595 162.104 94.5351 161.905 94.5976C161.85 94.5844 161.794 94.5705 161.737 94.5557C161.02 94.3677 160.453 94.1087 159.904 93.84L159.308 93.5465C158.617 93.2076 157.92 92.881 157.181 92.6399C155.605 92.1254 153.983 91.7631 152.337 91.5696C151.98 91.5277 151.636 91.4072 151.365 91.2006C151.108 91.0046 150.911 90.7332 150.821 90.3724C150.705 89.9056 150.738 89.5521 150.989 89.1309C151.177 88.8146 151.447 88.5953 151.756 88.4694C152.071 88.3411 152.43 88.3108 152.787 88.3823Z" fill="black"/>
</svg>
