<svg width="240" height="324" viewBox="0 0 240 324" fill="none" xmlns="http://www.w3.org/2000/svg">
<path fill-rule="evenodd" clip-rule="evenodd" d="M47.4644 286.051C75.0654 290.245 103.167 290.456 130.998 288.933C142.012 288.108 153.06 287.96 164.065 289.014C170.568 289.498 199.081 291.678 201.411 285.852C199.944 254.825 196.975 223.533 187.865 193.693C184.119 183.097 180.901 174.303 173.589 165.535C171.284 163.141 166.314 158.12 163.467 156.482C161 155.064 159.968 155.57 158.552 153.174C157.144 150.527 156.106 146.107 154.107 144.24C152.072 142.338 149.056 143.018 145.317 143.631C146.004 134.346 141.72 131.981 135.818 130.216C125.444 126.255 115.198 128.245 112.587 140.879C107.746 140.879 105.026 142.963 102.086 144.966C100.884 145.784 101.72 147.87 100.285 148.513C97.6288 149.459 92.9353 149.228 90.378 150.392C78.7491 155.686 68.3916 163.364 61.5895 174.576C46.3402 198.515 35.8651 248.942 37.6778 277.315C36.8836 278.561 37.9818 280.348 38.261 281.687C38.6133 282.853 39.7544 283.628 40.9453 283.495C42.6071 285.283 45.1774 285.681 47.4644 286.051Z" fill="white"/>
<path fill-rule="evenodd" clip-rule="evenodd" d="M161.709 155.78C161.539 155.686 161.689 155.443 161.859 155.523C170.044 159.365 176.324 166.105 180.742 173.892C185.318 181.955 187.925 191.11 190.173 200.058L190.255 200.381C192.652 209.953 194.69 219.624 196.525 229.319C198.384 239.136 199.875 249.015 201.075 258.934C201.669 263.838 202.198 268.751 202.611 273.674C202.817 276.134 203.005 278.596 203.173 281.059C203.24 282.044 203.304 283.03 203.358 284.015L203.397 284.755C203.431 285.426 203.51 286.098 203.345 286.76C203.202 287.331 202.9 287.847 202.634 288.371C202.109 289.406 200.669 289.235 200.103 288.371L199.939 288.119C199.564 287.539 199.252 286.999 199.134 286.277C199.02 285.578 199.016 284.845 198.965 284.139C198.871 282.839 198.791 281.538 198.699 280.238C198.508 277.502 198.292 274.767 198.054 272.034C197.583 266.639 197.077 261.249 196.456 255.869C195.353 246.307 193.969 236.771 192.337 227.286C190.742 218.02 188.726 208.848 186.623 199.687L186.405 198.74C182.723 182.746 177.048 164.327 161.709 155.78ZM74.5216 218.408C74.5818 218.248 74.8408 218.211 74.8846 218.408C75.436 220.891 75.4905 223.449 75.5748 225.992C75.6578 228.5 75.6544 231.02 75.6179 233.53C75.4831 242.754 75.23 251.97 75.0111 261.193C74.9017 265.806 74.799 270.419 74.7202 275.033C74.6904 276.764 74.6654 278.494 74.6446 280.225L74.6191 282.507C74.6064 283.516 74.58 284.513 74.457 285.521C74.3758 286.184 74.203 286.816 73.8371 287.385C73.5774 287.788 73.2073 287.993 72.8466 288.267L72.7791 288.319C72.3189 288.683 71.8343 288.685 71.3786 288.319L71.2463 288.214C70.8109 287.874 70.4347 287.608 70.1568 287.069C69.7702 286.32 69.7083 285.507 69.6426 284.682C69.5429 283.431 69.609 282.161 69.6219 280.906C69.6477 278.389 69.6825 275.872 69.7267 273.355C69.8887 264.125 70.209 254.894 70.7927 245.68C71.0677 241.341 71.4406 236.987 71.9408 232.665L72.036 231.855C72.1877 230.583 72.3261 229.289 72.482 227.99C70.1545 226.352 68.1086 224.365 66.3639 222.111C66.2355 221.945 66.447 221.712 66.602 221.873C68.3847 223.719 70.4287 225.192 72.6916 226.349C73.0624 223.631 73.5722 220.927 74.5216 218.408ZM113.406 136.132C113.438 136.107 113.488 136.097 113.518 136.132C114.019 136.716 113.917 137.608 113.933 138.347L113.935 138.416C113.971 139.497 113.978 140.575 113.974 141.656L113.963 145.1V145.1C113.961 145.573 113.923 146.066 113.947 146.542L113.96 146.726V146.726C114.223 146.996 114.345 147.385 114.256 147.775C114.24 148.277 113.978 148.695 113.596 148.958L114.415 150.12V150.12L115.235 151.282C116.924 153.68 118.633 156.057 120.414 158.388C122.229 160.766 124.166 163.054 126.193 165.253C127.183 166.328 128.19 167.388 129.221 168.425C129.64 168.846 130.069 169.256 130.493 169.672L130.916 170.089C131.165 170.339 131.479 170.586 131.645 170.902C131.742 171.089 131.764 171.549 131.799 171.625C132.112 172.312 131.578 173.408 130.692 173.065L130.732 173.039C130.894 172.926 130.79 172.925 130.422 173.034C130.189 173.033 129.971 172.98 129.768 172.874L129.707 172.84C129.421 172.695 129.165 172.413 128.932 172.187L128.874 172.132C128.341 171.633 127.834 171.103 127.323 170.581C126.258 169.493 125.217 168.381 124.208 167.239C122.197 164.961 120.29 162.591 118.485 160.147C116.645 157.658 114.936 155.041 113.466 152.317C112.908 151.283 112.396 150.229 111.906 149.163C110.951 148.856 110.73 147.841 110.796 146.697C110.444 145.876 110.127 145.039 109.939 144.184C109.914 144.066 110.064 143.956 110.154 144.058C110.46 144.405 110.742 144.775 111.014 145.154C111.178 144.352 111.385 143.613 111.483 143.143L111.906 141.065V141.065C109.522 140.941 106.909 141.921 105.265 143.637C105.177 144.084 104.833 144.404 104.498 144.821C104.115 145.299 103.781 145.834 103.532 146.395C102.979 147.637 103.291 149.467 102.219 150.378C102.107 150.473 101.982 150.539 101.854 150.579C102.362 153.075 102.131 155.825 102.12 158.357L102.12 158.579C102.122 161.413 102.028 164.249 101.918 167.08L101.807 169.882C101.663 173.619 101.569 177.358 101.932 181.075C103.589 179.606 105.303 178.205 107.076 176.87C108.242 175.992 109.431 175.145 110.641 174.33L111.625 173.672C112.804 172.881 114.011 172.068 115.302 171.502C116.99 170.761 118.595 171.016 120.224 171.775C121.847 172.532 123.422 173.41 125.014 174.23C126.633 175.063 128.256 175.89 129.877 176.719C130.951 177.268 132.525 177.763 133.313 178.774C133.363 178.551 133.422 178.328 133.49 178.105C133.412 177.767 133.442 177.401 133.632 177.052C136.279 172.186 138.729 167.204 141.161 162.228C142.392 159.709 143.562 157.161 144.796 154.645L145.995 152.193C146.195 151.785 146.396 151.377 146.598 150.97C146.9 150.36 147.215 149.756 147.521 149.147C147.651 148.89 147.813 148.635 147.939 148.375L147.998 148.245C148.001 148.238 148.292 147.324 148.067 147.411L148.048 147.421C147.933 147.486 147.842 147.342 147.916 147.25C148.233 146.857 148.675 147.205 148.856 147.568C149.355 148.568 148.441 150.137 148.089 151.095L148.07 151.148C146.979 154.238 145.743 157.27 144.477 160.291C142.05 166.084 139.443 171.787 136.841 177.501L136.81 177.599V177.599C137.365 177.173 137.957 176.787 138.464 176.411C139.744 175.463 141.061 174.562 142.376 173.663C144.788 172.015 147.264 170.475 149.782 168.997L150.286 168.702C151.544 167.969 152.79 167.374 154.283 167.594C155.669 167.799 156.959 168.544 158.212 169.15L158.341 169.212L162.213 171.053C161.799 169.402 161.351 167.759 160.883 166.122C159.971 162.929 158.968 159.763 157.88 156.625C156.864 153.694 155.765 150.794 154.603 147.917L154.253 147.054C153.78 145.87 153.309 144.578 151.955 144.214C150.601 143.849 149.049 144.39 147.812 143.618C147.7 143.548 147.714 143.362 147.85 143.328L148.613 143.136C150.046 142.779 151.726 142.42 153.081 142.767C154.555 143.145 155.775 144.383 156.491 145.67C157.286 147.102 157.847 148.704 158.45 150.23L158.546 150.471C159.239 152.198 159.905 153.936 160.543 155.685C161.818 159.181 162.978 162.719 164.029 166.288C164.535 168.009 165.015 169.737 165.477 171.47C165.609 171.968 165.828 172.573 166.008 173.203C166.213 173.404 166.408 173.628 166.591 173.883C166.894 174.307 166.677 174.804 166.3 175.058C166.285 175.492 166.189 175.9 165.958 176.249C165.059 177.614 162.683 177.263 162.779 175.428C162.794 175.147 162.904 174.879 163.069 174.652L163.064 174.615V174.615L163.046 174.548V174.548C162.633 174.35 162.219 174.13 161.782 173.914L157.719 171.905V171.905C156.542 171.324 155.238 170.425 153.929 170.203C152.709 169.996 151.422 170.906 150.374 171.454L150.306 171.49C147.772 172.789 145.256 174.131 142.751 175.485C141.528 176.146 140.321 176.834 139.102 177.503C138.084 178.062 136.984 178.865 135.839 179.18C135.35 179.561 134.769 179.51 134.302 179.222C134.515 180.544 134.502 181.901 134.568 183.252C134.656 185.059 134.669 186.871 134.698 188.681L134.71 189.359C134.787 193.359 134.828 197.36 134.844 201.361C134.898 215.608 134.74 229.859 134.704 244.105C134.685 251.263 134.543 258.427 134.357 265.583C134.278 268.615 134.114 271.643 133.936 274.67L133.838 276.322C133.63 279.806 133.508 283.328 132.863 286.766C132.779 287.214 132.021 287.225 131.946 286.766C131.353 283.082 131.32 279.319 131.206 275.592L131.182 274.848C131.045 270.847 130.98 266.848 130.994 262.846C131.044 248.593 131.415 234.35 131.718 220.101C131.87 212.942 131.972 205.78 132.209 198.624C132.327 195.043 132.461 191.464 132.62 187.885C132.691 186.287 132.759 184.69 132.866 183.094L132.913 182.41C132.946 181.964 132.973 181.524 133.005 181.087C131.564 181.614 130.246 180.638 128.949 179.971C127.454 179.202 125.96 178.432 124.465 177.664L122.969 176.898V176.898L119.974 175.369C118.626 174.681 117.587 173.996 116.149 174.803C110.968 177.711 106.207 181.58 101.893 185.64C101.065 186.419 99.3172 186.209 99.1077 184.904C98.2125 179.33 98.7569 173.675 99.214 168.083L99.3824 166.007C99.5866 163.528 99.809 161.049 100.105 158.579C100.238 157.475 100.37 156.371 100.516 155.268L100.628 154.442C100.811 153.135 100.93 151.836 101.319 150.583C101.196 150.543 101.078 150.478 100.973 150.378C99.8025 149.267 100.367 147.34 100.9 146.02C101.428 144.716 102.231 143.578 103.238 142.598C103.458 142.385 103.767 142.247 104.078 142.24C106.519 140.622 109.197 139.815 111.983 140.698C112.062 140.323 112.141 139.95 112.226 139.577L112.311 139.204C112.528 138.279 112.608 136.751 113.406 136.132ZM138.421 282.221C139.179 282.013 140.008 282.233 140.563 282.788C141.118 283.343 141.337 284.172 141.129 284.93C141.024 285.303 140.836 285.627 140.563 285.902C140.308 286.155 140.01 286.336 139.671 286.444L139.592 286.468L139.468 286.52C139.088 286.622 138.708 286.622 138.329 286.52C137.966 286.418 137.651 286.234 137.383 285.969C137.118 285.701 136.934 285.386 136.832 285.023C136.73 284.643 136.73 284.263 136.832 283.883L136.884 283.759V283.759C136.989 283.386 137.177 283.062 137.45 282.788C137.725 282.515 138.048 282.326 138.421 282.221ZM183.394 206.719C183.518 206.576 183.72 206.759 183.643 206.911C182.463 209.225 181.148 211.522 179.856 213.777C179.959 214.402 180.062 215.022 180.18 215.626C180.683 218.201 181.3 220.73 181.702 223.33C183.147 232.676 183.897 242.123 184.541 251.553C185.187 261.016 185.269 270.484 185.366 279.966C185.375 280.788 184.743 281.743 183.896 281.898C183.508 281.969 183.218 281.955 182.831 281.898C181.95 281.768 181.399 280.758 181.361 279.966C181.109 274.667 180.769 269.374 180.375 264.083C179.677 254.702 179.25 245.297 178.686 235.907L178.488 232.625C178.275 229.069 178.08 225.51 178.016 221.949C177.974 219.589 178.1 217.23 178.023 214.873C177.951 212.698 177.73 210.332 178.21 208.194C178.228 208.114 178.354 208.094 178.391 208.17C178.889 209.22 179.205 210.362 179.449 211.526C180.734 209.901 182.042 208.271 183.394 206.719ZM99.2253 149.243C99.4057 149.23 99.3985 149.501 99.2253 149.521C96.7036 149.814 94.2676 150.84 91.8866 151.713L91.6826 151.787C89.2771 152.66 86.9318 153.675 84.6749 154.886C80.2621 157.252 76.21 160.303 72.6273 163.796C58.3234 177.739 51.8048 197.846 47.0282 216.741C44.3743 227.239 42.487 237.914 41.2638 248.672C40.6589 253.992 40.2313 259.332 39.982 264.681C39.8544 267.422 39.7739 270.166 39.7403 272.91C39.723 274.315 39.7179 275.721 39.7196 277.126C39.7205 277.771 39.8354 278.582 39.6632 279.207C39.5035 279.786 39.0531 280.297 38.7199 280.779C38.3251 281.352 37.6154 281.322 37.2151 280.779L37.0674 280.582C36.6404 280.015 36.2227 279.473 36.1617 278.733C36.0964 277.939 36.1425 277.121 36.1395 276.323C36.1327 274.717 36.1526 273.11 36.1847 271.504C36.2466 268.426 36.3679 265.348 36.5481 262.274C36.914 256.036 37.5163 249.811 38.3787 243.622C39.9117 232.621 42.2094 221.726 45.2191 211.035C48.0586 200.949 51.4224 190.894 56.2144 181.552C60.6637 172.878 66.5006 164.809 74.2025 158.747C77.7842 155.928 81.6831 153.578 85.8867 151.809C88.0068 150.917 90.2331 150.188 92.4973 149.773C94.7363 149.362 96.9656 149.42 99.2253 149.243ZM138.855 264.395C139.255 264.392 139.701 264.48 140.044 264.701L140.503 265.056V265.056C140.627 265.215 140.75 265.375 140.874 265.536C141.16 265.91 141.198 266.514 141.138 266.96C141.125 267.257 141.037 267.533 140.874 267.79L140.525 268.242V268.242C140.189 268.516 139.909 268.711 139.503 268.842C139.291 268.911 139.086 268.926 138.882 268.915L138.814 268.911L138.855 268.916L138.784 268.908V268.908C138.717 268.902 138.651 268.895 138.584 268.886C138.539 268.881 138.493 268.877 138.448 268.871C138.404 268.867 138.362 268.866 138.317 268.87C137.801 268.918 137.282 268.625 136.915 268.289C136.585 267.985 136.289 267.342 136.335 266.886L136.355 266.696C136.389 266.375 136.418 266.248 136.554 265.925C136.686 265.611 136.871 265.334 137.123 265.1C137.604 264.652 138.194 264.399 138.855 264.395ZM137.257 240.875C137.942 240.128 139.119 240.073 139.969 240.525C140.176 240.635 140.366 240.812 140.549 240.96C141.009 241.332 141.189 242.003 141.215 242.568C141.24 243.127 140.945 243.791 140.549 244.177L140.453 244.27V244.27C140.216 244.5 139.877 244.701 139.545 244.762C139.011 244.86 138.562 244.857 138.065 244.647C137.637 244.466 137.269 244.176 137.018 243.783L136.978 243.716C136.96 243.689 136.944 243.661 136.929 243.632L136.907 243.588C136.431 242.672 136.559 241.635 137.257 240.875ZM137.612 217.231C137.921 217.134 138.23 217.121 138.539 217.19C138.749 217.19 138.944 217.243 139.125 217.349C139.322 217.404 139.494 217.503 139.638 217.648C139.813 217.751 139.952 217.89 140.055 218.065C140.261 218.289 140.4 218.553 140.472 218.856L140.555 219.474L140.472 220.092L140.237 220.648V220.648C140.173 220.732 140.108 220.816 140.042 220.9C139.939 221.075 139.799 221.215 139.624 221.318C139.51 221.432 139.38 221.516 139.234 221.575C138.716 221.946 138.027 222.067 137.413 221.898C137.049 221.796 136.733 221.612 136.465 221.345C136.198 221.077 136.014 220.761 135.912 220.396L135.87 220.106C135.816 219.715 135.807 219.499 135.918 219.003C135.966 218.785 136.107 218.478 136.18 218.348C136.495 217.795 137.008 217.416 137.612 217.231ZM164.45 200.222C165.337 200.215 166.225 200.217 167.112 200.227L167.778 200.236C168.892 200.253 169.847 200.138 170.723 200.912C171.359 201.473 171.078 202.415 170.475 202.838C169.56 203.478 168.413 203.156 167.362 203.086C166.253 203.011 165.144 202.949 164.034 202.9C161.884 202.803 159.734 202.742 157.583 202.733C155.436 202.724 153.286 202.744 151.14 202.778C148.956 202.814 146.682 203.018 144.51 202.791C144.212 202.76 144.144 202.368 144.439 202.266C146.485 201.557 148.788 201.328 150.932 201.057C153.145 200.778 155.357 200.58 157.583 200.451C159.869 200.32 162.159 200.238 164.45 200.222ZM137.608 193.265L137.681 193.267C138.072 193.268 138.437 193.359 138.778 193.542L138.851 193.583L139.32 193.945C139.607 194.235 139.806 194.576 139.916 194.968L139.999 195.585V195.585C140.011 195.904 139.944 196.201 139.799 196.478C139.706 196.765 139.546 197.014 139.32 197.224C139.11 197.45 138.861 197.61 138.574 197.703C138.319 197.837 138.046 197.904 137.755 197.904L137.681 197.903C137.263 197.901 136.873 197.796 136.512 197.586L136.043 197.224V197.224C135.756 196.935 135.557 196.594 135.447 196.201L135.364 195.585V195.585C135.352 195.265 135.418 194.967 135.564 194.691C135.657 194.404 135.817 194.155 136.043 193.945C136.253 193.719 136.501 193.559 136.789 193.466C137.044 193.332 137.317 193.265 137.608 193.265V193.265ZM144.478 138.806C144.977 138.083 145.882 138.726 145.753 139.308C145.787 140.941 145.87 142.527 146.242 144.127C146.412 144.859 146.635 145.593 146.979 146.264L147.123 146.546C147.568 147.426 147.913 148.255 147.314 149.22C147.032 149.675 146.521 150.016 145.968 149.992C143.514 149.886 143.177 146.47 143.028 144.562C142.874 142.598 143.352 140.439 144.478 138.806Z" fill="black"/>
<path fill-rule="evenodd" clip-rule="evenodd" d="M161.371 73.4595C155.022 64.7167 143.331 62.2025 133.192 64.3289C113.371 67.9434 94.4339 83.0712 90.9317 103.645C85.4677 116.092 88.9569 135.696 104.848 137.161C107.11 137.289 109.351 136.768 111.617 137.049C125.449 139.259 141.794 148.721 154.038 137.563C154.652 138.002 155.46 138.215 156.148 137.949C161.36 135.934 161.605 130.106 162.049 125.315C162.623 119.124 163.161 112.93 163.663 106.733C163.843 96.0471 168.077 82.6934 161.371 73.4595V73.4595Z" fill="white"/>
<path fill-rule="evenodd" clip-rule="evenodd" d="M122.943 51.1816C131.288 50.7378 146.665 54.5615 153.945 59.0445C165.807 66.3485 166.726 80.9186 166.242 83.4379C166.059 84.3993 165.471 85.2891 164.552 84.9934C165.332 91.6127 165.271 95.3961 165.402 102.054L165.492 106.498C165.55 109.462 165.6 112.425 165.613 115.39C165.913 115.278 166.209 115.415 166.319 115.703C166.346 115.772 166.251 115.81 166.204 115.77C165.676 115.309 166.052 116.36 166.234 116.573C166.485 116.867 166.904 117.144 167.197 117.396L167.995 118.086V118.086L168.792 118.776C169.823 119.665 170.819 120.556 171.78 121.514L172.042 121.777C173.793 123.556 175.988 125.279 177.078 127.581C178.12 129.778 177.799 132.27 176.069 134.022C175.439 134.658 174.704 135.145 173.905 135.513C175.327 137.854 175.534 140.951 174.051 143.36C172.566 145.778 169.709 147.044 166.959 146.849C166.874 147.194 166.743 147.53 166.57 147.849C165.479 149.854 163.31 150.114 161.252 150.007L161.172 150.003C156.541 149.736 152.085 148.576 148.029 146.321C146.622 146.416 145.367 145.26 145.092 143.992C144.353 143.964 143.609 143.903 142.851 143.816C140.601 143.556 138.294 143.073 136.31 141.929C136.006 141.754 136.147 141.291 136.485 141.282C138.902 141.227 141.321 141.394 143.734 141.132C145.948 140.893 148.308 140.283 150.372 139.452C154.082 137.956 157.264 135.417 159.019 131.9C161.292 127.348 161.085 121.88 161.333 116.935C161.606 111.46 161.944 105.991 162.304 100.522L162.479 97.901C162.829 92.7915 163.119 90.0581 164.005 84.7546C161.333 84.9934 150.231 80.9961 146.778 74.4574C140.226 88.3674 107.028 82.6746 105.556 104.089C105.543 104.271 105.256 104.22 105.245 104.046L105.218 103.558C105.205 103.317 105.193 103.08 105.184 102.844L105.178 102.609L104.656 102.616C104.656 102.681 104.563 102.705 104.54 102.635C104.047 101.238 101.702 101.688 100.682 102.02C99.7629 102.32 98.8967 102.78 98.1192 103.349C96.558 104.491 95.3474 106.027 94.946 107.948C94.1833 111.596 96.5052 115.312 99.5876 117.072C101.531 118.182 103.661 118.898 105.524 120.156C107.17 121.265 108.704 122.565 110.033 124.043C115.297 129.895 118.395 138.772 115.904 146.496C115.714 147.086 115.211 147.76 114.545 147.855C113.445 148.014 112.344 147.853 111.727 146.805C111.486 146.395 111.372 145.928 111.397 145.467C110.971 146.934 109.587 148.384 108.311 148.929C106.572 149.673 104.614 149.451 103.08 148.491L102.886 148.635C100.392 150.471 97.6052 152.145 94.4094 151.808C92.0939 151.562 89.8206 150.383 88.5404 148.523C86.8376 149.481 85.0185 150.243 83.1425 150.763L82.9428 150.818C80.3617 151.521 77.0693 152.166 74.6601 150.738C72.3467 149.366 71.5777 146.371 72.1207 143.871C72.1861 143.573 72.2685 143.284 72.3699 143.003C70.6291 143.096 68.8904 142.929 67.2383 142.417C65.5502 141.895 63.9404 140.891 63.1312 139.264C62.2185 137.423 62.4615 135.331 63.1418 133.456C64.2298 130.448 65.9791 127.773 68.1573 125.442C70.2519 123.198 72.7785 121.295 75.4044 119.708L75.8471 119.443C78.2109 118.033 81.0614 116.38 83.8545 116.489C83.846 116.453 83.8397 116.419 83.8354 116.383C83.4129 113.27 83.4615 110.096 83.3622 106.957C83.2714 104.07 83.1678 101.183 83.1002 98.2937C82.9904 93.3817 83.0263 88.449 83.6664 83.5711C84.2347 79.2426 85.2573 75.0217 87.1228 71.0589C89.0812 66.8955 92.0305 63.3427 95.6728 60.5487C103.316 54.6837 113.413 51.6889 122.943 51.1816ZM96.9806 108.874C97.813 107.304 99.7081 106.809 101.371 107.092C103.701 107.49 105.286 109.527 106.646 111.279C108.074 113.116 105.095 114.847 104.329 113.067L104.147 112.647C103.531 111.236 102.804 109.748 101.548 108.827C100.213 107.851 98.3285 107.707 97.1497 109.005C97.0652 109.1 96.9236 108.977 96.9806 108.874Z" fill="black"/>
<path fill-rule="evenodd" clip-rule="evenodd" d="M143.152 128.274C141.732 127.694 140.465 126.727 139.538 125.492C139.216 125.063 139.133 124.61 139.2 124.195C139.276 123.729 139.552 123.306 139.928 123.023C140.305 122.738 140.777 122.598 141.233 122.67C141.63 122.732 142.024 122.949 142.337 123.399L142.402 123.489C142.953 124.235 143.67 124.846 144.488 125.24C145.276 125.62 146.158 125.798 147.07 125.695C148.808 125.498 150.005 124.558 151.278 123.282C151.436 123.121 151.594 122.954 151.752 122.786C151.852 122.632 151.992 122.534 152.146 122.482C152.317 122.425 152.511 122.428 152.689 122.49C152.86 122.55 153.013 122.663 153.116 122.814C153.213 122.958 153.269 123.135 153.251 123.338C153.134 124.661 152.443 125.842 151.461 126.769C150.37 127.798 148.924 128.511 147.563 128.76C146.064 129.036 144.536 128.839 143.152 128.274V128.274ZM148.271 107.866C149.866 108.836 152.297 111.098 150.581 113.503C148.56 115.624 145.652 113.192 144.219 112.093C142.89 111.241 141.396 113.432 142.629 114.427C152.986 122.098 157.19 108.12 149.078 106.725C148.184 106.572 147.853 107.566 148.271 107.866ZM129.711 98.9426C129.887 96.7538 133.219 96.2568 133.551 98.4227C133.847 100.363 133.498 102.145 132.624 103.892C131.79 105.561 129.692 104.782 129.533 103.263C129.32 101.226 129.601 100.304 129.711 98.9426ZM155.076 97.9736C155.541 97.3649 156.212 96.9494 157.015 97.1842C159.526 97.9182 158.786 101.484 157.904 103.22C157.425 104.163 155.876 104.402 155.176 103.572C154.035 102.218 153.489 99.5154 154.939 98.1822C154.979 98.1133 155.023 98.0438 155.076 97.9736ZM132.589 89.3651L132.986 89.2957C134.213 89.0834 135.738 88.8794 136.606 89.8662C137.067 90.3895 137.225 91.3622 136.606 91.8631C135.518 92.7444 134.314 92.4029 133.01 92.4775C131.935 92.5392 130.902 92.7171 129.867 93.0132C127.595 93.6627 125.744 94.8484 123.804 96.1503C123.55 96.3211 123.29 95.9954 123.411 95.7572C124.531 93.5627 126.701 91.7601 128.875 90.6613C130.036 90.0748 131.305 89.5883 132.589 89.3651ZM152.787 88.3821L153.091 88.4442C156.395 89.1351 160.687 90.515 162.251 93.7613C162.311 94.2203 162.248 94.3187 162.197 94.3829L162.18 94.4043C162.137 94.4592 162.104 94.5349 161.905 94.5974C161.85 94.5842 161.794 94.5703 161.738 94.5555C161.02 94.3675 160.453 94.1085 159.904 93.8398L159.308 93.5462C158.617 93.2073 157.92 92.8807 157.181 92.6396C155.605 92.1252 153.983 91.7628 152.337 91.5693C151.98 91.5274 151.636 91.4069 151.365 91.2004C151.108 91.0044 150.911 90.733 150.821 90.3722C150.705 89.9053 150.739 89.5518 150.989 89.1306C151.177 88.8143 151.447 88.5951 151.756 88.4692C152.071 88.3408 152.43 88.3106 152.787 88.3821Z" fill="black"/>
</svg>
