<svg width="240" height="324" viewBox="0 0 240 324" fill="none" xmlns="http://www.w3.org/2000/svg">
<path fill-rule="evenodd" clip-rule="evenodd" d="M192.796 271.476C192.283 266.714 191.967 261.919 191.786 257.133C191.605 252.353 191.842 247.514 191.946 242.731C192.158 233.003 192.502 223.252 191.728 213.538C190.996 204.358 189.317 195.243 186.666 186.422C185.375 182.126 184.015 177.658 181.892 173.689C179.757 169.698 176.375 167.04 172.661 164.603C168.706 162.009 164.783 159.365 160.844 156.746C157.537 154.548 151.586 151.989 148.873 149.05C146.018 145.958 145.481 138.293 143.58 134.63C141.729 131.062 136.488 128.734 132.452 128.734C125.772 128.734 120.711 128.393 115.219 134.574C112.478 137.658 114.659 140.776 111.786 143.737C109.145 146.458 102.392 149.255 98.988 150.834C94.9114 152.726 90.7319 154.395 86.4917 155.883C82.1664 157.4 77.7321 158.531 73.3826 159.964C69.2134 161.336 63.7694 166.994 60.5328 169.988C57.5237 172.772 56.7769 172.46 54.4893 175.841C49.4688 183.262 44.4427 190.768 40.4447 198.802C38.4533 202.804 36.525 207.014 35.8025 211.459C35.0318 216.2 35.7959 220.781 37.0458 225.371C38.3181 230.042 42.3581 234.489 43.6743 239.148C44.2809 241.295 42.1988 243.639 43.1565 245.662C43.6348 246.672 44.2371 247.572 44.9229 248.453C45.4513 249.131 47.5119 248.981 47.7785 249.811C48.0478 250.65 46.5571 252.39 46.5349 253.258C46.5034 254.5 46.454 255.742 46.4132 256.984L46.1724 264.328C46.0141 269.153 45.8559 273.979 45.6976 278.805C45.6459 280.38 45.5704 281.919 45.948 283.414C45.8117 283.287 45.6822 283.15 45.5639 282.995C45.2176 282.543 44.4833 282.926 44.7771 283.455C45.2677 284.338 45.9731 284.959 46.8019 285.406C47.7651 286.826 193.629 289.999 194.347 285.846C194.75 283.516 194.017 281.021 193.724 278.706C193.419 276.295 193.056 273.894 192.796 271.476Z" fill="white"/>
<path fill-rule="evenodd" clip-rule="evenodd" d="M44.6254 211.467C44.9823 210.445 46.6145 210.887 46.2552 211.917C44.4078 217.21 45.7183 222.971 47.7154 228.024C48.1162 229.038 46.481 229.473 46.0857 228.473C43.9849 223.158 42.6852 217.026 44.6254 211.467M57.012 241.704C62.2219 242.437 67.436 242.889 72.6818 243.255C72.9163 243.272 73.1191 243.236 73.2944 243.16C73.1381 245.563 73.0113 247.968 72.912 250.373C71.4818 250.333 70.0219 250.428 68.6043 250.39C66.7515 250.339 64.9008 250.246 63.0522 250.105C59.4733 249.834 55.9008 249.403 52.362 248.807C51.0395 248.585 49.3599 248.45 47.8536 248.01C46.4296 247.594 45.162 246.905 44.4965 245.607C43.9303 244.508 43.8268 243.162 43.8268 241.947C43.8268 241.109 43.9705 240.26 44.0571 239.416C44.1649 239.341 44.262 239.25 44.3402 239.148C45.912 239.645 47.543 239.994 49.1402 240.332C51.7409 240.885 54.3796 241.334 57.012 241.704M54.0735 222.161C54.1023 223.777 54.5491 225.244 55.4185 226.604C56.0066 227.525 54.5432 228.372 53.959 227.458C52.9356 225.856 52.4172 224.059 52.3834 222.161C52.364 221.071 54.0541 221.075 54.0735 222.161M187.622 239.784C188.327 239.824 189.037 239.848 189.744 239.885C190.369 240.419 191.233 240.693 192.022 240.523C192.049 240.591 192.074 240.668 192.096 240.756C192.236 241.3 192.305 241.883 192.386 242.437C192.466 242.982 192.527 243.532 192.57 244.081C192.591 244.358 192.724 244.983 192.555 245.225C192.403 245.442 192.067 245.423 191.834 245.451C191.209 245.518 190.575 245.55 189.946 245.603C188.756 245.706 187.567 245.81 186.379 245.913C185.215 246.015 183.937 245.983 182.798 246.29C182.604 244.005 182.427 241.72 182.262 239.433C184.026 239.694 185.87 239.687 187.622 239.784M39.7091 235.995C40.419 237.366 41.0739 238.715 42.4323 239.539C42.6098 239.645 42.8084 239.702 43.0112 239.717C42.8591 240.37 42.764 241.038 42.6795 241.655C42.4936 243.014 42.4535 244.419 42.7936 245.759C43.1253 247.063 43.6746 248.228 44.7521 249.063C45.2528 249.452 45.7999 249.747 46.3746 249.982C46.2774 250.255 46.2204 250.525 46.2499 250.823C46.1126 251.514 46.0218 252.218 45.9225 252.892C45.7049 254.389 45.4873 255.887 45.3161 257.392C44.9739 260.385 44.7056 263.377 44.4795 266.381C44.2535 269.375 44.0908 272.375 43.9556 275.376C43.8859 276.91 43.8246 278.444 43.7675 279.981C43.7105 281.56 43.4549 283.174 44.1521 284.639C44.714 285.823 46.6133 285.755 47.1964 284.639C47.9359 283.221 47.7183 281.536 47.7373 279.981C47.7563 278.516 47.7816 277.05 47.8133 275.585C47.8767 272.586 47.9697 269.589 48.0436 266.59C48.1154 263.663 48.2042 260.737 48.2633 257.81C48.2929 256.278 48.295 254.746 48.3035 253.213C48.3077 252.364 48.3436 251.457 48.2802 250.572C48.8084 250.696 49.3408 250.802 49.8668 250.91C53.883 251.734 57.9415 252.334 62.0253 252.706C64.0767 252.892 66.1344 253.023 68.1922 253.097C69.7049 253.152 71.2725 253.258 72.8084 253.201C72.688 256.87 72.633 260.541 72.6394 264.212C72.6436 266.86 72.6795 269.509 72.745 272.157C72.7809 273.55 72.8105 274.942 72.8528 276.335C72.8718 276.961 72.8718 277.593 72.914 278.216C72.9267 278.411 72.9542 278.599 72.9901 278.785C72.8506 279.18 72.7344 279.571 72.6394 279.937C72.1746 281.712 72.1746 283.418 72.3816 285.227C72.5591 286.761 73.8499 288.183 75.5549 287.645C75.8316 287.558 76.1084 287.467 76.383 287.374C78.8929 287.659 81.4175 287.725 83.9633 287.773C87.6837 287.845 91.4063 287.869 95.1288 287.888C102.43 287.926 109.734 287.945 117.037 287.966C131.714 288.008 146.391 288.048 161.068 288.09C165.141 288.103 169.214 288.114 173.287 288.127C175.396 288.133 177.5 288.135 179.606 288.215C180.589 288.253 181.573 288.306 182.556 288.321C183.694 288.34 184.702 288.012 185.79 287.714C186.405 287.543 186.648 286.926 186.517 286.404C187.501 286.638 188.695 286.14 189.031 285.03C189.276 284.225 189.185 283.352 188.82 282.606V282.604C188.114 278.146 187.218 273.71 186.515 269.251C185.744 264.366 185.002 259.472 184.349 254.568C183.859 250.865 183.456 253.49 183.107 249.771C184.626 249.889 186.344 249.426 187.848 249.229C188.927 249.09 190.015 248.978 191.097 248.83C191.017 249.921 191.04 251.032 191.011 252.078C190.953 254.156 190.979 256.225 191.032 258.303C191.133 262.312 191.359 259.979 191.72 263.971C192.086 267.993 192.534 272 193.077 276.004C193.356 278.064 193.653 280.123 193.968 282.179C194.114 283.139 194.264 284.096 194.418 285.056C194.602 286.186 194.661 287.258 195.508 288.107C196.153 288.752 197.469 288.697 197.896 287.799C198.437 286.664 198.191 285.692 197.991 284.5C197.828 283.542 197.672 282.585 197.518 281.628C197.188 279.575 196.875 277.521 196.582 275.465C196.015 271.502 195.481 267.532 195.003 263.559C194.522 259.554 194.023 261.894 193.55 257.889C193.311 255.868 193.072 253.852 192.794 251.838C192.652 250.802 192.563 249.699 192.377 248.631C192.437 248.623 192.496 248.612 192.555 248.602C193.839 248.367 194.936 247.642 195.259 246.319C195.568 245.053 195.2 243.597 194.94 242.354C194.718 241.296 194.518 239.945 193.837 239.038C196.237 235.98 197.798 232.131 198.793 228.432C199.878 224.401 200.332 220.194 200.428 216.028C200.54 211.203 200.176 206.405 199.349 201.687C199.33 200.687 199.284 199.688 199.21 198.689C198.483 188.891 195.432 177.295 185.761 172.716C185.722 172.698 185.682 172.681 185.642 172.664C184.884 171.757 183.937 170.941 183.172 170.178C181.818 168.825 180.403 167.532 178.903 166.34C175.932 163.979 172.675 162.094 169.288 160.397C165.863 158.679 162.388 157.066 159.041 155.191C156.126 153.555 153.502 151.586 151.011 149.362C148.212 146.862 146.22 143.491 145.438 139.811C145.398 139.619 145.113 139.672 145.108 139.856C144.903 146.6 149.454 152.56 154.691 156.33C160.953 160.835 168.515 162.967 174.865 167.334C176.444 168.418 177.92 169.642 179.325 170.941C177.172 170.721 174.982 170.861 172.964 171.457C172.17 171.408 171.371 171.394 170.575 171.355C168.753 171.264 166.93 171.18 165.107 171.1C161.391 170.935 157.672 170.785 153.954 170.654C146.659 170.396 139.362 170.201 132.065 170.073C117.401 169.813 102.718 169.762 88.0556 170.187C84.0795 170.301 63.1725 169.508 61.2373 169.732C64.083 167.268 67.2056 165.256 70.6387 163.601C74.9337 161.536 79.3725 160.158 83.9591 158.898C93.4049 156.305 103.214 153.805 110.773 147.217C112.651 145.579 114.32 143.696 115.687 141.61C116.993 139.619 118.444 137.07 118.48 134.642C118.506 132.917 116.106 132.289 115.252 133.767C114.722 134.682 114.46 135.686 114.027 136.645C113.596 137.596 113.084 138.514 112.516 139.391C111.399 141.116 110.013 142.654 108.504 144.043C105.289 147.006 101.393 149.176 97.3619 150.818C88.2098 154.545 78.1999 156.117 69.5274 161.029C65.733 163.178 62.1014 166.144 59.8218 169.927C59.4542 169.984 59.0887 170.051 58.7232 170.127C58.9957 169.783 59.2704 169.439 59.5471 169.096C59.7288 168.872 59.4478 168.576 59.226 168.775C54.914 172.613 50.9422 176.757 47.3422 181.276C43.8985 185.6 40.6873 190.132 38.414 195.196C34.3281 204.292 33.4281 214.697 35.5387 224.424C36.1133 227.074 36.9246 229.669 37.9577 232.178C38.4901 233.473 39.0668 234.75 39.7091 235.995" fill="black"/>
<path fill-rule="evenodd" clip-rule="evenodd" d="M169.778 127.834C168.941 126.595 166.924 117.604 165.636 116.221C165.733 110.91 167.201 92.5209 163.009 84.2545C163.891 83.3625 166.234 75.6789 165.636 72.7742C167.611 66.6911 154.924 57.0296 150.095 54.4188C127.654 42.3806 95.1356 55.6687 84.9299 77.9694C78.797 91.3996 78.684 106.436 77.9906 120.888C77.9087 123.981 77.6245 127.098 77.6277 130.188C78.0711 132.902 80.2229 135.667 78.5917 137.925C76.7898 139.171 73.148 142.209 74.7694 143.931C75.7197 144.723 77.2377 144.264 78.2689 145.025C78.7939 145.319 79.1213 145.962 79.7353 146.06C85.3436 145.847 89.3011 145.829 94.9268 145.602C97.3895 145.521 101.14 146.563 103.966 144.489C113.841 149.983 109.71 142.012 111.707 136.337C117.787 138.393 129.899 144.952 136.38 145.163C141.647 145.815 146.572 142.746 151.75 143.445C158.182 145.835 165.721 146.367 171.613 142.322C173.083 141.263 174.719 142.49 176.572 141.346C180.174 139.623 171.596 129.745 169.778 127.834Z" fill="white"/>
<path fill-rule="evenodd" clip-rule="evenodd" d="M162.428 83.5493C162.348 83.0904 162.98 82.7483 163.224 83.2132C165 86.5908 165.711 90.5025 166.34 94.2332C166.975 98.0033 167.395 101.789 167.419 105.616C167.436 108.56 167.169 111.538 166.667 114.484L166.728 114.694V114.694C166.841 115.079 166.955 115.464 167.07 115.848L167.243 116.425C167.578 117.532 167.895 118.644 168.239 119.748C168.958 122.053 169.715 124.364 170.641 126.595C171.545 128.771 172.645 130.87 173.952 132.832C175.212 134.723 177.211 136.322 178.099 138.422C178.408 139.154 177.951 140.122 177.096 140.005C177.041 140.072 176.956 140.121 176.841 140.131C176.178 140.189 175.556 140.133 174.894 140.071C174.524 140.037 174.525 139.531 174.894 139.497C175.175 139.47 175.449 139.447 175.723 139.431C173.83 138.309 172.479 136.118 171.399 134.324C170.012 132.02 168.964 129.502 168.109 126.955C167.232 124.341 166.611 121.672 166.111 118.962C166.054 118.65 166 118.338 165.947 118.025C165.316 120.708 164.504 123.342 163.541 125.873L163.406 126.225C161.187 131.981 158.181 137.792 153.181 141.596C152.954 141.769 152.723 141.933 152.489 142.093L152.773 142.256C153.057 142.418 153.335 142.573 153.608 142.7C154.618 143.172 155.715 143.531 156.8 143.786C159.041 144.312 161.394 144.161 163.68 144.235C164.429 144.259 164.856 145.383 164.09 145.749C161.565 146.951 158.838 146.696 156.231 145.85C154.942 145.431 153.732 144.844 152.612 144.079C152.149 143.762 151.612 143.372 151.158 142.92C146.158 145.719 139.943 146.032 134.378 145.031C131.486 144.511 128.684 143.561 126.218 141.936C123.846 140.373 122.156 138.394 120.949 135.831C120.842 135.604 121.139 135.321 121.322 135.543C125.113 140.149 131.638 142.071 137.377 142.437C140.44 142.632 143.573 142.47 146.517 141.553C149.31 140.683 151.707 139.089 153.708 136.968C157.764 132.67 160.195 126.823 161.94 121.258C163.839 115.204 164.743 108.835 164.93 102.5C165.024 99.29 164.905 96.0532 164.401 92.8789C163.902 89.7309 162.974 86.684 162.428 83.5493ZM105.586 56.2786C105.854 56.1421 106.044 56.4974 105.816 56.6722C101.088 60.2992 96.8544 64.8981 93.4277 69.7657C87.108 78.7433 83.0551 89.132 81.1887 99.9269C80.0868 106.302 79.799 112.773 79.9091 119.233C79.9527 121.799 80.0992 124.358 80.2622 126.917L80.4461 129.754C80.5316 131.075 80.6029 132.386 80.5478 133.714L80.5327 134.02C80.4453 135.566 80.5972 137.124 80.2097 138.631C80.0109 139.404 78.921 139.526 78.5263 138.851C78.449 138.719 78.3768 138.583 78.3066 138.445C77.3817 139.954 76.1838 141.303 74.8547 142.508C75.49 142.373 76.1314 142.287 76.7899 142.366C77.8338 142.491 78.7701 142.894 79.4327 143.601C80.0904 143.304 80.7666 143.1 81.5443 143.096C82.117 143.093 82.5466 143.77 82.2197 144.274C81.5677 145.278 80.658 145.841 79.6243 146.398C78.8917 146.792 78.0174 146.455 77.7468 145.675L77.7313 145.627C77.4269 144.641 75.8077 144.8 75.0438 144.953L74.819 144.999C73.397 145.295 72.0083 145.674 70.5597 145.283C69.6252 145.031 69.381 143.624 70.2818 143.156C73.1276 141.681 75.5166 139.7 77.9718 137.71C77.4297 136.38 77.1218 134.895 76.7669 133.543C76.2673 131.64 76.1213 129.592 75.9408 127.637C75.598 123.921 75.4672 120.164 75.5039 116.433C75.6284 103.83 77.7829 91.1888 83.2862 79.777C85.6972 74.7779 88.8645 70.1521 92.6084 66.0576C96.3301 61.9872 100.677 58.773 105.586 56.2786ZM101.18 117.996C101.034 117.793 101.319 117.526 101.519 117.657C105.846 120.5 108.848 124.818 110.786 129.561C112.704 134.256 113.881 140.008 111.99 144.904C111.689 145.684 110.247 145.974 110.099 144.904C109.44 140.128 109.338 135.346 107.888 130.703C106.45 126.1 103.991 121.886 101.18 117.996ZM97.825 133.5C97.8486 133.415 97.9864 133.43 97.9804 133.521C97.8721 135.205 97.7985 136.91 97.5869 138.584C97.484 139.398 97.3479 140.207 97.2321 141.019C97.1134 141.852 97.1314 142.692 96.6474 143.403C96.0059 144.346 94.3019 144.081 94.3591 142.784C94.3986 141.888 94.8097 141.314 95.1949 140.528C95.4419 140.025 95.6572 139.504 95.8648 138.981L96.1733 138.197C96.7864 136.641 97.3731 135.111 97.825 133.5ZM90.0766 129.039C90.1028 128.906 90.3164 128.938 90.3101 129.07C90.1945 131.454 89.9258 133.811 89.505 136.159C89.3131 137.23 89.0893 138.295 88.8527 139.356L88.7505 139.811C88.4974 140.929 88.3341 142.243 87.7671 143.242C87.2005 144.24 85.8551 143.515 86.0294 142.509C86.2331 141.334 86.9537 140.153 87.3726 139.025C87.7593 137.983 88.0973 136.923 88.4131 135.858C89.078 133.616 89.6233 131.333 90.0766 129.039ZM104.506 135.656L104.556 135.604C104.753 135.39 105.047 135.533 105.141 135.759C105.526 136.685 105.333 137.777 105.306 138.76L105.3 138.974C105.28 139.97 105.294 140.902 104.843 141.822C104.295 142.938 102.851 142.245 102.739 141.252C102.617 140.168 103.129 139.107 103.46 138.092C103.67 137.447 103.823 136.777 104.143 136.191C103.87 136.238 103.597 136.333 103.347 136.401C103.235 136.431 103.193 136.267 103.3 136.229C103.713 136.082 104.179 135.972 104.506 135.656V135.656ZM162.11 138.942C161.978 138.794 162.142 138.597 162.314 138.677C164.371 139.639 166.296 140.264 168.566 140.469C169.55 140.558 169.556 142.104 168.566 142.014C166.197 141.801 163.713 140.738 162.11 138.942ZM89.7135 106.459C91.5251 102.382 97.2564 98.7657 101.1 102.557C101.172 102.628 101.098 102.782 100.994 102.739C98.6032 101.748 95.6768 103.008 94.0223 104.811C92.7097 106.241 91.9211 108.077 91.7645 110.013C91.608 111.95 92.0708 113.972 93.3568 115.47C94.0314 116.256 94.9424 117 96.0144 117.094C97.0967 117.19 97.9988 116.427 99.022 116.22C99.7933 116.064 100.376 116.548 100.451 117.309C100.618 118.988 98.9472 120.114 97.4989 120.388C95.9411 120.682 94.3511 120.361 93.0087 119.516C88.673 116.788 87.7377 110.905 89.7135 106.459ZM130.392 66.5005C131.18 65.7472 132.52 66.4961 132.229 67.5706C131.611 69.8574 130.297 71.7902 128.842 73.6247C127.441 75.3897 125.941 77.0858 124.333 78.6643C122.735 80.2326 120.999 81.6837 119.175 82.9799L118.626 83.3692C117.333 84.281 115.963 85.2031 114.516 85.8598C114.166 88.8715 113.483 91.8431 112.448 94.6881C111.452 97.4276 110.185 100.075 108.649 102.553L108.428 102.908C107.017 105.17 105.32 107.699 102.925 108.94C102.853 108.977 102.781 109 102.71 109.013C103.246 109.371 103.698 109.82 103.967 110.466C104.262 111.173 103.646 111.841 103.055 112.074C101.805 112.568 100.586 111.732 99.4631 110.84C99.4155 110.947 99.3707 111.055 99.3323 111.164C99.0811 111.876 99.0071 112.604 98.3594 113.077C98.0516 113.301 97.6724 113.1 97.4786 112.846C96.8435 112.011 97.501 110.874 98.0594 110.191C98.1367 110.097 98.2166 110.008 98.2988 109.922C98.0628 109.748 97.8325 109.594 97.6094 109.476C96.2976 108.781 94.3531 108.658 93.5978 110.196C93.54 110.314 93.3581 110.253 93.3581 110.131C93.36 108.242 95.295 107.215 96.9741 107.076C98.201 106.974 99.3876 107.404 100.492 107.905L100.698 108C101.109 108.191 101.532 108.371 101.937 108.573C101.872 108.399 101.873 108.194 101.976 107.991C103.246 105.51 105.427 103.493 107 101.195C108.559 98.9151 109.898 96.4755 110.967 93.9281C112.004 91.4555 112.817 88.9053 113.385 86.3042C113.198 86.3429 112.987 86.1761 113 85.9806C113.032 85.5076 113.263 85.0816 113.67 84.9C114.117 82.4534 114.346 79.9654 114.332 77.4573C114.331 77.2629 114.613 77.2698 114.629 77.4573C114.827 79.6873 114.843 81.939 114.677 84.1776C115.734 83.205 116.848 82.2803 117.866 81.2819C119.397 79.7796 120.878 78.2372 122.307 76.6375C123.764 75.0054 125.142 73.3134 126.402 71.523L127.062 70.5841C128.075 69.1448 129.117 67.7204 130.392 66.5005ZM128.404 50.4324C137.099 49.8894 146.385 50.9584 154.195 55.0415C158.484 57.2837 161.8 60.6727 164.169 64.8902C165.583 67.4087 166.656 70.1974 167.063 73.0646C167.48 76.0106 166.99 78.6375 165.11 80.9793C164.363 81.9092 163.105 80.8704 163.289 79.9189C164.415 74.0975 162.589 68.3458 159.351 63.5264C154.652 56.5328 146.446 53.4262 138.457 52.0403C134.531 51.3598 130.55 51.0753 126.568 51.2137C123.531 51.3194 120.417 51.6024 117.536 52.6243C117.414 52.6674 117.366 52.478 117.483 52.4334C120.92 51.1203 124.756 50.6602 128.404 50.4324ZM141.299 63.5959C141.747 63.3121 142.295 63.6033 142.448 64.0638C142.991 65.6874 141.854 67.8324 141.093 69.2375C140.233 70.8275 139.126 72.3141 137.983 73.7105C135.696 76.5033 132.691 78.8336 129.393 80.2983C129.191 80.3881 128.956 80.1442 129.141 79.9717C131.693 77.5947 134.006 75.0462 136.009 72.1873C136.993 70.7824 137.814 69.3005 138.598 67.7781C139.299 66.4157 139.959 64.4459 141.299 63.5959ZM155.922 65.5085C156.209 64.5093 157.838 64.6794 157.77 65.7588C157.596 68.5471 156.281 71.346 154.852 73.7091C153.381 76.1424 151.518 78.3109 149.382 80.1836C149.277 80.276 149.133 80.1338 149.228 80.0296C151.071 78.0116 152.559 75.7129 153.661 73.2114C154.762 70.7134 155.178 68.1071 155.922 65.5085ZM147.825 65.0571C148.137 64.1882 149.628 64.2527 149.537 65.2889C149.285 68.1375 147.614 71.1228 146.067 73.4756C144.424 75.9718 142.328 78.1709 139.985 80.0179C139.897 80.087 139.773 79.9725 139.859 79.8917C141.963 77.9082 143.67 75.617 145.021 73.0613C145.71 71.7573 146.289 70.3994 146.746 68.9966C147.168 67.6989 147.366 66.3361 147.825 65.0571Z" fill="black"/>
<path fill-rule="evenodd" clip-rule="evenodd" d="M148.318 128.112C146.762 128.563 145.092 128.603 143.505 128.137C142.066 127.715 140.589 126.785 139.53 125.555C138.589 124.462 137.98 123.134 138.004 121.717C138.006 121.555 138.064 121.42 138.153 121.315C138.249 121.202 138.383 121.124 138.526 121.091C138.674 121.056 138.83 121.068 138.962 121.129C139.083 121.183 139.186 121.276 139.25 121.411C139.413 121.625 139.575 121.836 139.738 122.041C141.046 123.657 142.313 124.865 144.281 125.299C145.349 125.534 146.415 125.43 147.393 125.071C148.441 124.687 149.387 124.012 150.129 123.148C150.465 122.757 150.86 122.598 151.247 122.595C151.686 122.592 152.12 122.796 152.446 123.122C152.767 123.442 152.982 123.877 153.002 124.333C153.019 124.732 152.888 125.15 152.542 125.522C151.4 126.749 149.92 127.648 148.318 128.112ZM148.271 107.866C149.866 108.836 152.297 111.098 150.581 113.503C148.561 115.624 145.652 113.192 144.219 112.093C142.89 111.241 141.396 113.432 142.629 114.427C152.987 122.098 157.19 108.12 149.078 106.725C148.185 106.572 147.853 107.566 148.271 107.866ZM133.347 103.597C132.834 103.269 132.231 103.157 131.563 103.461C131.04 103.699 130.124 104.491 129.486 105.532C129.05 106.245 128.741 107.081 128.805 107.951C128.82 108.154 128.746 108.303 128.628 108.413C128.535 108.5 128.4 108.564 128.242 108.584C128.108 108.601 127.958 108.586 127.837 108.547C127.605 108.475 127.482 108.324 127.435 108.202C126.989 107.015 127.181 105.692 127.682 104.498C128.357 102.886 129.583 101.536 130.387 101.101C131.762 100.356 133.383 100.322 134.76 101.081C135.932 101.727 136.665 102.77 137.394 103.833C137.549 104.059 137.703 104.283 137.862 104.503C138.18 104.945 138.212 105.383 138.089 105.758C137.952 106.175 137.603 106.526 137.168 106.709C136.765 106.879 136.298 106.903 135.884 106.729C135.535 106.581 135.214 106.294 135.011 105.806C134.669 104.985 134.1 104.079 133.347 103.597V103.597ZM159.389 105.424C159.037 105.607 158.763 105.663 158.373 105.546C158.158 105.481 157.945 105.357 157.778 105.19C157.613 105.025 157.494 104.819 157.447 104.591C157.333 104.029 157.026 103.502 156.587 103.159C156.212 102.865 155.739 102.71 155.214 102.797C154.648 102.892 154.109 103.255 153.737 103.684C153.613 103.827 153.515 103.99 153.418 104.152C153.234 104.454 153.056 104.735 152.804 104.957C152.708 105.042 152.564 105.1 152.424 105.1C152.368 105.1 152.31 105.091 152.255 105.074C151.691 104.508 151.583 104.078 151.601 103.653C151.62 103.206 151.796 102.754 152.081 102.332C152.748 101.343 154.014 100.531 154.869 100.347C156.04 100.096 157.202 100.398 158.134 101.052C159.093 101.725 159.804 102.77 160.025 103.947C160.078 104.231 160.056 104.537 159.948 104.802C159.842 105.062 159.659 105.284 159.389 105.424ZM135.928 93.0472C135.226 93.7319 134.394 93.838 133.553 93.9323C133.086 93.9852 132.713 94.0278 132.346 94.1107C131.337 94.3386 130.339 94.6818 129.429 95.176C128.478 95.6928 127.441 96.3159 126.696 97.1142C126.518 97.3042 126.351 97.5035 126.184 97.7032C126.031 97.8854 125.884 98.0608 125.729 98.2299C125.551 98.4241 125.382 98.6276 125.214 98.8307C125.11 99.002 125.089 99.0441 125.068 99.088C125.037 99.1539 125 99.2276 124.958 99.3068C124.901 99.4151 124.834 99.5338 124.764 99.6413C124.647 99.8379 124.584 99.8921 124.53 99.9163C124.44 99.9564 124.354 99.9761 124.271 99.9654C124.194 99.9554 124.121 99.9181 124.048 99.857C123.688 99.5522 123.581 99.0519 123.592 98.5209C123.609 97.7151 123.906 96.8229 124.18 96.2744C124.817 95.0001 125.7 93.6753 126.762 92.7241C127.974 91.6384 129.3 90.8165 130.822 90.2501C131.769 89.898 132.864 89.5749 133.895 89.6157C134.637 89.6451 135.346 89.8657 135.931 90.4169C136.29 90.7552 136.463 91.2364 136.463 91.7172C136.463 92.2077 136.284 92.701 135.928 93.0472ZM160.817 99.3169C160.773 99.3902 160.711 99.4407 160.642 99.471C160.57 99.5028 160.49 99.5119 160.412 99.4989C160.335 99.4859 160.262 99.451 160.204 99.3977C160.149 99.3466 160.106 99.2789 160.087 99.1958C159.621 97.1467 158.715 95.6221 156.783 94.6389C155.832 94.1553 154.738 93.848 153.703 93.603C153.403 93.5318 153.085 93.4857 152.765 93.4389C151.762 93.2924 150.751 93.1246 150.097 92.3135C149.703 91.8249 149.538 91.2001 149.632 90.6286C149.72 90.0906 150.034 89.5972 150.605 89.3015C152.028 88.5658 153.795 89.2878 155.231 89.9027C155.338 89.9483 155.443 89.9931 155.545 90.0363C156.95 90.6295 158.231 91.4124 159.284 92.5321C160.119 93.4204 160.894 94.7335 161.205 96.0844C161.465 97.2083 161.404 98.3556 160.817 99.3169Z" fill="black"/>
</svg>
