<svg width="327" height="442" viewBox="0 0 327 442" fill="none" xmlns="http://www.w3.org/2000/svg">
<path fill-rule="evenodd" clip-rule="evenodd" d="M265.193 343.688C264.032 337.125 262.969 330.544 262.002 323.949C261.543 320.818 261.096 317.684 260.693 314.545C260.412 312.345 259.982 309.83 261.476 308.201C263.578 305.909 265.488 303.946 265.745 300.662C265.988 297.572 264.944 294.204 264.292 291.204C262.924 284.914 261.221 278.702 259.34 272.548C257.428 266.297 255.332 260.104 253.205 253.923C251.218 248.143 249.306 242.312 246.717 236.767C241.803 226.245 233.49 218.453 223.216 213.249C220.661 211.955 215.449 207.336 212.78 206.302C210.325 205.351 210.334 208.128 207.919 207.082C205.988 206.245 204.19 205.13 203.109 203.263C201.935 201.235 198.991 198.399 198.543 196.039C197.593 191.036 198.622 186.778 195.057 183.013C191.893 179.669 187.639 177.379 183.238 176.149C173.556 173.444 160.643 175.335 154.801 184.347C152.011 188.65 151.036 193.852 147.272 197.364C143.984 200.431 144.72 202.528 140.462 204.108C140.221 204.198 133.684 202.794 133.443 202.883C128.785 201.885 124.333 204.68 120.059 206.302C113.688 208.719 107.623 211.866 101.924 215.606C90.4334 223.147 80.5918 232.939 72.4781 244.02C64.2973 255.193 57.9499 267.715 53.4303 280.803C52.3327 283.982 51.3468 287.2 50.4772 290.449C49.9905 292.268 49.4703 294.154 50.063 296.015C50.5478 297.538 51.6261 298.673 52.8923 299.586C54.6088 300.825 58.0518 301.63 57.9847 304.122C57.9335 306.017 57.2919 308.01 56.9787 309.882C56.6059 312.112 56.2996 314.354 55.9934 316.593C54.6001 326.786 53.5158 337.035 53.0362 347.314C52.5642 357.435 52.1724 367.762 52.8733 377.88C52.9197 378.547 53.1183 379.16 53.4387 379.677C53.1396 379.792 53.1166 380.35 53.4887 380.429C53.7495 380.485 54.0098 380.54 54.2706 380.595C54.8123 381.006 55.4879 381.258 56.2654 381.282C56.7924 381.299 57.3192 381.323 57.8457 381.35C63.4015 382.513 68.9565 383.612 74.5849 384.444C81.4265 385.455 88.2883 386.28 95.1715 386.95C109.315 388.327 123.347 387.871 137.51 387.128C151.65 386.387 165.782 386.214 179.937 386.582C194.105 386.952 208.267 387.569 222.438 387.822C238.269 388.103 254.077 387.67 269.863 386.41C272.027 386.237 273.366 384.512 272.939 382.359C270.382 369.459 267.483 356.644 265.193 343.688Z" fill="white"/>
<path fill-rule="evenodd" clip-rule="evenodd" d="M129.026 202.566C130.49 202.502 131.982 202.739 133.443 202.883C133.57 202.896 133.619 203.092 133.475 203.122C130.861 203.669 128.276 204.418 125.709 205.177L124.61 205.503C121.715 206.361 118.905 207.246 116.102 208.39C110.517 210.67 105.212 213.748 100.33 217.283C81.5294 230.898 67.9226 251.512 59.336 272.854C57.0041 278.65 55.0283 284.59 53.4279 290.63C53.0387 292.099 52.6725 293.575 52.3254 295.055C52.2235 295.488 51.7793 296.6 52.0228 297.044C52.2382 297.436 53.0752 297.679 53.4641 297.883L54.777 298.565C57.338 299.887 61.604 302.06 62.0318 302.272L62.6989 302.601C73.6116 307.959 85.2717 312.503 97.5518 312.818L97.648 311.767V311.767C98.1955 305.96 98.914 300.122 100.482 294.493C100.567 294.191 100.951 294.293 100.986 294.562C101.86 301.225 101.58 307.941 101.275 314.635C100.736 326.491 100.019 338.341 99.382 350.193C99.0631 356.122 98.6509 362.047 98.2787 367.972C97.9059 373.91 97.7853 379.99 96.9341 385.878C96.7444 387.191 95.2096 387.905 94.0472 387.766C92.7611 387.613 91.7718 386.478 91.7657 385.178C91.7502 381.747 92.1805 378.276 92.4197 374.854C92.6468 371.603 92.8906 368.354 93.1405 365.104C94.0536 353.245 95.1039 341.4 96.0754 329.546C96.4197 325.342 96.7916 321.141 97.1745 316.941C84.1656 316.521 72.0122 311.695 60.4181 306.056C60.2502 309.872 59.8449 313.682 59.4526 317.483C58.3573 328.089 57.3916 338.691 56.6688 349.33C56.3038 354.704 56.0381 360.084 55.8067 365.465C55.693 368.109 55.6003 370.754 55.5292 373.4C55.5054 374.282 55.4839 375.164 55.4649 376.046L55.4253 378.067C55.393 379.347 55.263 380.533 54.1875 381.465C53.0951 382.412 51.6196 382.462 50.5384 381.465C49.0911 380.13 49.347 378.311 49.3899 376.519C49.4256 375.006 49.4684 373.494 49.5182 371.983C49.6181 368.959 49.7456 365.936 49.9008 362.915C50.4437 352.352 51.5285 341.831 52.9462 331.353L53.4996 327.308C54.5331 319.788 55.6677 312.098 57.9779 304.854C57.0784 304.406 56.1814 303.955 55.288 303.502C53.703 302.698 52.0643 301.943 50.5237 301.056C49.3015 300.353 48.2474 299.387 47.9071 297.963C47.5277 296.375 48.1079 294.639 48.4934 293.091L48.5269 292.955C48.9048 291.396 49.3119 289.843 49.7413 288.298C51.4828 282.03 53.6363 275.884 56.1564 269.889C61.2024 257.885 67.7157 246.482 75.6716 236.171C82.8331 226.89 91.2931 218.473 101.208 212.16C106.056 209.074 111.222 206.54 116.685 204.748C119.238 203.911 122.017 203.183 124.69 202.883C126.132 202.722 127.577 202.629 129.026 202.566ZM154.965 183.545C156.705 181.674 160.161 183.61 159.326 186.088C157.361 191.918 154.232 197.235 149.349 201.066C144.759 204.667 139.285 207.006 133.391 206.507C133.345 206.503 133.306 206.491 133.271 206.475L133.779 207.165C137.767 212.568 141.974 217.897 147.045 222.314C157.377 231.313 171.445 236.166 185.028 232.714C195.716 229.997 205.131 221.532 207.9 210.745C207.503 210.923 207.032 210.984 206.514 210.871C204.298 210.389 202.105 208.055 200.676 206.382C199.13 204.571 197.923 202.616 197.038 200.407C195.419 196.363 194.899 191.156 197.111 187.238C197.383 186.755 198.013 187.026 198.066 187.498L198.15 188.233C198.577 191.905 199.108 195.456 200.836 198.803C201.682 200.441 202.695 202.039 203.929 203.411C204.59 204.144 205.306 204.846 206.079 205.461C206.832 206.06 207.743 206.494 208.418 207.182L208.542 207.314L208.545 207.29C208.716 205.837 209.734 205.196 210.729 205.236C211.693 205.275 212.825 205.7 213.263 205.903L213.305 205.923C220.026 209.155 226.217 213.368 232.043 218.042C244.092 227.707 253.119 240.343 257.493 255.223C259.64 262.526 260.872 270.051 262.172 277.541L262.972 282.13C264.186 289.044 265.542 296.095 268.282 302.527C268.99 304.191 268.444 305.751 266.706 306.405C264.536 307.222 262.359 308.014 260.177 308.795C261.248 313.398 261.901 318.159 262.704 322.785C264.41 332.616 266.5 342.385 268.292 352.204C269.208 357.224 270.035 362.261 270.95 367.282C271.391 369.7 271.851 372.114 272.298 374.531C272.539 375.834 272.758 377.141 272.988 378.446L273.028 378.663C273.16 379.351 273.325 380.063 273.136 380.752C272.92 381.538 272.308 382.093 271.762 382.656C271.312 383.12 270.661 383.123 270.11 382.87L269.929 382.786C268.944 382.325 268.173 381.865 267.824 380.752C267.603 380.048 267.523 379.254 267.378 378.529C267.101 377.137 266.838 375.745 266.59 374.348C266.094 371.553 265.609 368.756 265.136 365.957L264.694 363.336C263.177 354.303 261.736 345.215 261.008 336.087C260.685 332.037 260.342 327.991 259.997 323.944L259.737 320.909C259.409 317.067 259.008 313.128 258.952 309.234L257.647 309.698V309.698L251.283 311.952V311.952C249.705 312.51 247.695 313.655 245.997 313.447C245.166 313.344 244.532 313.082 244.043 312.606C244.629 320.89 245.422 329.16 246.479 337.388C247.441 344.875 248.508 352.351 249.767 359.794C250.391 363.479 251.032 367.161 251.728 370.833C252.076 372.67 252.436 374.503 252.806 376.335C252.99 377.249 253.21 378.164 253.354 379.086C253.519 380.141 253.228 380.79 252.64 381.658C252.156 382.371 251.19 382.738 250.406 382.245C249.368 381.593 248.826 381.028 248.521 379.84C248.243 378.76 248.075 377.634 247.86 376.541C247.464 374.523 247.081 372.503 246.711 370.48C245.937 366.25 245.224 362.009 244.587 357.756C242.344 342.772 240.92 327.663 240.201 312.529C239.846 305.062 239.736 297.589 239.799 290.114C239.832 286.283 239.956 282.441 240.227 278.619C240.501 274.751 241.071 270.959 241.58 267.128C241.598 266.993 241.788 266.985 241.796 267.128C242.037 271.424 242.414 275.714 242.6 280.021C242.776 284.13 242.854 288.246 242.994 292.357C243.179 297.761 243.435 303.168 243.773 308.571C244.387 307.899 245.311 307.511 246.237 307.663C247.577 307.381 249.019 306.677 250.297 306.249L255.114 304.637V304.637C257.646 303.79 260.179 302.949 262.72 302.133C260.448 294.477 258.891 286.707 257.563 278.824L256.97 275.278C255.797 268.3 254.532 261.318 252.407 254.56C250.173 247.455 246.829 240.85 242.395 234.868C238.023 228.972 232.704 223.781 227.228 218.926C222.54 214.77 217.525 211.017 212.743 206.974C212.793 207.242 212.804 207.537 212.76 207.861C211.743 215.314 207.861 222.255 202.452 227.418C191.584 237.789 175.497 239.941 161.587 235.077C148.132 230.373 136.236 219.232 132.033 205.445C131.961 205.209 132.276 205.115 132.403 205.289C132.636 205.609 132.871 205.929 133.105 206.249C133.089 206.122 133.155 205.983 133.312 205.923C138.216 204.026 143.031 201.336 146.707 197.531C148.499 195.676 150.062 193.575 151.297 191.309C151.888 190.223 152.419 189.099 152.843 187.938L152.95 187.637C153.464 186.182 153.893 184.698 154.965 183.545Z" fill="black"/>
<path fill-rule="evenodd" clip-rule="evenodd" d="M126.647 81.4227C128.14 79.8182 130.049 78.6228 132.136 78.2408C130.229 79.1954 128.364 80.1904 126.647 81.4227ZM123.723 95.2576C123.459 94.0348 123.282 92.8002 123.226 91.5659C123.56 92.074 124.092 92.4133 124.691 92.5886C124.304 93.4556 123.976 94.3488 123.723 95.2576ZM223.614 114.429C221.891 107.245 213.851 93.4265 211.951 90.7669C209.888 84.1813 221.141 78.8999 215.021 73.7501C212.25 71.4265 208.588 70.6042 205.153 69.7802C181.368 64.0587 155.813 66.9443 133.753 77.4655C130.398 76.7582 126.902 78.1404 124.461 80.5681C112.998 92.1091 128.621 112.932 132.037 125.943C137.898 140.451 125.824 142.891 127.119 155.166C128.125 161.507 134.538 163.183 139.949 164.142C140.816 164.345 141.976 164.376 142.256 165.294C143.132 170.654 146.138 175.762 150.174 179.229C149.821 180.276 150.09 181.548 151.334 182.467C162.609 190.86 176.825 195.06 190.887 194.305C207.646 193.405 216.312 183.784 218.403 181.307C229.966 165.666 228.584 145.029 226.226 126.39C224.583 113.405 226.666 127.156 223.614 114.429Z" fill="white"/>
<path fill-rule="evenodd" clip-rule="evenodd" d="M171.94 54.6492C172.467 53 173.958 52.0082 175.665 52.2129C177.176 52.3917 178.794 53.8938 178.61 55.5517C178.575 55.8717 178.529 56.1716 178.475 56.4541L178.482 56.4567V56.4567L178.489 56.457L178.452 56.5666C178.339 57.0942 178.184 57.5671 177.954 58.014C177.66 58.8703 177.378 59.7295 177.099 60.5916C177.502 60.5743 177.913 60.5973 178.331 60.6752C178.762 59.568 179.197 58.4637 179.629 57.3537C180.092 56.1687 180.418 54.6463 181.333 53.7295C182.505 52.5589 184.537 52.3167 185.964 53.1528C187.473 54.0351 188.011 55.6036 187.683 57.2845C187.516 58.1419 186.944 58.7386 186.237 59.1135L186.16 59.1528L185.616 60.4445C185.783 60.3724 185.956 60.3061 186.143 60.2514C186.437 60.1649 186.724 60.1101 187.007 60.087C187.784 58.6771 188.639 57.3076 189.522 55.964C190.538 54.4186 192.525 53.7612 194.191 54.7386C195.682 55.6122 196.483 57.9073 195.415 59.4152C194.603 60.5599 193.834 61.7276 193.077 62.9068C193.207 62.9299 193.336 62.9587 193.46 62.9962C193.518 62.9183 193.578 62.8405 193.641 62.7627C194.468 61.7362 195.429 60.9664 196.416 60.113C197.34 59.3114 197.766 58.0514 198.981 57.4431C200.51 56.679 202.352 57.0452 203.262 58.5675C205.213 61.8285 201.937 64.21 199.842 66.1851C201.664 65.0462 203.561 64.0053 205.507 63.1058C206.601 62.6012 207.712 62.1139 208.84 61.693C210.513 61.0702 211.865 61.2694 213.238 62.4282C213.852 62.9472 214.157 64.0806 213.875 64.8357C213.328 66.2831 212.464 67.1625 210.95 67.5805C209.885 67.8746 208.794 68.0736 207.729 68.3821C205.944 68.8953 204.211 69.521 202.53 70.3023C202.651 70.3773 202.766 70.458 202.873 70.5503C204.128 70.1437 205.406 69.792 206.69 69.4921C208.819 68.9921 210.986 68.6542 213.163 68.4428L213.886 68.3754C216.495 68.1246 219.633 67.6617 221.235 70.1639C221.762 70.9885 221.819 72.3494 221.235 73.1654C220.118 74.7338 219.007 75.0452 217.159 75.0741C218.978 75.2672 220.795 75.5066 222.602 75.7862C223.848 75.9765 225.094 76.1922 226.335 76.4315L226.955 76.5532C228.466 76.8559 230.153 77.0318 231.451 77.9083C234.283 79.8228 232.953 83.5508 229.816 83.9487C228.299 84.139 226.615 83.496 225.127 83.1961C223.682 82.9049 222.231 82.6483 220.774 82.4234C220.02 82.3052 219.266 82.2014 218.509 82.1063C220.049 82.3283 221.578 82.6426 223.066 83.0866L223.479 83.2115C226.356 84.0898 230.24 85.4886 231.137 88.5676C231.681 90.4388 230.193 92.0707 228.391 92.1803C226.716 92.2812 225.32 91.2807 223.898 90.5426C222.861 90.0063 221.808 89.6056 220.691 89.2625C219.537 88.9078 218.359 88.6137 217.173 88.3744C218.176 88.9275 219.152 89.5353 220.089 90.2153L220.519 90.534C223.01 92.3926 226.807 95.2702 225.93 98.7541C225.654 99.8526 224.43 100.902 223.256 100.79C220.199 100.504 218.512 97.2433 216.206 95.496C215.605 95.0405 214.945 94.5907 214.255 94.1524C217.749 98.3274 220.53 103.154 222.645 108.139C227.295 119.106 228.722 129.263 228.756 141.055L228.757 141.42C228.762 147.925 228.616 154.548 227.982 161.023C227.395 167.006 226.318 172.911 223.61 178.329C219.07 187.414 210.225 194.489 200.469 197.182C189.614 200.181 177.481 197.836 168.59 190.917C166.321 189.152 169.33 185.321 171.647 186.949C180.901 193.451 192.87 195.51 203.492 191.11C211.917 187.621 218.702 180.116 221.578 171.475C223.408 165.978 223.941 160.116 224.594 154.387L224.637 154.006C225.328 148.014 225.728 141.982 225.723 135.951C225.714 124.749 224.108 115.529 219.188 105.368C216.874 100.582 213.872 96.1566 210.285 92.2726C209.197 92.4946 208.04 92.1832 206.94 92.065C206.379 92.0044 205.818 91.9468 205.256 91.8949C205.83 92.2662 206.392 92.6523 206.945 93.0475L207.67 93.5711C209.939 95.1986 212.817 97.0523 212.234 100.199C212.076 101.049 211.229 101.83 210.409 102.024C207.435 102.733 205.392 99.8382 203.382 98.1198C201.635 96.6262 199.807 95.2884 197.945 93.9477C197.522 93.645 197.096 93.3422 196.667 93.0424C197.07 93.5129 197.462 93.9909 197.844 94.4732L198.409 95.1909C200.12 97.3347 202.586 100.121 201.062 102.9C200.631 103.684 199.709 104.206 198.817 104.189C195.749 104.126 194.528 100.637 193.089 98.434C191.851 96.5455 190.507 94.7666 189.116 92.9876C188.734 92.5003 188.348 92.0131 187.956 91.5258C181.511 91.8603 175.089 92.7137 168.78 94.0775C164.445 95.0145 160.182 96.2286 155.95 97.5575L155.598 97.6696C153.308 98.4081 150.949 99.3533 149.298 100.974C149.062 102.091 149.243 103.269 149.469 104.384L149.644 105.238C150.368 108.807 150.862 112.311 150.492 115.976C150.11 119.756 148.973 123.155 147.585 126.667C146.929 128.322 146.25 128.022 146.016 129.798C145.838 131.151 145.948 132.547 146.07 133.911L146.172 135.068C146.428 138.097 146.557 141.4 144.574 143.9C144.266 144.283 143.607 144.13 143.388 143.747C143.302 143.594 143.21 143.447 143.109 143.306C142.153 141.919 140.688 141.129 139.013 140.823C138.8 140.786 138.883 140.5 139.062 140.477C140.478 140.31 141.819 140.665 142.959 141.397C142.419 139.525 138.234 140.435 136.858 140.799L136.811 140.812C135.095 141.273 133.472 142.023 132.041 143.084C129.163 145.217 127.499 148.545 127.582 152.129C127.666 155.652 129.482 158.907 132.602 160.594C134.108 161.407 135.821 161.799 137.525 161.782C139.304 161.764 140.887 160.983 142.669 161.093C143.699 161.156 144.488 162.263 143.892 163.229C143.495 163.875 142.977 164.382 142.378 164.772C143.837 168.142 145.7 171.357 147.847 174.324C149.036 175.97 150.383 177.489 151.866 178.876C153.023 179.96 155.53 181.215 155.389 183.022C155.34 183.674 155.003 184.072 154.41 184.314C152.567 185.069 150.325 182.47 149.092 181.216L148.993 181.117C147.456 179.583 146.054 177.887 144.833 176.088C142.669 172.894 141.324 169.292 140.769 165.51C137.813 166.401 133.898 165.564 131.486 164.472C123.904 161.041 121.425 150.814 126.034 144.004C126.926 142.686 128.043 141.559 129.315 140.647C129.036 140.495 128.774 140.299 128.541 140.051C127.251 138.678 126.339 136.888 125.434 135.237L125.326 135.04C124.522 133.586 123.764 132.111 123.054 130.612L122.79 130.049C121.204 126.632 119.813 125.139 118.682 121.546C117.594 118.08 116.736 114.548 116.181 110.956L116.033 110.005C115.712 107.92 115.408 105.691 115.642 103.575C114.027 104.102 112.404 104.428 110.806 103.635C109.753 103.114 109.171 101.591 109.531 100.498C109.793 99.694 110.231 99.0626 110.786 98.5667C110.455 98.3994 110.144 98.1861 109.871 97.9497L109.632 97.7424V97.7424C108.665 96.9002 108.596 95.3 109.183 94.2447C109.24 94.1438 109.298 94.04 109.353 93.9391C109.911 92.9386 111.065 92.2841 112.205 92.3014C112.389 92.3043 112.574 92.3043 112.761 92.3014C112.228 92.1832 111.707 92.0015 111.212 91.6959C108.978 90.3206 109.261 86.5926 111.963 85.9352C113.098 85.6613 114.35 85.7738 115.599 86.0678C115.553 86.0419 115.507 86.0159 115.461 85.9871C114.517 85.4076 113.725 84.2745 113.814 83.1125C113.912 81.8266 114.327 80.9097 115.461 80.2351C116.445 79.6526 117.839 79.5979 118.817 80.2351C119.666 80.7915 120.498 81.4057 121.299 82.0659C120.495 81.077 119.799 80.0015 119.517 78.8598C119.168 77.4383 119.75 75.89 121.028 75.1404C122.047 74.5435 123.123 74.6099 124.085 75.0712C124.033 74.3244 124.214 73.5633 124.71 72.8886C125.723 71.5049 127.565 70.7088 129.168 71.718C129.379 71.8506 129.661 72.0784 129.934 72.3581C129.402 70.6598 129.882 68.878 131.699 68.1111C132.807 67.6411 134.307 67.8775 135.268 68.6877C134.658 65.3806 139.531 62.9501 141.425 66.3667C141.855 67.1407 142.28 67.9557 142.661 68.7894L142.801 69.1029L142.815 69.0971L142.719 68.8679V68.8679L142.62 68.6387C142.093 67.4133 141.422 66.1389 141.238 64.8097C140.967 62.8434 141.843 60.9779 143.978 60.6896C145.081 60.5397 146.307 61.0414 147.047 61.9182C146.647 58.8674 150.049 56.6502 152.499 58.9279C153.659 60.0063 154.278 61.5834 155.015 62.9674C155.432 63.7487 155.858 64.5272 156.275 65.3114C156.382 65.1846 156.497 65.0577 156.618 64.9337C155.999 63.0769 155.518 61.174 155.112 59.2595C154.727 57.4546 155.628 55.5805 157.487 55.0705C159.177 54.6031 161.293 55.6471 161.67 57.4491C161.935 58.7175 162.248 59.972 162.594 61.2201C162.83 61.1625 163.063 61.1221 163.293 61.0933C163.312 60.8588 163.334 60.623 163.359 60.3885L163.449 59.5544C163.65 57.6488 163.853 55.4734 164.848 53.8535C166.543 51.0855 170.89 52.2331 170.936 55.5055C170.962 57.198 170.274 58.8761 170.035 60.5512C169.931 61.2807 169.871 62.0188 169.836 62.7569C170.3 60.3061 170.936 57.8871 171.673 55.5055C171.759 55.2201 171.851 54.9347 171.94 54.6492ZM134.439 149.156C138.253 148.565 141.739 150.696 143.999 153.68C144.41 154.225 144.14 154.995 143.768 155.453C143.501 155.79 143.141 155.831 142.735 155.883C142.269 155.943 141.678 155.565 141.474 155.159C140.02 152.253 137.427 150.416 134.439 149.286C134.384 149.266 134.367 149.168 134.439 149.156ZM139.726 97.0835L139.842 96.9593C140.613 96.1574 139.394 94.9326 138.62 95.7362C137.806 96.5821 137.265 97.6097 136.744 98.6511C136.248 99.6441 137.738 100.521 138.236 99.5245L138.462 99.0714C138.818 98.367 139.198 97.6711 139.726 97.0835V97.0835ZM129.015 95.4378C130.109 95.2533 129.645 93.5859 128.556 93.7698C127.145 94.008 125.739 94.2787 124.328 94.5172C123.234 94.7017 123.698 96.3691 124.787 96.1854C126.198 95.947 127.604 95.6762 129.015 95.4378ZM194.175 84.0545C193.119 83.7013 192.665 85.3715 193.716 85.7227C195.169 86.208 196.609 86.7053 197.987 87.3791C198.982 87.8658 199.858 86.3743 198.858 85.8853C197.346 85.1458 195.77 84.5873 194.175 84.0545ZM128.766 81.8125C127.734 81.399 127.286 83.0716 128.307 83.4807L132.038 84.9751V84.9751C133.07 85.3886 133.518 83.7163 132.497 83.3071L128.766 81.8125V81.8125ZM207.202 77.7507L207.066 77.6647C206.13 77.0574 205.264 78.5544 206.194 79.1585C206.74 79.5129 207.404 79.7532 207.904 80.1754L208.009 80.2688C208.816 81.0328 210.04 79.8121 209.23 79.0454C208.638 78.4851 207.887 78.1731 207.202 77.7507V77.7507Z" fill="black"/>
<path fill-rule="evenodd" clip-rule="evenodd" d="M179.72 159.292C184.654 158.692 189.437 160.205 194.261 160.968C196.808 161.37 199.358 161.671 201.935 161.783C202.453 161.805 202.972 161.819 203.491 161.829C203.539 161.372 203.795 160.952 204.349 160.7C205.484 160.185 206.392 159.952 207.639 160.002C208.779 160.047 209.924 160.165 211.048 160.371C213.088 160.745 215.137 161.595 216.629 163.072C220.082 166.49 219.557 171.979 216.888 175.702C211.375 183.393 201.313 183.75 192.696 183.65L191.901 183.64C184.054 183.527 172.828 184.699 169.263 175.757C167.952 172.469 168.134 168.657 169.739 165.504C171.653 161.742 175.683 159.783 179.72 159.292ZM204.23 172.099L204.159 172.102C200.542 172.241 196.925 172.34 193.305 172.404C193.413 173.335 193.524 174.266 193.65 175.195C193.749 175.926 193.855 176.657 193.966 177.386C194.013 177.695 194.185 178.174 194.136 178.48L194.119 178.601V178.601C194.304 178.685 194.473 178.821 194.598 179.018C194.642 179.086 194.674 179.155 194.705 179.223C197.516 179.245 200.54 179.19 203.405 178.679L203.411 178.616V178.616C203.463 178.25 203.615 178.003 203.817 177.834C204.018 176.665 204 175.419 204.078 174.259C204.126 173.539 204.179 172.819 204.23 172.099ZM190.54 172.453C187.933 172.497 185.324 172.532 182.717 172.5L181.533 172.481V172.481C181.783 173.824 182.055 175.163 182.281 176.515C182.517 177.924 181.279 178.82 180.207 178.784C180.328 178.803 180.448 178.824 180.568 178.841C183.916 179.315 187.393 179.189 190.791 179.186C190.608 178.117 190.682 176.911 190.655 176.019L190.65 175.881C190.598 174.737 190.561 173.595 190.54 172.453ZM172.828 172.207C172.919 172.905 173.095 173.588 173.358 174.225C174.471 176.913 177.023 178.168 179.723 178.696C179.254 178.534 178.883 178.145 178.789 177.478C178.555 175.82 178.47 174.134 178.464 172.451C176.582 172.433 174.688 172.393 172.828 172.207ZM214.042 171.633C212.703 171.949 211.146 171.804 209.832 171.864C208.6 171.92 207.368 171.969 206.137 172.019C206.195 172.861 206.252 173.702 206.313 174.544C206.392 175.632 206.4 176.781 206.608 177.864C209.086 177.017 211.307 175.658 212.973 173.486C213.388 172.945 213.759 172.309 214.042 171.633ZM179.153 163.703C176.923 164.232 174.813 165.349 173.678 167.393C173.005 168.606 172.709 170.044 172.766 171.46C174.651 171.24 176.568 171.157 178.476 171.088C178.482 170.744 178.491 170.4 178.501 170.057L178.53 169.178C178.582 167.501 178.608 165.395 179.153 163.703ZM190.696 163.907L189.714 163.797C186.988 163.486 184.262 163.159 181.535 163.346C181.141 163.374 180.74 163.417 180.338 163.476C180.82 165.218 180.78 167.264 180.981 168.988C181.059 169.655 181.157 170.316 181.266 170.975L181.739 170.953V170.953C184.665 170.794 187.594 170.697 190.523 170.58C190.522 170.029 190.525 169.478 190.534 168.927L190.545 168.376C190.578 166.968 190.488 165.382 190.696 163.907ZM204.389 163.684C201.533 164.146 198.582 164.244 195.776 164.247C194.656 164.249 193.536 164.18 192.416 164.08C192.489 164.677 192.527 165.281 192.582 165.87C192.693 167.059 192.819 168.247 192.956 169.434L193.079 170.472V170.472C196.678 170.309 200.277 170.132 203.876 169.949L204.383 169.922V169.922L204.526 167.926C204.623 166.596 204.729 165.265 204.88 163.941L204.767 163.9V163.9C204.634 163.845 204.508 163.77 204.389 163.684ZM205.629 164.179C205.787 166.061 205.874 167.95 205.99 169.834L208.362 169.707C208.757 169.686 209.153 169.664 209.548 169.641C211.085 169.552 213.06 169.086 214.58 169.521C214.696 168.137 214.301 166.789 213.054 165.859C210.865 164.226 208.078 164.808 205.629 164.179ZM197.524 147.36C201.057 145.334 209.92 143.263 210.481 149.631C210.74 152.561 208.565 154.989 206.025 156.072L205.93 156.112C203.548 157.093 199.326 158.201 197.264 156.074C195.549 154.303 197.824 151.129 199.956 152.579C201.052 153.325 203.358 152.776 204.58 152.421L204.657 152.399C205.976 152.01 207.735 150.767 207.189 149.14C206.707 147.701 204.652 147.438 203.366 147.391C201.446 147.322 199.577 147.769 197.674 147.914C197.373 147.937 197.28 147.5 197.524 147.36ZM212.157 137.121C216.952 136.896 219.934 142.14 218.832 146.436C218.641 147.177 217.813 147.905 217.014 147.822L216.813 147.803C216.711 147.793 216.608 147.78 216.513 147.754C215.755 147.544 215.074 146.753 215.13 145.934L215.144 145.695C215.256 143.665 215.037 141.327 212.629 140.836C210.586 140.419 209.446 142.388 209.422 144.2C209.417 144.522 209.056 144.746 208.772 144.573C207.296 143.674 207.04 141.883 207.604 140.342C208.319 138.388 210.108 137.217 212.157 137.121ZM176.578 138.246C180.067 137.08 183.831 138.943 185.521 142.032C186.113 142.204 186.705 142.662 186.623 143.362C186.504 144.37 186.325 145.006 185.627 145.77C184.536 146.966 182.492 146.354 182.038 144.882L182.019 144.816C181.504 142.913 179.413 141.658 177.508 142.324C175.283 143.102 175.347 145.456 173.787 146.827C173.603 146.988 173.383 147.014 173.163 146.908C171.506 146.105 171.804 143.69 172.395 142.308C173.17 140.494 174.676 138.881 176.578 138.246ZM171.826 127.633C174.654 124.744 182.026 121.948 183.96 127.284C184.329 128.3 183.544 129.67 182.488 129.881C180.758 130.226 179.223 129.474 177.504 129.609C176.113 129.718 174.662 130.184 173.55 131.047C170.469 133.438 169.792 137.482 167.645 140.525C167.541 140.673 167.338 140.611 167.318 140.436C166.83 136.006 168.73 130.798 171.826 127.633ZM208.699 124.789C210.575 124.125 212.7 124.182 214.586 124.771C216.485 125.364 218.229 126.491 219.573 127.963C220.183 128.631 220.747 129.369 221.2 130.154C221.44 130.57 221.693 131.429 221.966 131.941C223.444 132.796 224.075 134.744 222.752 136.129L222.693 136.19L222.516 136.366C221.804 137.071 220.732 137.377 219.761 137.095C217.588 136.465 217.324 134.751 216.572 132.932C216.075 131.73 215.224 130.667 214.192 129.886C211.753 128.04 207.754 127.453 204.818 128.322C204.661 128.369 204.478 128.169 204.589 128.024C205.145 127.302 205.466 126.71 206.211 126.127C206.967 125.536 207.793 125.109 208.699 124.789Z" fill="black"/>
</svg>
