<svg width="354" height="442" viewBox="0 0 354 442" fill="none" xmlns="http://www.w3.org/2000/svg">
<path fill-rule="evenodd" clip-rule="evenodd" d="M17.9179 265.937C14.9605 264.396 12.0728 262.721 9.23084 260.977C7.22906 259.782 9.00129 256.77 11.0539 257.858C12.1034 258.415 13.1489 258.977 14.1982 259.53C13.3724 258.82 12.607 258.047 11.9206 257.204L11.968 257.157C9.32208 254.789 12.7208 250.323 15.7299 252.267C18.3837 254.188 21.0617 256.148 24.1078 257.413C30.4172 260.085 37.3765 260.527 44.1484 260.604C46.6266 260.418 48.9936 260.847 51.3982 261.325C50.4555 257.548 48.0962 254.696 46.8449 251.039C45.9215 247.346 51.2596 244.83 53.1514 248.38C53.6156 249.252 54.0583 250.133 54.4911 251.019C58.5801 254.733 65.408 254.406 69.532 258.394C71.881 260.476 73.0307 263.301 73.4847 266.136C73.793 268.061 73.3137 269.991 74.4794 271.696C80.1152 279.656 89.0202 292.238 93.5426 300.998C96.7447 280.182 105.294 254.435 114.127 235.401C117.048 229.313 120.389 223.365 124.776 218.205C124.279 216.484 126.033 213.43 127.149 214.37C130.584 210.18 136.656 209.095 141.539 207.012C148.13 204.198 153.598 198.348 156.286 191.699C159.74 179.038 168.242 177.43 180.034 177.99C191.319 177.976 199.668 182.795 202.13 194.267C207.133 202.973 218.943 201.534 227.441 203.838C233.668 205.259 239.711 207.455 245.455 210.244C251.844 204.192 274.728 229.591 276.808 236.128C275.583 236.365 274.366 236.65 273.16 236.998C272.086 237.308 272.537 238.928 273.62 238.669C274.969 238.346 276.325 238.123 277.688 237.969C277.73 238.099 277.766 238.228 277.793 238.356C277.946 238.346 278.099 238.333 278.252 238.322C277.913 238.499 277.586 238.703 277.268 238.967C276.499 239.605 277.5 240.836 278.318 240.328C279.088 239.752 280.096 239.843 281.02 239.65C281.075 241.547 287.852 239.425 288.905 238.796C293.584 238.212 298.397 238.839 302.765 236.586C308.577 235.364 314.433 234.012 320.179 232.456C321.701 233.048 323.131 235.167 321.922 236.722C321.242 237.43 322.116 238.585 322.972 238.082C325.842 236.395 328.062 233.762 329.944 230.925C330.83 230.032 332.402 230.224 333.592 229.854C333.752 230.139 333.845 230.457 333.844 230.784C338.892 231.614 335.291 237.12 332.753 238.835C334.099 239.711 334.151 241.425 334.033 242.856C334.318 243.366 334.413 243.998 334.165 244.57C333.216 246.754 331.162 248.594 329.601 250.364C327.878 252.319 326.341 254.284 324.243 255.869C316.249 261.954 306.601 265.356 296.704 266.687C293.19 267.226 288.135 268.051 285.959 271.018C286.493 274.54 287.474 277.917 288.363 281.351C289.606 285.909 289.522 290.681 289.538 295.328C289.712 295.189 290.046 295.218 290.095 295.484C290.385 297.41 290.6 299.38 291.772 300.998C292.8 304.008 293.484 307.219 293.869 310.381C295.408 325.372 295.776 340.806 292.305 355.564C290.965 361.039 288.787 366.242 285.818 371.033C284.934 372.462 283.511 372.881 282.233 372.6C277.957 374.819 272.57 375.53 267.961 374.966C252.248 370.524 257.723 381.22 235.692 377.945C197.664 373.108 159.232 382.614 121.285 377.033C120.35 384.241 108.116 382.173 103.866 379.126C91.1228 369.666 84.7956 339.716 78.4004 324.523C74.0045 312.548 66.6435 291.338 57.0036 283.302C54.1131 281.044 50.6192 279.856 47.1232 278.896C34.076 275.539 20.9785 272.364 7.90642 269.1C5.68953 268.555 6.08798 264.78 8.45847 265.022C11.6045 265.343 14.7612 265.634 17.9179 265.937Z" fill="white"/>
<path fill-rule="evenodd" clip-rule="evenodd" d="M308.367 263.691C309.251 263.582 310.117 263.268 310.977 263.02C312.291 262.636 313.579 262.189 314.846 261.679C317.462 260.633 320 259.396 322.38 257.882C326.223 255.434 329.618 252.297 332.179 248.52L332.355 248.257C333.817 246.033 336.514 241.094 333.49 239.406C335.439 237.78 337.281 234.859 337.177 232.604C337.03 229.416 333.115 229.459 331.091 230.811C329.765 231.696 328.772 232.936 327.776 234.156C326.673 235.511 325.495 236.802 324.271 238.045C323.946 238.374 323.618 238.696 323.284 239.013L322.948 239.328C323 239.204 323.047 239.077 323.087 238.947C323.763 236.846 322.957 234.11 320.852 233.147C319.564 232.557 318.226 232.917 316.978 233.417L316.787 233.495C315.106 234.19 313.406 234.804 311.656 235.297C304.524 237.307 297.081 237.642 289.773 238.645C286.958 239.034 284.091 239.524 281.29 240.245C280.222 235.715 277.603 231.373 274.762 227.801C261.157 210.712 238.719 205.064 218.193 201.408C216.322 201.076 214.772 203.55 213.683 202.965C211.619 201.858 209.803 200.289 208.209 198.585C204.811 194.949 202.4 190.674 199.567 186.623C198.167 184.622 194.945 186.412 196.244 188.56L196.88 189.61C199.501 193.91 202.403 198.341 206.162 201.676C208.16 203.446 210.377 204.845 212.912 205.718C214.833 206.379 217.526 206.935 219.628 206.295L219.881 205.928C219.797 206.05 219.713 206.173 219.628 206.295C214.143 214.232 207.259 220.95 200.006 227.291C192.685 233.687 184.787 239.414 176.842 245.015L176.18 245.481C163.236 236.053 152.302 223.756 144.63 209.706C146.238 209.513 147.829 208.484 149.204 207.716C150.858 206.788 152.414 205.681 153.627 204.205C156.269 200.99 155.925 196.847 156.402 192.946C156.431 192.703 156.11 192.643 155.963 192.764C154.531 193.952 154.028 195.898 153.431 197.579C152.772 199.427 152.027 200.95 150.517 202.25C149.111 203.461 147.396 204.352 145.73 205.145C144.871 205.551 140.606 206.597 140.12 207.463C132.752 205.736 125.574 208.72 120.114 213.754C114.839 218.618 110.967 224.941 107.548 231.183C103.902 237.843 100.913 244.786 98.3377 251.922C95.7275 259.165 93.7266 266.566 92.6266 274.189C91.698 280.617 91.1287 287.145 90.7602 293.643L90.7151 294.456C85.264 285.913 79.677 277.459 73.9745 269.08C75.2709 265.623 73.8359 262.094 71.4077 259.424C68.7167 256.469 64.9949 255.097 61.4349 253.499L60.9669 253.288C59.2511 252.506 57.5408 251.646 56.0587 250.475C54.6323 249.345 53.5843 247.788 52.0828 246.747C49.9 245.23 45.9386 245.553 45.8376 248.866C45.7856 250.686 46.5681 252.68 47.2841 254.315C48.0955 256.164 49.1897 257.839 50.489 259.378C50.5491 259.45 50.6147 259.507 50.6814 259.551L50.7315 259.583C48.9356 259.88 47.1253 260.119 45.2803 260.203C41.5585 260.373 37.7963 260.099 34.1525 259.315C30.4221 258.513 26.8072 257.21 23.4521 255.394C20.585 253.842 17.9287 251.836 14.6718 251.363C14.3715 251.317 14.0683 251.288 13.7565 251.271C13.2368 251.242 12.7171 251.853 12.9221 252.366C13.0347 252.649 13.1531 252.928 13.283 253.211C14.409 255.688 16.1362 258.09 18.2905 259.914L18.4571 260.053C17.6976 259.791 16.9498 259.496 16.2135 259.165C11.8854 257.219 7.95869 254.278 3.31877 253.096C3.09933 253.038 2.87699 252.986 2.65467 252.937C1.21967 252.629 0.463176 254.185 1.30627 255.252C1.44198 255.425 1.5777 255.595 1.71918 255.766C3.78939 258.331 6.07324 260.713 8.59099 262.852C9.4543 263.585 10.3436 264.294 11.2502 264.972C11.6323 265.259 12.0165 265.54 12.4046 265.817L12.5958 265.952C12.1425 265.632 11.695 265.306 11.2503 264.972C8.40918 264.112 5.60847 263.095 2.8684 261.968C1.77988 261.52 0.933897 262.622 0.818404 263.527C0.431503 266.561 3.80392 268.755 5.99828 270.213C8.19842 271.678 10.6209 272.791 13.1011 273.685C17.8698 275.406 22.8784 276.187 27.8792 276.888L30.308 277.225C39.9219 278.568 49.9632 280.173 56.8614 287.643C60.7275 291.829 63.3434 297.03 65.737 302.148C68.1277 307.26 70.2268 312.508 72.219 317.784C74.2835 323.245 76.0823 328.806 77.9937 334.322C79.7492 339.387 81.846 344.386 83.9228 349.335L84.2505 350.116C88.6595 360.635 93.9259 370.541 101.266 379.324C102.475 380.774 104.43 378.716 103.313 377.279C95.6352 367.396 90.2937 355.733 85.8847 344.099C83.8781 338.806 82.1976 333.385 80.2689 328.063L79.1212 324.901C77.5888 320.686 76.043 316.476 74.4307 312.294C72.3894 307.003 70.1459 301.776 67.5791 296.719L67.3068 296.186C64.7937 291.308 61.8081 286.499 57.6987 282.807C50.3022 276.159 40.4599 274.564 30.9437 273.301L27.95 272.907C23.9267 272.373 19.8921 271.783 15.9797 270.709C13.7219 270.093 11.5159 269.302 9.44284 268.212C8.61706 267.78 7.81151 267.304 7.03193 266.785C9.25517 267.437 11.5102 267.97 13.8056 268.388C14.9287 268.593 16.0404 268.746 17.1491 268.853C20.0046 269.135 22.837 269.123 25.7619 268.971C26.0102 268.956 26.091 268.567 25.8254 268.518C23.7885 268.156 21.7493 267.704 19.7185 267.213L19.1095 267.065C19.098 266.728 18.9652 266.37 18.688 266.03C17.6774 264.802 15.7573 264.173 14.4263 263.305C13.0317 262.397 11.6805 261.417 10.3927 260.367C9.21468 259.407 8.08284 258.392 6.99432 257.331L6.66798 257.011C6.77629 257.118 6.88509 257.225 6.99432 257.331C9.93362 258.687 12.7199 260.425 15.7891 261.498C18.2289 262.354 20.7871 262.93 23.3683 263.135L23.5286 263.148L23.6888 263.158C26.3827 263.351 29.0939 263.274 31.7474 263.856C32.0448 263.922 32.1371 263.524 31.8715 263.412C29.553 262.449 27.1421 262.077 24.7052 261.627C24.6532 261.437 24.5204 261.267 24.2894 261.157L23.6659 260.86C21.8092 259.969 20.0786 259.071 18.535 257.625C17.1722 256.348 16.0375 254.855 15.1857 253.199C18.5956 253.946 21.5898 256.527 24.6908 257.977C28.0689 259.56 31.6435 260.696 35.3161 261.342L35.7346 261.414C42.5979 262.557 50.8513 262.411 56.9999 258.848C57.1963 258.732 57.0548 258.47 56.8527 258.502C55.1087 258.787 53.3821 259.124 51.6555 259.424C51.9933 259.116 52.1435 258.562 51.7537 258.118C50.2029 256.344 48.9766 254.315 48.1926 252.096L48.0426 251.662C47.6815 250.632 47.0716 249.033 47.6941 248.105C48.2889 247.22 49.6893 247.341 50.5266 247.716C52.2676 248.5 53.4254 250.458 54.8922 251.64C56.4918 252.931 58.3108 253.889 60.1731 254.745L60.5664 254.923C63.7876 256.37 67.2292 257.588 69.7619 260.142C71.1247 261.515 72.297 263.23 72.6897 265.153C72.8687 266.036 72.8687 266.944 72.6319 267.817C72.4442 268.501 72.0516 268.922 72.2768 269.617C72.5713 270.513 73.6136 271.586 74.1507 272.384C74.7743 273.307 75.3951 274.233 76.0159 275.158C77.2545 277.009 78.4874 278.866 79.7203 280.72C82.1861 284.434 84.6259 288.164 87.0454 291.907C87.8327 293.126 88.6174 294.345 89.3996 295.567L90.5708 297.399L91.1897 298.366L92.2455 300.023C92.2079 300.176 92.2108 300.338 92.2599 300.479C92.4399 300.99 92.7769 301.34 93.1957 301.594L93.2705 301.638C99.4321 311.363 105.495 321.152 111.619 330.9C111.946 333.875 112.252 336.854 112.517 339.832C113.121 346.573 113.534 353.332 113.667 360.098C113.73 363.374 113.467 366.669 113.326 369.942C113.257 371.503 113.162 373.063 113.038 374.623L112.947 375.728C112.825 377.247 112.756 378.755 113.303 380.203C113.788 381.474 115.266 381.76 116.141 380.791C127.555 380.333 138.977 379.984 150.399 379.768C170.844 379.376 191.298 379.436 211.746 379.831C222.016 380.03 232.289 380.31 242.557 380.656C247.615 380.823 252.677 381.059 257.738 381.129C260.465 381.166 264.757 380.174 264.977 377.111L264.982 377.017C265.323 377.109 265.675 377.184 266.036 377.239C266.197 377.264 266.351 377.257 266.494 377.223L266.565 377.205C270.63 378.442 275.772 376.677 279.634 375.648L279.953 375.564C283.64 374.604 286.603 373.231 289.019 370.181C293.249 364.838 294.693 357.665 295.444 351.053C296.148 344.831 296.189 338.494 295.331 332.284C295.836 327.224 295.343 322.002 294.768 316.971C294.485 314.483 294.153 311.997 293.755 309.523C293.532 308.142 293.241 306.776 292.943 305.412C292.825 304.867 292.726 304.28 292.575 303.713L292.507 303.471C292.969 303.532 293.475 303.431 293.963 303.163C295.123 302.526 295.461 301.237 295.481 300.003C295.545 296.284 295.1 292.458 294.707 288.761C294.312 285.071 293.769 281.366 293.059 277.721L292.875 276.782C292.337 274.055 291.721 271.241 290.636 268.679C294.71 267.988 298.773 267.252 302.726 266.001C304.654 265.387 306.554 264.623 308.367 263.691ZM95.7276 302.399C95.7911 302.413 95.8517 302.431 95.9123 302.448C97.5408 302.904 99.1866 303.29 100.827 303.705C103.662 304.417 106.434 305.213 109.07 306.45C109.622 313.41 110.441 320.348 111.219 327.289L111.374 328.677C110.179 326.462 108.954 324.265 107.675 322.095C103.78 315.477 99.7958 308.912 95.7276 302.399ZM291.514 303.088C291.505 303.915 291.679 304.775 291.771 305.57C291.921 306.862 292.042 308.16 292.195 309.451C292.507 312.046 292.773 314.644 292.966 317.25C293.091 318.914 293.171 320.584 293.244 322.253C291.606 316.143 289.438 310.167 287.377 304.181C287.721 304.144 288.073 304.06 288.437 303.964L289.048 303.799C289.409 303.707 290.579 303.419 291.514 303.088ZM90.5707 297.399L90.5592 297.673C90.5159 298.645 91.0991 299.193 91.8065 299.334C91.3965 298.688 90.9836 298.042 90.5707 297.399ZM277.9 251.349C276.177 251.501 274.488 251.868 272.876 252.502L272.721 252.562C271.529 253.022 269.787 253.599 269.397 254.869C269.287 255.229 269.582 255.526 269.92 255.555C271.213 255.659 272.738 254.275 273.936 253.808C275.27 253.289 276.667 252.902 278.082 252.698C281.261 252.233 284.576 252.585 287.567 253.742C287.743 253.811 287.853 253.531 287.694 253.447C284.68 251.81 281.328 251.046 277.9 251.349ZM314.428 259.594C314.627 259.419 314.826 259.234 315.023 259.05C316.571 257.587 317.942 255.881 318.957 254.005L319.224 253.498C320.05 251.899 321.066 249.622 319.123 248.471C317.962 247.782 316.565 247.955 315.271 248.373C315.187 248.399 315.104 248.428 315.02 248.456C314.442 248.659 313.885 248.9 313.389 249.131C311.232 250.12 309.329 251.559 307.337 252.828C305.178 254.203 303.046 255.082 300.555 255.597L300.32 255.644C297.982 256.106 295.447 256.403 293.815 258.323C293.405 258.808 293.781 259.715 294.488 259.476C298.998 257.957 303.771 257.622 307.911 255.128C309.626 254.096 311.249 252.911 313.002 251.934C313.931 251.414 314.891 250.96 315.914 250.649L316.473 250.484C316.8 250.389 317.191 250.295 317.454 250.389C317.954 250.561 317.794 250.829 317.64 251.295L317.624 251.343C316.409 255.097 312.944 258.239 309.733 260.318C308.997 260.797 308.243 261.235 307.475 261.642C302.276 264.409 296.459 265.697 290.746 267.225C290.746 267.225 287.443 268.146 286.349 268.492C285.13 268.391 283.741 268.821 282.823 269.334C281.931 269.833 281.212 270.502 280.669 271.289C280.669 271.289 280.147 271.724 280.051 272.399C279.777 273.025 279.592 273.699 279.5 274.403C279.448 274.815 279.552 275.132 279.748 275.357C279.158 284.408 281.606 293.409 284.366 302.01L284.64 302.859L284.815 303.396C287.792 312.516 291.208 321.57 292.732 331.078C293.752 337.43 293.72 344.004 292.972 350.385L292.919 350.825C292.183 356.857 290.765 363.625 286.923 368.48C284.964 370.958 282.642 372.059 279.674 372.857L279.511 372.9C276.826 373.606 274.054 374.607 271.285 374.91C268.716 375.189 266.562 374.235 264.249 373.341L264.246 373.338C259.375 369.033 257.164 362.765 255.529 356.439C251.294 340.069 251.819 323.075 254.221 306.464C255.475 297.786 257.178 289.182 258.876 280.582C259.725 276.283 260.64 271.992 261.399 267.679L261.85 265.141C262.099 263.73 262.34 262.319 262.546 260.901C262.823 258.995 262.906 257.121 263.002 255.203C265.335 251.343 268.722 248.162 272.645 245.882C275.455 244.247 278.429 243.114 281.498 242.292C290.273 239.931 299.838 240.098 308.668 238.282C311.634 237.672 314.449 236.767 317.264 235.683L317.647 235.534C318.938 235.032 320.255 234.753 320.896 236.272C321.352 237.353 321.08 238.478 320.396 239.386C318.718 241.612 315.346 242.644 312.808 243.446C311.281 243.93 309.722 244.313 308.145 244.599C306.569 244.884 304.986 244.956 303.473 245.513C302.89 245.726 302.775 246.652 303.473 246.816C305.391 247.263 307.319 246.879 309.225 246.507C311.318 246.095 313.38 245.51 315.384 244.769C315.753 244.633 316.136 244.489 316.525 244.337L316.819 244.221C316.515 244.44 316.212 244.657 315.906 244.873C315.825 244.93 315.874 245.083 315.981 245.046C320.693 243.29 324.98 240.123 328.301 236.376L328.466 236.189C329.635 234.85 332.3 230.802 334.547 231.93C336.656 232.987 333.06 237.063 331.694 238.729L331.535 238.925C329.982 238.965 328.478 239.931 327.219 240.709C325.033 242.062 322.749 243.226 320.422 244.316C315.796 246.487 310.885 248.018 306.309 250.299C306.248 250.331 306.294 250.408 306.352 250.4C309.265 249.935 312.147 249.194 314.962 248.275L315.088 248.236L315.213 248.194C316.972 247.617 318.707 246.966 320.413 246.271C322.31 245.498 324.164 244.631 325.963 243.647C327.591 242.759 329.399 241.159 331.287 240.923C331.489 240.897 331.668 240.894 331.824 240.908C333.992 241.09 332.199 244.677 331.593 245.749C330.603 247.511 329.407 249.137 328.036 250.622C325.255 253.638 321.886 256.028 318.239 257.888C316.995 258.522 315.721 259.081 314.428 259.594Z" fill="black"/>
<path fill-rule="evenodd" clip-rule="evenodd" d="M131.82 122.179C132.506 113.315 131.443 104.024 134.865 95.5984C140.833 81.6191 157.567 76.958 170.54 71.6359C175.737 70.1024 193.225 69.888 199.31 67.8584C213.083 63.2649 216.374 57.7918 227.317 66.538C229.165 68.0321 230.32 69.6559 231.164 71.8746L231.129 71.8841C231.37 72.809 231.112 73.732 230.569 74.4369C235.314 79.2802 237.3 86.5413 234.865 92.9885C226.92 109.766 227.294 118.837 229.854 136.874C233.196 153.712 225.557 159.863 212.906 169.024C213.421 170.022 213.528 171.347 212.857 172.227C198.228 192.755 170.644 202.557 147.01 192.137C137.417 187.874 133.135 177.672 130.69 168.466C127.843 158.159 126.968 147.298 129.286 136.798C130.221 131.942 131.439 127.122 131.82 122.179Z" fill="white"/>
<path fill-rule="evenodd" clip-rule="evenodd" d="M216.204 23.9703C214.428 23.7041 213.087 24.8042 212.45 26.3549L212.416 26.4384C212.211 26.966 211.983 27.4792 211.738 27.9838C207.294 25.807 200.953 26.3663 198.141 30.7748C196.134 33.9233 197.359 37.66 198.115 40.9987L198.612 43.1986C197.652 43.8087 196.928 44.9011 196.962 46.0323L196.966 46.1194L197.168 49.1871C196.527 48.5384 195.941 47.832 195.418 47.0795C195.057 46.4192 194.668 45.7705 194.249 45.1419C191.786 41.4428 186.257 44.6576 188.29 48.6191C188.679 49.3832 189.118 50.1069 189.589 50.8046C190.12 51.8339 190.556 52.8921 190.891 53.9791C189.93 54.3971 189.19 55.3255 189.112 56.7268C188.931 59.9993 190.651 62.7297 193.389 64.4452C194.194 64.9498 195.026 65.0478 195.779 64.8604C195.912 65.0392 196.045 65.2179 196.172 65.3996C195.081 66.2847 194.096 67.2938 193.25 68.4125C190.703 68.032 188.142 67.8532 185.581 67.8474C182.451 66.3164 178.704 66.3481 175.34 66.9219C173.174 67.291 171.096 68.0089 168.965 68.525C166.718 69.067 164.437 69.0872 162.165 69.4563C159.301 69.9205 156.789 71.241 155.209 73.3486C153.474 73.4005 151.649 74.1098 150.136 75.0728C146.614 77.316 143.112 79.5908 139.598 81.8484C138.249 82.7151 137.745 84.0988 137.993 85.6421L138.01 85.7408L138.128 86.3809L137.85 86.7748C136.775 88.2913 135.605 89.8796 134.909 91.5534C133.621 93.4073 132.457 95.3506 131.427 97.3545C130.038 100.047 128.892 102.902 128.115 105.831C127.921 106.572 127.728 107.319 127.601 108.074C127.419 109.141 127.699 109.969 127.852 110.992C128.043 112.29 128.112 113.604 128.314 114.905C128.45 115.767 129.183 116.191 129.951 116.214C129.662 118.408 129.455 120.616 129.255 122.808C128.975 125.939 128.785 129.079 128.62 132.219C127.771 133.45 126.036 134.424 124.783 134.762C123.048 135.226 121.229 134.721 119.589 134.13C118.558 133.758 117.712 135.053 118.214 135.918C119.794 138.634 123.172 138.622 125.73 137.42C126.813 136.912 127.763 136.177 128.467 135.22C128.424 136.131 128.378 137.042 128.331 137.956L128.288 138.784C127.768 148.452 126.645 158.453 128.464 168.025C131.614 184.607 145.356 197.232 162.142 198.213C170.951 198.727 178.286 196.129 181.934 194.68C185.581 193.231 184.164 190.276 181.631 191.12C177.269 192.576 169.256 194.744 162.084 193.807C145.182 191.601 130.849 183.165 132.322 146.831C132.53 141.678 133.173 136.523 133.312 131.371C133.445 126.334 133.396 121.294 133.618 116.26L133.692 114.542C133.779 112.535 133.872 110.519 134.022 108.51C134.204 107.731 134.354 106.941 134.577 106.177C135.18 104.098 135.968 102.077 136.947 100.148C137.164 100.313 137.406 100.431 137.669 100.477C139.664 100.835 141.535 100.734 143.403 99.9032C144.275 99.5198 145.043 99.0094 145.759 98.378C146.1 98.081 146.328 97.7927 146.507 97.4929C147.411 97.5073 148.315 97.2362 148.88 96.5875C149.526 95.8481 149.633 95.0844 149.38 94.3774L149.354 94.3069L149.418 94.2838C150.18 96.2531 151.698 97.9859 153.364 99.1565C155.998 101.013 159.292 101.55 162.451 101.599C165.939 101.65 169.617 101.114 173.059 100.566C173.968 100.422 174.872 100.258 175.759 100.036C175.793 100.07 175.828 100.111 175.865 100.145C178.819 102.968 182.974 103.695 186.722 102.083C188.887 101.152 190.703 99.6524 192.309 97.934C192.332 98.8336 192.378 99.7331 192.456 100.624L192.488 100.978C192.648 102.637 192.956 104.397 194.211 105.595C196.241 107.535 199.186 106.757 201.528 105.494C201.525 105.554 201.525 105.618 201.525 105.681C200.893 107.826 200.258 109.974 199.622 112.122L199.485 112.58C199.024 114.105 198.517 115.632 198.378 117.229C198.112 120.279 200.145 123.292 203.54 122.268C205.321 121.734 206.748 120.238 208.117 119.04L208.98 118.295C206.748 125.581 205.201 133.127 205.056 140.73C205.048 141.142 205.403 141.454 205.795 141.468C206.714 141.505 207.701 141.324 208.625 140.958C208.677 140.955 208.729 140.952 208.784 140.943C210.36 140.715 211.824 140.147 213.115 139.308C212.817 140.251 212.685 141.263 212.762 142.321C212.783 142.578 213.184 142.667 213.242 142.385C213.987 138.726 218.274 135.961 221.97 136.662C225.937 137.414 228.859 140.822 229.575 144.7C230.343 148.866 228.874 153.684 226.151 156.899C224.898 158.381 223.249 159.618 221.292 159.929C220.397 160.071 219.467 160.022 218.598 159.768C218.228 159.658 217.882 159.505 217.529 159.361C217.016 159.154 216.415 159.122 215.93 158.903C214.83 158.41 213.724 159.422 214.281 160.549C214.766 161.532 215.202 162.196 216.008 162.703C215.355 163.499 214.763 164.606 214.544 164.903C213.424 166.414 212.286 167.841 211.01 169.222C209.711 170.623 208.293 171.903 206.794 173.088L206.165 173.585C204.721 174.729 203.464 175.788 202.446 177.428C201.643 178.722 202.683 180.478 204.187 180.458C208.893 180.392 212.315 176.263 214.752 172.656C215.098 172.14 215.425 171.595 215.728 171.036C215.838 171.211 215.959 171.376 216.094 171.526L215.826 172.247C215.029 174.369 218.462 175.755 219.458 173.775C220.183 172.339 221.023 170.972 221.959 169.68C222.51 169.603 223.05 169.268 223.35 168.836C224.11 167.737 224.961 166.627 225.68 165.456C226.079 165.079 226.489 164.715 226.908 164.361C227.029 164.468 227.153 164.574 227.271 164.687C227.797 165.883 228.446 166.976 229.252 168.005L229.425 168.225C230.968 170.167 232.978 172.155 235.466 172.63C236.225 172.774 236.955 171.831 236.283 171.229C234.542 169.666 232.483 168.602 230.878 166.858C230.087 165.998 229.36 165.052 228.736 164.06L228.594 163.83C228.49 163.66 228.383 163.49 228.273 163.317C228.998 162.824 229.723 162.328 230.447 161.832C232.442 163.534 235.04 164.313 237.247 165.723L237.466 165.866C239.462 167.198 241.564 164.251 239.964 162.634C238.201 160.857 236.729 158.739 235.167 156.765C235.901 155.414 236.249 153.816 236.379 152.201C236.43 151.744 236.471 151.287 236.511 150.83C237.631 150.847 238.757 150.464 239.71 149.803L240.071 149.547C241.229 149.916 242.444 150.095 243.608 150.063C246.345 149.982 247.465 146.86 245.753 144.885C244.006 142.866 240.949 142.425 238.526 143.405C238.448 143.365 238.367 143.322 238.289 143.279C238.405 142.748 238.379 142.267 238.248 141.844L238.286 141.586C238.819 140.77 239.169 139.838 239.302 138.854C239.407 138.074 239.385 137.301 239.205 136.531C239.145 136.274 239.02 136.009 238.924 135.742C239.121 135.245 239.237 134.732 239.272 134.216C239.328 134.15 239.382 134.083 239.434 134.01C240.636 132.325 240.394 130.295 239.25 128.931C239.244 128.844 239.236 128.757 239.225 128.671C239.292 128.521 239.353 128.369 239.409 128.215C240.527 127.089 241.347 125.734 241.194 124.055C241.104 123.067 240.698 122.178 240.083 121.514C240.192 121.191 240.202 120.818 240.07 120.506C241.052 117.898 240.928 114.757 240.221 111.84C240.377 111.396 240.458 110.914 240.44 110.404C240.36 108.239 238.483 106.249 236.26 106.275C235.992 106.277 235.741 106.312 235.5 106.363L235.497 106.312C235.412 105.662 235.233 105.061 234.972 104.522C235.1 104.476 235.219 104.409 235.323 104.321C236.748 105.08 238.256 105.66 239.836 106.055C240.998 106.346 242.189 105.027 241.466 103.937C241.131 103.432 240.761 102.978 240.363 102.564C240.929 102.567 241.504 102.605 242.086 102.68C243.131 102.815 244.298 102.103 244.976 101.14C245.819 101.959 246.665 102.775 247.511 103.591C249.654 105.664 252.891 104.139 253.228 101.405C253.866 101.235 254.461 100.947 254.984 100.535C258.362 101.999 261.997 102.804 265.713 102.957C268.381 103.066 269.94 99.9638 268.693 97.7725C267.856 96.3021 266.816 94.9816 265.618 93.834C267.477 94.402 269.397 94.8114 271.358 95.0738C272.418 95.2151 273.916 94.3386 274.34 93.3669C275.963 89.6303 275.825 85.735 273.956 82.0993C273.884 81.9551 273.803 81.8167 273.725 81.6783C273.532 81.1968 273.321 80.7211 273.093 80.254C275.391 77.8609 275.591 74.303 274.352 71.3246C274.849 70.5202 275.039 69.5514 274.701 68.6749C273.74 66.1521 272.354 63.8224 270.604 61.8215C270.772 61.4985 270.919 61.1554 271.043 60.7864C272.028 57.8022 270.887 54.2011 268.586 52.1223C267.139 50.8133 265.476 50.029 263.701 49.5273C262.953 48.2068 261.991 47.016 260.871 46.0127C260.828 45.9175 260.784 45.8224 260.735 45.7272C258.991 42.4461 255.815 40.6873 252.411 40.2808C252.278 38.9978 251.412 37.7724 250.153 37.3745C249.807 36.2645 249.29 35.2034 248.58 34.2404C247.462 32.7239 245.606 32.0088 243.856 33.0035C242.898 33.5485 241.979 34.1741 241.119 34.8661C240.732 34.6851 240.294 34.568 239.8 34.5307L239.675 34.523L236.828 34.3788C235.636 33.8512 234.446 33.2976 233.254 32.7585C232.538 32.1674 231.738 31.6744 230.866 31.3082C229.879 30.8959 228.868 30.6623 227.855 30.5845C227.032 30.3163 226.203 30.0799 225.36 29.8954C223.379 29.4629 221.306 29.2207 219.25 29.2409C219.208 28.7096 219.187 28.1719 219.191 27.6278L219.195 27.3553C219.242 25.6109 217.847 24.2183 216.204 23.9703ZM218.199 163.533C218.482 163.594 218.768 163.643 219.054 163.678C218.967 163.891 218.881 164.104 218.797 164.318C218.566 164.447 218.332 164.571 218.098 164.687C218.168 164.295 218.208 163.9 218.199 163.533ZM233.034 159.132L233.225 159.484C233.257 159.542 233.287 159.599 233.317 159.655C232.91 159.624 232.5 159.632 232.096 159.678L232.097 159.635C232.149 159.618 232.201 159.602 232.251 159.578C232.53 159.444 232.789 159.294 233.034 159.132ZM225.016 143.028C222.462 143.176 220.298 143.567 217.974 144.683L217.775 144.781C215.722 145.799 212.327 147.678 212.612 150.374C212.693 151.141 213.25 151.949 214.128 151.888C216.533 151.724 217.908 149.302 219.536 147.791C221.179 146.269 223.197 144.703 225.187 143.656C225.468 143.509 225.357 143.043 225.051 143.028L225.016 143.028ZM236.6 107.509C237.212 107.529 237.007 108.123 236.693 107.627C236.667 107.587 236.635 107.547 236.6 107.509ZM203.559 67.8584C209.356 68.0106 215.19 71.4287 219.533 74.8837C223.311 77.8894 226.574 81.4647 229.463 85.3181C230.206 87.2372 230.844 89.1963 231.383 91.1699C231.738 92.4731 231.96 93.7908 232.258 95.1055L232.35 95.5086C232.584 95.9446 232.757 96.4137 232.884 96.8983C232.357 97.4254 231.674 97.8028 230.923 97.9818C230.68 98.0395 230.479 98.1644 230.32 98.3299C229.715 97.3213 229.186 96.2568 228.878 95.1283L228.867 95.0761C227.704 93.1735 226.44 91.3299 225.086 89.5495C221.349 84.6336 217.235 80.1531 212.289 76.4251C208.538 73.5995 204.346 71.3852 199.888 69.9464C200.979 69.0673 202.218 68.3719 203.559 67.8584Z" fill="black"/>
<path fill-rule="evenodd" clip-rule="evenodd" d="M148.207 154.841C145.861 151.56 149.183 148.474 151.363 147.151C151.935 146.741 151.481 145.385 150.261 145.595C139.174 147.497 144.919 166.567 159.073 156.102C160.759 154.745 158.718 151.754 156.901 152.917C156.809 152.988 156.713 153.062 156.612 153.14C154.571 154.715 150.838 157.598 148.207 154.841ZM170.521 121.817L171.063 121.912C172.817 122.216 174.552 122.88 176.138 123.68C179.109 125.179 182.075 127.638 183.606 130.632C183.772 130.957 183.417 131.401 183.069 131.168C180.417 129.392 177.888 127.775 174.783 126.889C173.368 126.485 171.956 126.242 170.487 126.158C170.032 126.132 169.585 126.143 169.148 126.154C167.874 126.185 166.68 126.215 165.572 125.32C164.727 124.636 164.943 123.309 165.572 122.596C166.759 121.249 168.844 121.528 170.521 121.817ZM141.6 120.656L142.015 120.571C142.503 120.473 142.993 120.515 143.424 120.69C143.847 120.861 144.215 121.161 144.473 121.592C144.815 122.167 144.86 122.649 144.702 123.286C144.579 123.778 144.31 124.148 143.959 124.416C143.588 124.697 143.118 124.862 142.631 124.919C140.38 125.183 138.164 125.677 136.009 126.379C135 126.708 134.047 127.153 133.103 127.616L132.289 128.016C131.538 128.383 130.763 128.736 129.783 128.993C129.706 129.013 129.63 129.032 129.554 129.05C129.315 128.975 129.25 128.886 129.199 128.814L129.199 128.814C129.192 128.804 129.186 128.795 129.179 128.786L129.155 128.757C129.085 128.67 128.999 128.535 129.081 127.909C131.219 123.481 137.085 121.598 141.6 120.656ZM165.088 142.439C165.966 142.95 166.903 142.702 167.65 142.109C168.113 141.742 168.463 141.272 168.815 140.801C169.227 140.25 169.64 139.697 170.235 139.305C171.168 138.692 172.419 138.659 173.492 138.837C175.103 139.103 176.493 139.862 177.888 140.623C178.678 141.054 179.469 141.486 180.302 141.829C180.625 141.963 180.814 141.549 180.706 141.305C179.31 138.173 176.396 135.379 172.929 134.819C169.304 134.234 165.383 136.618 164.117 140.055C163.798 140.922 164.328 141.995 165.088 142.439ZM130.647 138.788C130.573 138.816 130.497 138.731 130.519 138.66C131.436 135.683 134.888 134.429 137.785 134.678C139.578 134.831 141.227 135.486 142.586 136.681C143.882 137.822 144.892 139.98 143.719 141.557C142.512 143.179 140.035 142.655 139.894 140.523C139.803 139.141 137.42 138.287 136.214 138.075C134.339 137.744 132.401 138.139 130.647 138.788ZM164.206 167.345C163.357 167.681 156.179 168.01 151.941 167.817C149.051 167.687 141.553 165.938 141.553 165.187C141.553 164.436 141.873 163.758 142.147 163.787C143.262 163.907 152.145 164.005 158.4 164.074C161.164 164.104 163.415 164.129 164.255 164.147C164.668 164.156 165.101 164.147 165.54 164.136C165.844 165.075 165.055 167.009 164.206 167.345ZM149.837 161.882C146.5 161.853 142.448 161.818 139.56 161.988C138.529 162.049 138.021 163.519 137.949 164.217C137.265 170.701 142.45 175.874 148.176 177.878C153.488 179.737 160.505 180.089 165.243 176.615C167.301 175.107 168.861 173.016 169.877 170.69C170.426 169.435 170.827 168.135 171.049 166.786C171.07 166.658 171.094 166.525 171.118 166.388C171.289 165.418 171.496 164.244 171.165 163.358C170.685 162.082 169.414 162.068 168.247 162.055C168.15 162.054 168.055 162.053 167.96 162.051C167.49 162.042 167.02 162.032 166.55 162.022C165.311 161.995 164.072 161.968 162.835 161.953C160.172 161.923 157.51 161.916 154.849 161.908H154.847C153.922 161.905 152.996 161.902 152.071 161.899C151.383 161.895 150.63 161.889 149.837 161.882ZM179.772 157.169C180.206 158.832 181.119 160.765 182.667 161.672C183.496 162.157 184.725 162.336 185.202 161.339C186.093 159.479 184.844 156.611 184.086 154.938C183.45 153.535 182.647 152.195 181.676 150.997C181.143 150.339 180.552 149.735 179.958 149.134C179.841 149.016 179.716 148.907 179.592 148.799L179.592 148.799C179.418 148.648 179.247 148.499 179.105 148.331C179.54 149.306 179.558 150.578 179.562 151.543C179.565 152.064 179.545 152.585 179.525 153.105C179.474 154.468 179.422 155.826 179.772 157.169ZM176.922 147.807C176.994 147.239 177.51 146.862 178.063 147.153C178.384 147.323 178.633 147.563 178.831 147.844C178.827 147.832 178.823 147.82 178.818 147.807C178.809 147.782 178.8 147.758 178.794 147.731C178.784 147.685 178.808 147.622 178.86 147.614C180.139 147.423 181.778 149.191 182.679 150.164L182.679 150.164C182.742 150.233 182.802 150.298 182.858 150.357C184.132 151.719 185.268 153.287 186.05 154.982C187.047 157.145 188.123 160.414 186.754 162.655C184.849 165.772 180.858 163.421 179.345 161.267C178.078 159.463 177.423 157.263 177.349 155.072C177.327 154.428 177.353 153.784 177.378 153.139C177.402 152.53 177.427 151.92 177.411 151.31C177.397 150.798 177.275 150.283 177.154 149.771C176.997 149.108 176.841 148.449 176.922 147.807ZM131.291 158.286C130.398 159.102 128.847 159.404 127.809 158.634C126.43 157.611 127.619 155.73 128.379 154.527C128.456 154.406 128.528 154.291 128.593 154.185C129.639 152.477 130.67 150.76 131.693 149.038C131.879 148.726 132.098 148.399 132.325 148.061C132.398 148.547 132.49 149.024 132.575 149.461C132.649 149.843 132.717 150.195 132.761 150.498C133.136 153.047 133.401 156.357 131.291 158.286ZM127.557 150.95C126.545 152.542 125.482 154.213 125.02 155.967C124.124 159.372 127.082 161.871 130.362 161.139C133.783 160.376 135.054 156.403 134.982 153.299C134.948 151.87 134.651 150.422 134.361 149.014C134.322 148.821 134.282 148.629 134.244 148.438C134.165 148.047 134.108 147.643 134.05 147.237C133.97 146.67 133.889 146.099 133.748 145.554C133.909 145.111 134.003 144.663 133.986 144.214C133.96 143.501 133.243 143.123 132.622 143.433C131.738 143.874 131.278 144.692 130.811 145.524C130.715 145.694 130.619 145.865 130.519 146.033L128.473 149.477C128.186 149.96 127.874 150.451 127.557 150.95Z" fill="black"/>
</svg>
